<mxfile host="app.diagrams.net" modified="2023-10-26T21:52:11.624Z" agent="Mozilla/5.0 (X11; Linux x86_64) AppleWebKit/537.36 (KHTML, like Gecko) Chrome/118.0.0.0 Safari/537.36" etag="N-iVuRxBvMOlNE3Xoxmj" version="22.0.8" type="device" pages="5">
  <diagram name="HomePage" id="03018318-947c-dd8e-b7a3-06fadd420f32">
    <mxGraphModel dx="1036" dy="549" grid="1" gridSize="6" guides="1" tooltips="1" connect="1" arrows="1" fold="1" page="1" pageScale="1" pageWidth="1100" pageHeight="850" background="#ffffff" math="0" shadow="0">
      <root>
        <mxCell id="0" />
        <mxCell id="1" parent="0" />
        <mxCell id="677b7b8949515195-1" value="" style="whiteSpace=wrap;html=1;rounded=0;shadow=0;labelBackgroundColor=none;strokeColor=#000000;strokeWidth=1;fillColor=default;fontFamily=Verdana;fontSize=12;fontColor=#000000;align=center;comic=1;" parent="1" vertex="1">
          <mxGeometry x="20" y="20" width="1060" height="2720" as="geometry" />
        </mxCell>
        <mxCell id="677b7b8949515195-9" value="" style="line;strokeWidth=1;html=1;rounded=0;shadow=0;labelBackgroundColor=none;fillColor=none;fontFamily=Verdana;fontSize=14;fontColor=#000000;align=center;comic=1;" parent="1" vertex="1">
          <mxGeometry x="20" y="140" width="1060" height="10" as="geometry" />
        </mxCell>
        <mxCell id="ORtQfuq-KQ-e6J87vSjj-6" value="" style="shape=singleArrow;direction=west;whiteSpace=wrap;html=1;" parent="1" vertex="1">
          <mxGeometry x="40" y="25" width="50" height="40" as="geometry" />
        </mxCell>
        <mxCell id="ORtQfuq-KQ-e6J87vSjj-15" value="" style="group" parent="1" vertex="1" connectable="0">
          <mxGeometry x="20" y="150" width="1057" height="400" as="geometry" />
        </mxCell>
        <mxCell id="677b7b8949515195-16" value="" style="verticalLabelPosition=bottom;shadow=0;dashed=0;align=center;html=1;verticalAlign=top;strokeWidth=1;shape=mxgraph.mockup.graphics.simpleIcon;strokeColor=#999999;rounded=0;labelBackgroundColor=none;fontFamily=Verdana;fontSize=14;fontColor=#000000;comic=1;" parent="ORtQfuq-KQ-e6J87vSjj-15" vertex="1">
          <mxGeometry width="1057" height="400" as="geometry" />
        </mxCell>
        <mxCell id="ORtQfuq-KQ-e6J87vSjj-13" value="" style="shape=singleArrow;direction=west;whiteSpace=wrap;html=1;rotation=-180;" parent="ORtQfuq-KQ-e6J87vSjj-15" vertex="1">
          <mxGeometry x="996.0192307692307" y="167" width="50.817307692307686" height="40" as="geometry" />
        </mxCell>
        <mxCell id="ORtQfuq-KQ-e6J87vSjj-14" value="" style="shape=singleArrow;direction=west;whiteSpace=wrap;html=1;rotation=0;" parent="ORtQfuq-KQ-e6J87vSjj-15" vertex="1">
          <mxGeometry x="10.163461538461537" y="180" width="50.817307692307686" height="40" as="geometry" />
        </mxCell>
        <mxCell id="ORtQfuq-KQ-e6J87vSjj-16" value="CATEGORIES" style="text;strokeColor=none;fillColor=none;html=1;fontSize=24;fontStyle=1;verticalAlign=bottom;align=center;" parent="1" vertex="1">
          <mxGeometry x="450" y="583" width="220" height="40" as="geometry" />
        </mxCell>
        <mxCell id="ORtQfuq-KQ-e6J87vSjj-17" value="Find what you are looking for easier" style="text;html=1;strokeColor=none;fillColor=none;align=center;verticalAlign=middle;whiteSpace=wrap;rounded=0;fontSize=15;" parent="1" vertex="1">
          <mxGeometry x="450" y="630" width="240" height="30" as="geometry" />
        </mxCell>
        <mxCell id="ORtQfuq-KQ-e6J87vSjj-42" value="" style="group" parent="1" vertex="1" connectable="0">
          <mxGeometry x="84" y="580" width="1000" height="330" as="geometry" />
        </mxCell>
        <mxCell id="677b7b8949515195-10" value="" style="whiteSpace=wrap;html=1;rounded=0;shadow=0;strokeWidth=1;fillColor=none;align=center;comic=1;container=0;verticalAlign=middle;" parent="ORtQfuq-KQ-e6J87vSjj-42" vertex="1">
          <mxGeometry x="-32" y="-10" width="996" height="90" as="geometry" />
        </mxCell>
        <mxCell id="ORtQfuq-KQ-e6J87vSjj-41" value="" style="group" parent="ORtQfuq-KQ-e6J87vSjj-42" vertex="1" connectable="0">
          <mxGeometry x="70" y="150" width="860" height="180" as="geometry" />
        </mxCell>
        <mxCell id="ORtQfuq-KQ-e6J87vSjj-19" value="" style="verticalLabelPosition=bottom;shadow=0;dashed=0;align=center;html=1;verticalAlign=top;strokeWidth=1;shape=mxgraph.mockup.graphics.simpleIcon;strokeColor=#999999;" parent="ORtQfuq-KQ-e6J87vSjj-41" vertex="1">
          <mxGeometry width="190" height="180" as="geometry" />
        </mxCell>
        <mxCell id="ORtQfuq-KQ-e6J87vSjj-24" value="" style="verticalLabelPosition=bottom;shadow=0;dashed=0;align=center;html=1;verticalAlign=top;strokeWidth=1;shape=mxgraph.mockup.graphics.simpleIcon;strokeColor=#999999;" parent="ORtQfuq-KQ-e6J87vSjj-41" vertex="1">
          <mxGeometry x="220" width="190" height="180" as="geometry" />
        </mxCell>
        <mxCell id="ORtQfuq-KQ-e6J87vSjj-25" value="" style="verticalLabelPosition=bottom;shadow=0;dashed=0;align=center;html=1;verticalAlign=top;strokeWidth=1;shape=mxgraph.mockup.graphics.simpleIcon;strokeColor=#999999;" parent="ORtQfuq-KQ-e6J87vSjj-41" vertex="1">
          <mxGeometry x="670" width="190" height="180" as="geometry" />
        </mxCell>
        <mxCell id="ORtQfuq-KQ-e6J87vSjj-26" value="" style="verticalLabelPosition=bottom;shadow=0;dashed=0;align=center;html=1;verticalAlign=top;strokeWidth=1;shape=mxgraph.mockup.graphics.simpleIcon;strokeColor=#999999;" parent="ORtQfuq-KQ-e6J87vSjj-41" vertex="1">
          <mxGeometry x="450" width="190" height="180" as="geometry" />
        </mxCell>
        <mxCell id="ORtQfuq-KQ-e6J87vSjj-44" value="" style="whiteSpace=wrap;html=1;rounded=0;shadow=0;strokeWidth=1;fillColor=none;align=center;comic=1;container=0;verticalAlign=middle;" parent="1" vertex="1">
          <mxGeometry x="52" y="970" width="1000" height="90" as="geometry" />
        </mxCell>
        <mxCell id="ORtQfuq-KQ-e6J87vSjj-45" value="" style="group" parent="1" vertex="1" connectable="0">
          <mxGeometry x="130" y="1120" width="860" height="180" as="geometry" />
        </mxCell>
        <mxCell id="ORtQfuq-KQ-e6J87vSjj-46" value="" style="verticalLabelPosition=bottom;shadow=0;dashed=0;align=center;html=1;verticalAlign=top;strokeWidth=1;shape=mxgraph.mockup.graphics.simpleIcon;strokeColor=#999999;" parent="ORtQfuq-KQ-e6J87vSjj-45" vertex="1">
          <mxGeometry width="190" height="180" as="geometry" />
        </mxCell>
        <mxCell id="ORtQfuq-KQ-e6J87vSjj-47" value="" style="verticalLabelPosition=bottom;shadow=0;dashed=0;align=center;html=1;verticalAlign=top;strokeWidth=1;shape=mxgraph.mockup.graphics.simpleIcon;strokeColor=#999999;" parent="ORtQfuq-KQ-e6J87vSjj-45" vertex="1">
          <mxGeometry x="220" width="190" height="180" as="geometry" />
        </mxCell>
        <mxCell id="ORtQfuq-KQ-e6J87vSjj-48" value="" style="verticalLabelPosition=bottom;shadow=0;dashed=0;align=center;html=1;verticalAlign=top;strokeWidth=1;shape=mxgraph.mockup.graphics.simpleIcon;strokeColor=#999999;" parent="ORtQfuq-KQ-e6J87vSjj-45" vertex="1">
          <mxGeometry x="670" width="190" height="180" as="geometry" />
        </mxCell>
        <mxCell id="ORtQfuq-KQ-e6J87vSjj-49" value="" style="verticalLabelPosition=bottom;shadow=0;dashed=0;align=center;html=1;verticalAlign=top;strokeWidth=1;shape=mxgraph.mockup.graphics.simpleIcon;strokeColor=#999999;" parent="ORtQfuq-KQ-e6J87vSjj-45" vertex="1">
          <mxGeometry x="450" width="190" height="180" as="geometry" />
        </mxCell>
        <mxCell id="ORtQfuq-KQ-e6J87vSjj-50" value="NEW IN OUR COLLECTION" style="text;strokeColor=none;fillColor=none;html=1;fontSize=21;fontStyle=1;verticalAlign=middle;align=center;fontFamily=Verdana;fontColor=default;" parent="1" vertex="1">
          <mxGeometry x="440" y="980" width="320" height="40" as="geometry" />
        </mxCell>
        <mxCell id="ORtQfuq-KQ-e6J87vSjj-51" value="All the latest picked from designer of our store" style="text;html=1;strokeColor=none;fillColor=none;align=center;verticalAlign=middle;whiteSpace=wrap;rounded=0;fontSize=14;fontFamily=Verdana;fontColor=default;" parent="1" vertex="1">
          <mxGeometry x="390" y="1020" width="405" height="30" as="geometry" />
        </mxCell>
        <mxCell id="ORtQfuq-KQ-e6J87vSjj-84" value="" style="group" parent="1" vertex="1" connectable="0">
          <mxGeometry x="130" y="1320" width="860" height="110" as="geometry" />
        </mxCell>
        <mxCell id="ORtQfuq-KQ-e6J87vSjj-64" value="&lt;span&gt;&lt;font style=&quot;font-size: 14px;&quot;&gt;CATEGORY&lt;/font&gt;&lt;/span&gt;" style="text;html=1;strokeColor=none;fillColor=none;align=center;verticalAlign=middle;whiteSpace=wrap;rounded=0;fontSize=12;fontFamily=Verdana;fontColor=default;fontStyle=0" parent="ORtQfuq-KQ-e6J87vSjj-84" vertex="1">
          <mxGeometry y="10" width="190" height="30" as="geometry" />
        </mxCell>
        <mxCell id="ORtQfuq-KQ-e6J87vSjj-65" value="" style="line;strokeWidth=2;html=1;rounded=0;shadow=0;labelBackgroundColor=none;comic=1;strokeColor=default;fontFamily=Verdana;fontSize=12;fontColor=default;fillColor=none;" parent="ORtQfuq-KQ-e6J87vSjj-84" vertex="1">
          <mxGeometry width="190" height="10" as="geometry" />
        </mxCell>
        <mxCell id="ORtQfuq-KQ-e6J87vSjj-68" value="" style="line;strokeWidth=2;html=1;rounded=0;shadow=0;labelBackgroundColor=none;comic=1;strokeColor=default;fontFamily=Verdana;fontSize=12;fontColor=default;fillColor=none;" parent="ORtQfuq-KQ-e6J87vSjj-84" vertex="1">
          <mxGeometry x="222" width="188" height="10" as="geometry" />
        </mxCell>
        <mxCell id="ORtQfuq-KQ-e6J87vSjj-69" value="" style="line;strokeWidth=2;html=1;rounded=0;shadow=0;labelBackgroundColor=none;comic=1;strokeColor=default;fontFamily=Verdana;fontSize=12;fontColor=default;fillColor=none;" parent="ORtQfuq-KQ-e6J87vSjj-84" vertex="1">
          <mxGeometry x="452" width="188" height="10" as="geometry" />
        </mxCell>
        <mxCell id="ORtQfuq-KQ-e6J87vSjj-70" value="" style="line;strokeWidth=2;html=1;rounded=0;shadow=0;labelBackgroundColor=none;comic=1;strokeColor=default;fontFamily=Verdana;fontSize=12;fontColor=default;fillColor=none;" parent="ORtQfuq-KQ-e6J87vSjj-84" vertex="1">
          <mxGeometry x="672" width="188" height="10" as="geometry" />
        </mxCell>
        <mxCell id="ORtQfuq-KQ-e6J87vSjj-71" value="&lt;span&gt;&lt;font style=&quot;font-size: 14px;&quot;&gt;CATEGORY&lt;/font&gt;&lt;/span&gt;" style="text;html=1;strokeColor=none;fillColor=none;align=center;verticalAlign=middle;whiteSpace=wrap;rounded=0;fontSize=12;fontFamily=Verdana;fontColor=default;fontStyle=0" parent="ORtQfuq-KQ-e6J87vSjj-84" vertex="1">
          <mxGeometry x="221" y="10" width="190" height="30" as="geometry" />
        </mxCell>
        <mxCell id="ORtQfuq-KQ-e6J87vSjj-72" value="&lt;span&gt;&lt;font style=&quot;font-size: 14px;&quot;&gt;CATEGORY&lt;/font&gt;&lt;/span&gt;" style="text;html=1;strokeColor=none;fillColor=none;align=center;verticalAlign=middle;whiteSpace=wrap;rounded=0;fontSize=12;fontFamily=Verdana;fontColor=default;fontStyle=0" parent="ORtQfuq-KQ-e6J87vSjj-84" vertex="1">
          <mxGeometry x="452" y="10" width="190" height="30" as="geometry" />
        </mxCell>
        <mxCell id="ORtQfuq-KQ-e6J87vSjj-73" value="&lt;span&gt;&lt;font style=&quot;font-size: 14px;&quot;&gt;CATEGORY&lt;/font&gt;&lt;/span&gt;" style="text;html=1;strokeColor=none;fillColor=none;align=center;verticalAlign=middle;whiteSpace=wrap;rounded=0;fontSize=12;fontFamily=Verdana;fontColor=default;fontStyle=0" parent="ORtQfuq-KQ-e6J87vSjj-84" vertex="1">
          <mxGeometry x="672" y="10" width="190" height="30" as="geometry" />
        </mxCell>
        <mxCell id="ORtQfuq-KQ-e6J87vSjj-74" value="&lt;span style=&quot;font-size: 14px;&quot;&gt;Name of the product listing&lt;/span&gt;" style="text;html=1;strokeColor=none;fillColor=none;align=center;verticalAlign=middle;whiteSpace=wrap;rounded=0;fontSize=12;fontFamily=Verdana;fontColor=default;fontStyle=0" parent="ORtQfuq-KQ-e6J87vSjj-84" vertex="1">
          <mxGeometry x="10" y="40" width="190" height="30" as="geometry" />
        </mxCell>
        <mxCell id="ORtQfuq-KQ-e6J87vSjj-75" value="&lt;span style=&quot;font-size: 14px;&quot;&gt;Name of the product listing&lt;/span&gt;" style="text;html=1;strokeColor=none;fillColor=none;align=center;verticalAlign=middle;whiteSpace=wrap;rounded=0;fontSize=12;fontFamily=Verdana;fontColor=default;fontStyle=0" parent="ORtQfuq-KQ-e6J87vSjj-84" vertex="1">
          <mxGeometry x="221" y="40" width="190" height="30" as="geometry" />
        </mxCell>
        <mxCell id="ORtQfuq-KQ-e6J87vSjj-76" value="&lt;span style=&quot;font-size: 14px;&quot;&gt;Name of the product listing&lt;/span&gt;" style="text;html=1;strokeColor=none;fillColor=none;align=center;verticalAlign=middle;whiteSpace=wrap;rounded=0;fontSize=12;fontFamily=Verdana;fontColor=default;fontStyle=0" parent="ORtQfuq-KQ-e6J87vSjj-84" vertex="1">
          <mxGeometry x="665" y="40" width="190" height="30" as="geometry" />
        </mxCell>
        <mxCell id="ORtQfuq-KQ-e6J87vSjj-77" value="&lt;span style=&quot;font-size: 14px;&quot;&gt;Name of the product listing&lt;/span&gt;" style="text;html=1;strokeColor=none;fillColor=none;align=center;verticalAlign=middle;whiteSpace=wrap;rounded=0;fontSize=12;fontFamily=Verdana;fontColor=default;fontStyle=0" parent="ORtQfuq-KQ-e6J87vSjj-84" vertex="1">
          <mxGeometry x="452" y="40" width="190" height="30" as="geometry" />
        </mxCell>
        <mxCell id="ORtQfuq-KQ-e6J87vSjj-78" value="&lt;span style=&quot;font-size: 14px;&quot;&gt;$100&lt;/span&gt;" style="text;html=1;strokeColor=none;fillColor=none;align=center;verticalAlign=middle;whiteSpace=wrap;rounded=0;fontSize=12;fontFamily=Verdana;fontColor=default;fontStyle=1" parent="ORtQfuq-KQ-e6J87vSjj-84" vertex="1">
          <mxGeometry x="10" y="80" width="190" height="30" as="geometry" />
        </mxCell>
        <mxCell id="ORtQfuq-KQ-e6J87vSjj-79" value="&lt;span style=&quot;font-size: 14px;&quot;&gt;$100&lt;/span&gt;" style="text;html=1;strokeColor=none;fillColor=none;align=center;verticalAlign=middle;whiteSpace=wrap;rounded=0;fontSize=12;fontFamily=Verdana;fontColor=default;fontStyle=1" parent="ORtQfuq-KQ-e6J87vSjj-84" vertex="1">
          <mxGeometry x="210" y="80" width="190" height="30" as="geometry" />
        </mxCell>
        <mxCell id="ORtQfuq-KQ-e6J87vSjj-80" value="&lt;span style=&quot;font-size: 14px;&quot;&gt;$100&lt;/span&gt;" style="text;html=1;strokeColor=none;fillColor=none;align=center;verticalAlign=middle;whiteSpace=wrap;rounded=0;fontSize=12;fontFamily=Verdana;fontColor=default;fontStyle=1" parent="ORtQfuq-KQ-e6J87vSjj-84" vertex="1">
          <mxGeometry x="452" y="80" width="190" height="30" as="geometry" />
        </mxCell>
        <mxCell id="ORtQfuq-KQ-e6J87vSjj-81" value="&lt;span style=&quot;font-size: 14px;&quot;&gt;$100&lt;/span&gt;" style="text;html=1;strokeColor=none;fillColor=none;align=center;verticalAlign=middle;whiteSpace=wrap;rounded=0;fontSize=12;fontFamily=Verdana;fontColor=default;fontStyle=1" parent="ORtQfuq-KQ-e6J87vSjj-84" vertex="1">
          <mxGeometry x="665" y="80" width="190" height="30" as="geometry" />
        </mxCell>
        <mxCell id="ORtQfuq-KQ-e6J87vSjj-85" value="" style="group" parent="1" vertex="1" connectable="0">
          <mxGeometry x="132" y="1675" width="862" height="110" as="geometry" />
        </mxCell>
        <mxCell id="ORtQfuq-KQ-e6J87vSjj-86" value="&lt;span&gt;&lt;font style=&quot;font-size: 14px;&quot;&gt;CATEGORY&lt;/font&gt;&lt;/span&gt;" style="text;html=1;strokeColor=none;fillColor=none;align=center;verticalAlign=middle;whiteSpace=wrap;rounded=0;fontSize=12;fontFamily=Verdana;fontColor=default;fontStyle=0" parent="ORtQfuq-KQ-e6J87vSjj-85" vertex="1">
          <mxGeometry y="10" width="190" height="30" as="geometry" />
        </mxCell>
        <mxCell id="ORtQfuq-KQ-e6J87vSjj-87" value="" style="line;strokeWidth=2;html=1;rounded=0;shadow=0;labelBackgroundColor=none;comic=1;strokeColor=default;fontFamily=Verdana;fontSize=12;fontColor=default;fillColor=none;" parent="ORtQfuq-KQ-e6J87vSjj-85" vertex="1">
          <mxGeometry width="190" height="10" as="geometry" />
        </mxCell>
        <mxCell id="ORtQfuq-KQ-e6J87vSjj-88" value="" style="line;strokeWidth=2;html=1;rounded=0;shadow=0;labelBackgroundColor=none;comic=1;strokeColor=default;fontFamily=Verdana;fontSize=12;fontColor=default;fillColor=none;" parent="ORtQfuq-KQ-e6J87vSjj-85" vertex="1">
          <mxGeometry x="222" width="188" height="10" as="geometry" />
        </mxCell>
        <mxCell id="ORtQfuq-KQ-e6J87vSjj-89" value="" style="line;strokeWidth=2;html=1;rounded=0;shadow=0;labelBackgroundColor=none;comic=1;strokeColor=default;fontFamily=Verdana;fontSize=12;fontColor=default;fillColor=none;" parent="ORtQfuq-KQ-e6J87vSjj-85" vertex="1">
          <mxGeometry x="452" width="188" height="10" as="geometry" />
        </mxCell>
        <mxCell id="ORtQfuq-KQ-e6J87vSjj-90" value="" style="line;strokeWidth=2;html=1;rounded=0;shadow=0;labelBackgroundColor=none;comic=1;strokeColor=default;fontFamily=Verdana;fontSize=12;fontColor=default;fillColor=none;" parent="ORtQfuq-KQ-e6J87vSjj-85" vertex="1">
          <mxGeometry x="672" width="188" height="10" as="geometry" />
        </mxCell>
        <mxCell id="ORtQfuq-KQ-e6J87vSjj-91" value="&lt;span&gt;&lt;font style=&quot;font-size: 14px;&quot;&gt;CATEGORY&lt;/font&gt;&lt;/span&gt;" style="text;html=1;strokeColor=none;fillColor=none;align=center;verticalAlign=middle;whiteSpace=wrap;rounded=0;fontSize=12;fontFamily=Verdana;fontColor=default;fontStyle=0" parent="ORtQfuq-KQ-e6J87vSjj-85" vertex="1">
          <mxGeometry x="221" y="10" width="190" height="30" as="geometry" />
        </mxCell>
        <mxCell id="ORtQfuq-KQ-e6J87vSjj-92" value="&lt;span&gt;&lt;font style=&quot;font-size: 14px;&quot;&gt;CATEGORY&lt;/font&gt;&lt;/span&gt;" style="text;html=1;strokeColor=none;fillColor=none;align=center;verticalAlign=middle;whiteSpace=wrap;rounded=0;fontSize=12;fontFamily=Verdana;fontColor=default;fontStyle=0" parent="ORtQfuq-KQ-e6J87vSjj-85" vertex="1">
          <mxGeometry x="452" y="10" width="190" height="30" as="geometry" />
        </mxCell>
        <mxCell id="ORtQfuq-KQ-e6J87vSjj-93" value="&lt;span&gt;&lt;font style=&quot;font-size: 14px;&quot;&gt;CATEGORY&lt;/font&gt;&lt;/span&gt;" style="text;html=1;strokeColor=none;fillColor=none;align=center;verticalAlign=middle;whiteSpace=wrap;rounded=0;fontSize=12;fontFamily=Verdana;fontColor=default;fontStyle=0" parent="ORtQfuq-KQ-e6J87vSjj-85" vertex="1">
          <mxGeometry x="672" y="10" width="190" height="30" as="geometry" />
        </mxCell>
        <mxCell id="ORtQfuq-KQ-e6J87vSjj-94" value="&lt;span style=&quot;font-size: 14px;&quot;&gt;Name of the product listing&lt;/span&gt;" style="text;html=1;strokeColor=none;fillColor=none;align=center;verticalAlign=middle;whiteSpace=wrap;rounded=0;fontSize=12;fontFamily=Verdana;fontColor=default;fontStyle=0" parent="ORtQfuq-KQ-e6J87vSjj-85" vertex="1">
          <mxGeometry x="10" y="40" width="190" height="30" as="geometry" />
        </mxCell>
        <mxCell id="ORtQfuq-KQ-e6J87vSjj-95" value="&lt;span style=&quot;font-size: 14px;&quot;&gt;Name of the product listing&lt;/span&gt;" style="text;html=1;strokeColor=none;fillColor=none;align=center;verticalAlign=middle;whiteSpace=wrap;rounded=0;fontSize=12;fontFamily=Verdana;fontColor=default;fontStyle=0" parent="ORtQfuq-KQ-e6J87vSjj-85" vertex="1">
          <mxGeometry x="221" y="40" width="190" height="30" as="geometry" />
        </mxCell>
        <mxCell id="ORtQfuq-KQ-e6J87vSjj-96" value="&lt;span style=&quot;font-size: 14px;&quot;&gt;Name of the product listing&lt;/span&gt;" style="text;html=1;strokeColor=none;fillColor=none;align=center;verticalAlign=middle;whiteSpace=wrap;rounded=0;fontSize=12;fontFamily=Verdana;fontColor=default;fontStyle=0" parent="ORtQfuq-KQ-e6J87vSjj-85" vertex="1">
          <mxGeometry x="665" y="40" width="190" height="30" as="geometry" />
        </mxCell>
        <mxCell id="ORtQfuq-KQ-e6J87vSjj-97" value="&lt;span style=&quot;font-size: 14px;&quot;&gt;Name of the product listing&lt;/span&gt;" style="text;html=1;strokeColor=none;fillColor=none;align=center;verticalAlign=middle;whiteSpace=wrap;rounded=0;fontSize=12;fontFamily=Verdana;fontColor=default;fontStyle=0" parent="ORtQfuq-KQ-e6J87vSjj-85" vertex="1">
          <mxGeometry x="452" y="40" width="190" height="30" as="geometry" />
        </mxCell>
        <mxCell id="ORtQfuq-KQ-e6J87vSjj-98" value="&lt;span style=&quot;font-size: 14px;&quot;&gt;$100&lt;/span&gt;" style="text;html=1;strokeColor=none;fillColor=none;align=center;verticalAlign=middle;whiteSpace=wrap;rounded=0;fontSize=12;fontFamily=Verdana;fontColor=default;fontStyle=1" parent="ORtQfuq-KQ-e6J87vSjj-85" vertex="1">
          <mxGeometry x="10" y="80" width="190" height="30" as="geometry" />
        </mxCell>
        <mxCell id="ORtQfuq-KQ-e6J87vSjj-99" value="&lt;span style=&quot;font-size: 14px;&quot;&gt;$100&lt;/span&gt;" style="text;html=1;strokeColor=none;fillColor=none;align=center;verticalAlign=middle;whiteSpace=wrap;rounded=0;fontSize=12;fontFamily=Verdana;fontColor=default;fontStyle=1" parent="ORtQfuq-KQ-e6J87vSjj-85" vertex="1">
          <mxGeometry x="210" y="80" width="190" height="30" as="geometry" />
        </mxCell>
        <mxCell id="ORtQfuq-KQ-e6J87vSjj-100" value="&lt;span style=&quot;font-size: 14px;&quot;&gt;$100&lt;/span&gt;" style="text;html=1;strokeColor=none;fillColor=none;align=center;verticalAlign=middle;whiteSpace=wrap;rounded=0;fontSize=12;fontFamily=Verdana;fontColor=default;fontStyle=1" parent="ORtQfuq-KQ-e6J87vSjj-85" vertex="1">
          <mxGeometry x="452" y="80" width="190" height="30" as="geometry" />
        </mxCell>
        <mxCell id="ORtQfuq-KQ-e6J87vSjj-101" value="&lt;span style=&quot;font-size: 14px;&quot;&gt;$100&lt;/span&gt;" style="text;html=1;strokeColor=none;fillColor=none;align=center;verticalAlign=middle;whiteSpace=wrap;rounded=0;fontSize=12;fontFamily=Verdana;fontColor=default;fontStyle=1" parent="ORtQfuq-KQ-e6J87vSjj-85" vertex="1">
          <mxGeometry x="665" y="80" width="190" height="30" as="geometry" />
        </mxCell>
        <mxCell id="ORtQfuq-KQ-e6J87vSjj-107" value="" style="whiteSpace=wrap;html=1;rounded=0;shadow=0;strokeWidth=1;fillColor=none;align=center;comic=1;container=0;verticalAlign=middle;" parent="1" vertex="1">
          <mxGeometry x="48.5" y="1820" width="1000" height="90" as="geometry" />
        </mxCell>
        <mxCell id="ORtQfuq-KQ-e6J87vSjj-108" value="RECENTLY VIEWED" style="text;strokeColor=none;fillColor=none;html=1;fontSize=21;fontStyle=1;verticalAlign=middle;align=center;fontFamily=Verdana;fontColor=default;" parent="1" vertex="1">
          <mxGeometry x="428.5" y="1830" width="320" height="40" as="geometry" />
        </mxCell>
        <mxCell id="ORtQfuq-KQ-e6J87vSjj-109" value="All the latest picked from designer of our store" style="text;html=1;strokeColor=none;fillColor=none;align=center;verticalAlign=middle;whiteSpace=wrap;rounded=0;fontSize=14;fontFamily=Verdana;fontColor=default;" parent="1" vertex="1">
          <mxGeometry x="378.5" y="1870" width="405" height="30" as="geometry" />
        </mxCell>
        <mxCell id="ORtQfuq-KQ-e6J87vSjj-110" value="" style="group" parent="1" vertex="1" connectable="0">
          <mxGeometry x="100" y="1946" width="860" height="180" as="geometry" />
        </mxCell>
        <mxCell id="ORtQfuq-KQ-e6J87vSjj-111" value="" style="verticalLabelPosition=bottom;shadow=0;dashed=0;align=center;html=1;verticalAlign=top;strokeWidth=1;shape=mxgraph.mockup.graphics.simpleIcon;strokeColor=#999999;" parent="ORtQfuq-KQ-e6J87vSjj-110" vertex="1">
          <mxGeometry width="190" height="180" as="geometry" />
        </mxCell>
        <mxCell id="ORtQfuq-KQ-e6J87vSjj-112" value="" style="verticalLabelPosition=bottom;shadow=0;dashed=0;align=center;html=1;verticalAlign=top;strokeWidth=1;shape=mxgraph.mockup.graphics.simpleIcon;strokeColor=#999999;" parent="ORtQfuq-KQ-e6J87vSjj-110" vertex="1">
          <mxGeometry x="220" width="190" height="180" as="geometry" />
        </mxCell>
        <mxCell id="ORtQfuq-KQ-e6J87vSjj-113" value="" style="verticalLabelPosition=bottom;shadow=0;dashed=0;align=center;html=1;verticalAlign=top;strokeWidth=1;shape=mxgraph.mockup.graphics.simpleIcon;strokeColor=#999999;" parent="ORtQfuq-KQ-e6J87vSjj-110" vertex="1">
          <mxGeometry x="670" width="190" height="180" as="geometry" />
        </mxCell>
        <mxCell id="ORtQfuq-KQ-e6J87vSjj-114" value="" style="verticalLabelPosition=bottom;shadow=0;dashed=0;align=center;html=1;verticalAlign=top;strokeWidth=1;shape=mxgraph.mockup.graphics.simpleIcon;strokeColor=#999999;" parent="ORtQfuq-KQ-e6J87vSjj-110" vertex="1">
          <mxGeometry x="450" width="190" height="180" as="geometry" />
        </mxCell>
        <mxCell id="ORtQfuq-KQ-e6J87vSjj-135" value="" style="group" parent="1" vertex="1" connectable="0">
          <mxGeometry x="110" y="2160" width="860" height="110" as="geometry" />
        </mxCell>
        <mxCell id="ORtQfuq-KQ-e6J87vSjj-136" value="&lt;span&gt;&lt;font style=&quot;font-size: 14px;&quot;&gt;CATEGORY&lt;/font&gt;&lt;/span&gt;" style="text;html=1;strokeColor=none;fillColor=none;align=center;verticalAlign=middle;whiteSpace=wrap;rounded=0;fontSize=12;fontFamily=Verdana;fontColor=default;fontStyle=0" parent="ORtQfuq-KQ-e6J87vSjj-135" vertex="1">
          <mxGeometry y="10" width="190" height="30" as="geometry" />
        </mxCell>
        <mxCell id="ORtQfuq-KQ-e6J87vSjj-137" value="" style="line;strokeWidth=2;html=1;rounded=0;shadow=0;labelBackgroundColor=none;comic=1;strokeColor=default;fontFamily=Verdana;fontSize=12;fontColor=default;fillColor=none;" parent="ORtQfuq-KQ-e6J87vSjj-135" vertex="1">
          <mxGeometry width="190" height="10" as="geometry" />
        </mxCell>
        <mxCell id="ORtQfuq-KQ-e6J87vSjj-138" value="" style="line;strokeWidth=2;html=1;rounded=0;shadow=0;labelBackgroundColor=none;comic=1;strokeColor=default;fontFamily=Verdana;fontSize=12;fontColor=default;fillColor=none;" parent="ORtQfuq-KQ-e6J87vSjj-135" vertex="1">
          <mxGeometry x="222" width="188" height="10" as="geometry" />
        </mxCell>
        <mxCell id="ORtQfuq-KQ-e6J87vSjj-139" value="" style="line;strokeWidth=2;html=1;rounded=0;shadow=0;labelBackgroundColor=none;comic=1;strokeColor=default;fontFamily=Verdana;fontSize=12;fontColor=default;fillColor=none;" parent="ORtQfuq-KQ-e6J87vSjj-135" vertex="1">
          <mxGeometry x="452" width="188" height="10" as="geometry" />
        </mxCell>
        <mxCell id="ORtQfuq-KQ-e6J87vSjj-140" value="" style="line;strokeWidth=2;html=1;rounded=0;shadow=0;labelBackgroundColor=none;comic=1;strokeColor=default;fontFamily=Verdana;fontSize=12;fontColor=default;fillColor=none;" parent="ORtQfuq-KQ-e6J87vSjj-135" vertex="1">
          <mxGeometry x="672" width="188" height="10" as="geometry" />
        </mxCell>
        <mxCell id="ORtQfuq-KQ-e6J87vSjj-141" value="&lt;span&gt;&lt;font style=&quot;font-size: 14px;&quot;&gt;CATEGORY&lt;/font&gt;&lt;/span&gt;" style="text;html=1;strokeColor=none;fillColor=none;align=center;verticalAlign=middle;whiteSpace=wrap;rounded=0;fontSize=12;fontFamily=Verdana;fontColor=default;fontStyle=0" parent="ORtQfuq-KQ-e6J87vSjj-135" vertex="1">
          <mxGeometry x="221" y="10" width="190" height="30" as="geometry" />
        </mxCell>
        <mxCell id="ORtQfuq-KQ-e6J87vSjj-142" value="&lt;span&gt;&lt;font style=&quot;font-size: 14px;&quot;&gt;CATEGORY&lt;/font&gt;&lt;/span&gt;" style="text;html=1;strokeColor=none;fillColor=none;align=center;verticalAlign=middle;whiteSpace=wrap;rounded=0;fontSize=12;fontFamily=Verdana;fontColor=default;fontStyle=0" parent="ORtQfuq-KQ-e6J87vSjj-135" vertex="1">
          <mxGeometry x="452" y="10" width="190" height="30" as="geometry" />
        </mxCell>
        <mxCell id="ORtQfuq-KQ-e6J87vSjj-143" value="&lt;span&gt;&lt;font style=&quot;font-size: 14px;&quot;&gt;CATEGORY&lt;/font&gt;&lt;/span&gt;" style="text;html=1;strokeColor=none;fillColor=none;align=center;verticalAlign=middle;whiteSpace=wrap;rounded=0;fontSize=12;fontFamily=Verdana;fontColor=default;fontStyle=0" parent="ORtQfuq-KQ-e6J87vSjj-135" vertex="1">
          <mxGeometry x="672" y="10" width="190" height="30" as="geometry" />
        </mxCell>
        <mxCell id="ORtQfuq-KQ-e6J87vSjj-144" value="&lt;span style=&quot;font-size: 14px;&quot;&gt;Name of the product listing&lt;/span&gt;" style="text;html=1;strokeColor=none;fillColor=none;align=center;verticalAlign=middle;whiteSpace=wrap;rounded=0;fontSize=12;fontFamily=Verdana;fontColor=default;fontStyle=0" parent="ORtQfuq-KQ-e6J87vSjj-135" vertex="1">
          <mxGeometry x="10" y="40" width="190" height="30" as="geometry" />
        </mxCell>
        <mxCell id="ORtQfuq-KQ-e6J87vSjj-145" value="&lt;span style=&quot;font-size: 14px;&quot;&gt;Name of the product listing&lt;/span&gt;" style="text;html=1;strokeColor=none;fillColor=none;align=center;verticalAlign=middle;whiteSpace=wrap;rounded=0;fontSize=12;fontFamily=Verdana;fontColor=default;fontStyle=0" parent="ORtQfuq-KQ-e6J87vSjj-135" vertex="1">
          <mxGeometry x="221" y="40" width="190" height="30" as="geometry" />
        </mxCell>
        <mxCell id="ORtQfuq-KQ-e6J87vSjj-146" value="&lt;span style=&quot;font-size: 14px;&quot;&gt;Name of the product listing&lt;/span&gt;" style="text;html=1;strokeColor=none;fillColor=none;align=center;verticalAlign=middle;whiteSpace=wrap;rounded=0;fontSize=12;fontFamily=Verdana;fontColor=default;fontStyle=0" parent="ORtQfuq-KQ-e6J87vSjj-135" vertex="1">
          <mxGeometry x="665" y="40" width="190" height="30" as="geometry" />
        </mxCell>
        <mxCell id="ORtQfuq-KQ-e6J87vSjj-147" value="&lt;span style=&quot;font-size: 14px;&quot;&gt;Name of the product listing&lt;/span&gt;" style="text;html=1;strokeColor=none;fillColor=none;align=center;verticalAlign=middle;whiteSpace=wrap;rounded=0;fontSize=12;fontFamily=Verdana;fontColor=default;fontStyle=0" parent="ORtQfuq-KQ-e6J87vSjj-135" vertex="1">
          <mxGeometry x="452" y="40" width="190" height="30" as="geometry" />
        </mxCell>
        <mxCell id="ORtQfuq-KQ-e6J87vSjj-148" value="&lt;span style=&quot;font-size: 14px;&quot;&gt;$100&lt;/span&gt;" style="text;html=1;strokeColor=none;fillColor=none;align=center;verticalAlign=middle;whiteSpace=wrap;rounded=0;fontSize=12;fontFamily=Verdana;fontColor=default;fontStyle=1" parent="ORtQfuq-KQ-e6J87vSjj-135" vertex="1">
          <mxGeometry x="10" y="80" width="190" height="30" as="geometry" />
        </mxCell>
        <mxCell id="ORtQfuq-KQ-e6J87vSjj-149" value="&lt;span style=&quot;font-size: 14px;&quot;&gt;$100&lt;/span&gt;" style="text;html=1;strokeColor=none;fillColor=none;align=center;verticalAlign=middle;whiteSpace=wrap;rounded=0;fontSize=12;fontFamily=Verdana;fontColor=default;fontStyle=1" parent="ORtQfuq-KQ-e6J87vSjj-135" vertex="1">
          <mxGeometry x="210" y="81" width="190" height="30" as="geometry" />
        </mxCell>
        <mxCell id="ORtQfuq-KQ-e6J87vSjj-150" value="&lt;span style=&quot;font-size: 14px;&quot;&gt;$100&lt;/span&gt;" style="text;html=1;strokeColor=none;fillColor=none;align=center;verticalAlign=middle;whiteSpace=wrap;rounded=0;fontSize=12;fontFamily=Verdana;fontColor=default;fontStyle=1" parent="ORtQfuq-KQ-e6J87vSjj-135" vertex="1">
          <mxGeometry x="452" y="80" width="190" height="30" as="geometry" />
        </mxCell>
        <mxCell id="ORtQfuq-KQ-e6J87vSjj-151" value="&lt;span style=&quot;font-size: 14px;&quot;&gt;$100&lt;/span&gt;" style="text;html=1;strokeColor=none;fillColor=none;align=center;verticalAlign=middle;whiteSpace=wrap;rounded=0;fontSize=12;fontFamily=Verdana;fontColor=default;fontStyle=1" parent="ORtQfuq-KQ-e6J87vSjj-135" vertex="1">
          <mxGeometry x="665" y="80" width="190" height="30" as="geometry" />
        </mxCell>
        <mxCell id="ORtQfuq-KQ-e6J87vSjj-158" value="" style="whiteSpace=wrap;html=1;rounded=0;shadow=0;strokeWidth=1;fillColor=none;align=center;comic=1;container=0;verticalAlign=middle;" parent="1" vertex="1">
          <mxGeometry x="20" y="2472" width="1060" height="218" as="geometry" />
        </mxCell>
        <mxCell id="ORtQfuq-KQ-e6J87vSjj-163" value="DESIWEAR" style="text;strokeColor=none;fillColor=none;html=1;fontSize=21;fontStyle=1;verticalAlign=middle;align=center;fontFamily=Verdana;fontColor=default;" parent="1" vertex="1">
          <mxGeometry x="120" y="2497" width="221.5" height="40" as="geometry" />
        </mxCell>
        <mxCell id="ORtQfuq-KQ-e6J87vSjj-164" value="CATEGORY" style="text;strokeColor=none;fillColor=none;html=1;fontSize=21;fontStyle=1;verticalAlign=middle;align=center;fontFamily=Verdana;fontColor=default;" parent="1" vertex="1">
          <mxGeometry x="508.5" y="2497" width="221.5" height="40" as="geometry" />
        </mxCell>
        <mxCell id="ORtQfuq-KQ-e6J87vSjj-165" value="USEFUL LINKS" style="text;strokeColor=none;fillColor=none;html=1;fontSize=21;fontStyle=1;verticalAlign=middle;align=center;fontFamily=Verdana;fontColor=default;" parent="1" vertex="1">
          <mxGeometry x="730" y="2497" width="221.5" height="40" as="geometry" />
        </mxCell>
        <mxCell id="ORtQfuq-KQ-e6J87vSjj-166" value="" style="line;strokeWidth=2;html=1;rounded=0;shadow=0;labelBackgroundColor=none;comic=1;strokeColor=default;fontFamily=Verdana;fontSize=12;fontColor=default;fillColor=none;" parent="1" vertex="1">
          <mxGeometry x="170" y="2537" width="60" height="10" as="geometry" />
        </mxCell>
        <mxCell id="ORtQfuq-KQ-e6J87vSjj-167" value="" style="line;strokeWidth=2;html=1;rounded=0;shadow=0;labelBackgroundColor=none;comic=1;strokeColor=default;fontFamily=Verdana;fontSize=12;fontColor=default;fillColor=none;" parent="1" vertex="1">
          <mxGeometry x="760" y="2537" width="60" height="10" as="geometry" />
        </mxCell>
        <mxCell id="ORtQfuq-KQ-e6J87vSjj-168" value="" style="line;strokeWidth=2;html=1;rounded=0;shadow=0;labelBackgroundColor=none;comic=1;strokeColor=default;fontFamily=Verdana;fontSize=12;fontColor=default;fillColor=none;" parent="1" vertex="1">
          <mxGeometry x="558.5" y="2537" width="60" height="10" as="geometry" />
        </mxCell>
        <mxCell id="ORtQfuq-KQ-e6J87vSjj-169" value="DesiWear: Your Fashion Destination for Desi Dazzle – Embrace the Culture, Own the Style, and Slay Every Day" style="text;html=1;strokeColor=none;fillColor=none;align=left;verticalAlign=middle;whiteSpace=wrap;rounded=0;fontSize=12;fontFamily=Verdana;fontColor=default;" parent="1" vertex="1">
          <mxGeometry x="160" y="2556" width="330" height="70" as="geometry" />
        </mxCell>
        <mxCell id="ORtQfuq-KQ-e6J87vSjj-170" value="Women&#39;s" style="text;html=1;strokeColor=none;fillColor=none;align=left;verticalAlign=middle;whiteSpace=wrap;rounded=0;fontSize=12;fontFamily=Verdana;fontColor=default;" parent="1" vertex="1">
          <mxGeometry x="558.5" y="2556" width="60" height="30" as="geometry" />
        </mxCell>
        <mxCell id="ORtQfuq-KQ-e6J87vSjj-171" value="Men&#39;s" style="text;html=1;strokeColor=none;fillColor=none;align=left;verticalAlign=middle;whiteSpace=wrap;rounded=0;fontSize=12;fontFamily=Verdana;fontColor=default;" parent="1" vertex="1">
          <mxGeometry x="558.5" y="2586" width="60" height="30" as="geometry" />
        </mxCell>
        <mxCell id="ORtQfuq-KQ-e6J87vSjj-172" value="Kids" style="text;html=1;strokeColor=none;fillColor=none;align=left;verticalAlign=middle;whiteSpace=wrap;rounded=0;fontSize=12;fontFamily=Verdana;fontColor=default;" parent="1" vertex="1">
          <mxGeometry x="558.5" y="2616" width="60" height="30" as="geometry" />
        </mxCell>
        <mxCell id="ORtQfuq-KQ-e6J87vSjj-173" value="Accessories" style="text;html=1;strokeColor=none;fillColor=none;align=left;verticalAlign=middle;whiteSpace=wrap;rounded=0;fontSize=12;fontFamily=Verdana;fontColor=default;" parent="1" vertex="1">
          <mxGeometry x="558.5" y="2646" width="60" height="30" as="geometry" />
        </mxCell>
        <mxCell id="ORtQfuq-KQ-e6J87vSjj-175" value="Your Account" style="text;html=1;strokeColor=none;fillColor=none;align=left;verticalAlign=middle;whiteSpace=wrap;rounded=0;fontSize=12;fontFamily=Verdana;fontColor=default;" parent="1" vertex="1">
          <mxGeometry x="748.5" y="2556" width="131.5" height="30" as="geometry" />
        </mxCell>
        <mxCell id="ORtQfuq-KQ-e6J87vSjj-176" value="Become an Affiliate" style="text;html=1;strokeColor=none;fillColor=none;align=left;verticalAlign=middle;whiteSpace=wrap;rounded=0;fontSize=12;fontFamily=Verdana;fontColor=default;" parent="1" vertex="1">
          <mxGeometry x="748.5" y="2586" width="131.5" height="30" as="geometry" />
        </mxCell>
        <mxCell id="ORtQfuq-KQ-e6J87vSjj-177" value="Shipping Rates" style="text;html=1;strokeColor=none;fillColor=none;align=left;verticalAlign=middle;whiteSpace=wrap;rounded=0;fontSize=12;fontFamily=Verdana;fontColor=default;" parent="1" vertex="1">
          <mxGeometry x="748.5" y="2616" width="131.5" height="30" as="geometry" />
        </mxCell>
        <mxCell id="ORtQfuq-KQ-e6J87vSjj-178" value="Help" style="text;html=1;strokeColor=none;fillColor=none;align=left;verticalAlign=middle;whiteSpace=wrap;rounded=0;fontSize=12;fontFamily=Verdana;fontColor=default;" parent="1" vertex="1">
          <mxGeometry x="750" y="2646" width="131.5" height="30" as="geometry" />
        </mxCell>
        <mxCell id="ORtQfuq-KQ-e6J87vSjj-179" value="" style="whiteSpace=wrap;html=1;rounded=0;shadow=0;strokeWidth=1;fillColor=none;align=center;comic=1;container=0;verticalAlign=middle;" parent="1" vertex="1">
          <mxGeometry x="20" y="2690" width="1060" height="50" as="geometry" />
        </mxCell>
        <mxCell id="ORtQfuq-KQ-e6J87vSjj-180" value="© 2023 Copyright: DesiWear" style="text;html=1;strokeColor=none;fillColor=none;align=left;verticalAlign=middle;whiteSpace=wrap;rounded=0;fontSize=13;fontFamily=Verdana;fontColor=default;" parent="1" vertex="1">
          <mxGeometry x="450" y="2700" width="230" height="30" as="geometry" />
        </mxCell>
        <mxCell id="KrUd3hDpyQtE_0FC0cFg-1" value="" style="group" parent="1" vertex="1" connectable="0">
          <mxGeometry x="129" y="1460" width="860" height="180" as="geometry" />
        </mxCell>
        <mxCell id="ORtQfuq-KQ-e6J87vSjj-103" value="" style="verticalLabelPosition=bottom;shadow=0;dashed=0;align=center;html=1;verticalAlign=top;strokeWidth=1;shape=mxgraph.mockup.graphics.simpleIcon;strokeColor=#999999;" parent="KrUd3hDpyQtE_0FC0cFg-1" vertex="1">
          <mxGeometry width="190" height="180" as="geometry" />
        </mxCell>
        <mxCell id="ORtQfuq-KQ-e6J87vSjj-104" value="" style="verticalLabelPosition=bottom;shadow=0;dashed=0;align=center;html=1;verticalAlign=top;strokeWidth=1;shape=mxgraph.mockup.graphics.simpleIcon;strokeColor=#999999;" parent="KrUd3hDpyQtE_0FC0cFg-1" vertex="1">
          <mxGeometry x="220" width="190" height="180" as="geometry" />
        </mxCell>
        <mxCell id="ORtQfuq-KQ-e6J87vSjj-105" value="" style="verticalLabelPosition=bottom;shadow=0;dashed=0;align=center;html=1;verticalAlign=top;strokeWidth=1;shape=mxgraph.mockup.graphics.simpleIcon;strokeColor=#999999;" parent="KrUd3hDpyQtE_0FC0cFg-1" vertex="1">
          <mxGeometry x="670" width="190" height="180" as="geometry" />
        </mxCell>
        <mxCell id="ORtQfuq-KQ-e6J87vSjj-106" value="" style="verticalLabelPosition=bottom;shadow=0;dashed=0;align=center;html=1;verticalAlign=top;strokeWidth=1;shape=mxgraph.mockup.graphics.simpleIcon;strokeColor=#999999;" parent="KrUd3hDpyQtE_0FC0cFg-1" vertex="1">
          <mxGeometry x="450" width="190" height="180" as="geometry" />
        </mxCell>
        <mxCell id="6UN0ArN30xrtDtAAnSdm-1" value="" style="whiteSpace=wrap;html=1;rounded=0;shadow=0;strokeWidth=1;fillColor=none;align=center;comic=1;container=0;verticalAlign=middle;" parent="1" vertex="1">
          <mxGeometry x="20" y="2400" width="1060" height="72" as="geometry" />
        </mxCell>
        <mxCell id="6UN0ArN30xrtDtAAnSdm-2" value="Connect with us!" style="text;strokeColor=none;fillColor=none;html=1;fontSize=24;fontStyle=1;verticalAlign=middle;align=left;" parent="1" vertex="1">
          <mxGeometry x="30" y="2416" width="246" height="40" as="geometry" />
        </mxCell>
        <mxCell id="6UN0ArN30xrtDtAAnSdm-4" value="" style="shape=image;html=1;verticalAlign=top;verticalLabelPosition=bottom;labelBackgroundColor=#ffffff;imageAspect=0;aspect=fixed;image=https://cdn2.iconfinder.com/data/icons/social-media-2285/512/1_Facebook_colored_svg_copy-128.png" parent="1" vertex="1">
          <mxGeometry x="1018.5" y="2421" width="30" height="30" as="geometry" />
        </mxCell>
        <mxCell id="6UN0ArN30xrtDtAAnSdm-5" value="" style="shape=image;html=1;verticalAlign=top;verticalLabelPosition=bottom;labelBackgroundColor=#ffffff;imageAspect=0;aspect=fixed;image=https://cdn2.iconfinder.com/data/icons/social-media-2285/512/1_Facebook_colored_svg_copy-128.png" parent="1" vertex="1">
          <mxGeometry x="970" y="2421" width="30" height="30" as="geometry" />
        </mxCell>
        <mxCell id="6UN0ArN30xrtDtAAnSdm-6" value="" style="shape=image;html=1;verticalAlign=top;verticalLabelPosition=bottom;labelBackgroundColor=#ffffff;imageAspect=0;aspect=fixed;image=https://cdn2.iconfinder.com/data/icons/social-media-2285/512/1_Facebook_colored_svg_copy-128.png" parent="1" vertex="1">
          <mxGeometry x="921.5" y="2421" width="30" height="30" as="geometry" />
        </mxCell>
        <mxCell id="6UN0ArN30xrtDtAAnSdm-9" value="" style="shape=image;html=1;verticalAlign=top;verticalLabelPosition=bottom;labelBackgroundColor=#ffffff;imageAspect=0;aspect=fixed;image=https://cdn2.iconfinder.com/data/icons/social-media-2285/512/1_Facebook_colored_svg_copy-128.png" parent="1" vertex="1">
          <mxGeometry x="864" y="2421" width="30" height="30" as="geometry" />
        </mxCell>
        <mxCell id="677b7b8949515195-2" value="LOGO" style="whiteSpace=wrap;html=1;rounded=0;shadow=0;labelBackgroundColor=none;strokeWidth=1;fontFamily=Verdana;fontSize=28;align=center;comic=1;" parent="1" vertex="1">
          <mxGeometry x="40" y="81" width="130" height="50" as="geometry" />
        </mxCell>
        <mxCell id="677b7b8949515195-3" value="Search" style="strokeWidth=1;shadow=0;dashed=0;align=center;html=1;shape=mxgraph.mockup.forms.searchBox;strokeColor=#999999;mainText=;strokeColor2=#008cff;fontColor=#666666;fontSize=17;align=left;spacingLeft=3;rounded=0;labelBackgroundColor=none;comic=1;" parent="1" vertex="1">
          <mxGeometry x="390" y="91" width="220" height="30" as="geometry" />
        </mxCell>
        <mxCell id="ORtQfuq-KQ-e6J87vSjj-1" value="Shop Now" style="text;html=1;points=[];align=left;verticalAlign=top;spacingTop=-4;fontSize=14;fontFamily=Verdana" parent="1" vertex="1">
          <mxGeometry x="200" y="96" width="80" height="20" as="geometry" />
        </mxCell>
        <mxCell id="ORtQfuq-KQ-e6J87vSjj-8" value="" style="group" parent="1" vertex="1" connectable="0">
          <mxGeometry x="20" y="19.999999999999996" width="1060" height="50" as="geometry" />
        </mxCell>
        <mxCell id="ORtQfuq-KQ-e6J87vSjj-2" value="" style="whiteSpace=wrap;html=1;rounded=0;shadow=0;labelBackgroundColor=none;strokeWidth=1;fillColor=none;fontFamily=Verdana;fontSize=12;align=center;comic=1;" parent="ORtQfuq-KQ-e6J87vSjj-8" vertex="1">
          <mxGeometry y="3.552713678800501e-15" width="1060" height="50" as="geometry" />
        </mxCell>
        <mxCell id="ORtQfuq-KQ-e6J87vSjj-3" value="Free Shipping on all items" style="text;html=1;points=[];align=center;verticalAlign=top;spacingTop=-4;fontSize=14;fontFamily=Verdana" parent="ORtQfuq-KQ-e6J87vSjj-8" vertex="1">
          <mxGeometry x="385" y="15.000000000000004" width="290" height="20" as="geometry" />
        </mxCell>
        <mxCell id="ORtQfuq-KQ-e6J87vSjj-7" value="" style="shape=singleArrow;direction=west;whiteSpace=wrap;html=1;rotation=-180;" parent="ORtQfuq-KQ-e6J87vSjj-8" vertex="1">
          <mxGeometry x="993" y="3.552713678800501e-15" width="50" height="40" as="geometry" />
        </mxCell>
        <mxCell id="ORtQfuq-KQ-e6J87vSjj-9" value="Currency" style="text;html=1;points=[];align=right;verticalAlign=top;spacingTop=-4;fontSize=14;fontFamily=Verdana" parent="1" vertex="1">
          <mxGeometry x="784" y="91" width="80" height="20" as="geometry" />
        </mxCell>
        <mxCell id="ORtQfuq-KQ-e6J87vSjj-10" value="Cart" style="text;html=1;points=[];align=right;verticalAlign=top;spacingTop=-4;fontSize=14;fontFamily=Verdana" parent="1" vertex="1">
          <mxGeometry x="832" y="91" width="80" height="20" as="geometry" />
        </mxCell>
        <mxCell id="ORtQfuq-KQ-e6J87vSjj-11" value="Wishlist" style="text;html=1;points=[];align=right;verticalAlign=top;spacingTop=-4;fontSize=14;fontFamily=Verdana" parent="1" vertex="1">
          <mxGeometry x="903" y="91" width="80" height="20" as="geometry" />
        </mxCell>
        <mxCell id="o1Oc7XtgnbqnXagaMtRl-1" value="Profile" style="text;html=1;points=[];align=right;verticalAlign=top;spacingTop=-4;fontSize=14;fontFamily=Verdana" parent="1" vertex="1">
          <mxGeometry x="974" y="91" width="80" height="20" as="geometry" />
        </mxCell>
      </root>
    </mxGraphModel>
  </diagram>
  <diagram name="Cart" id="eoS8bVSFyuvMQZmqr2i4">
    <mxGraphModel dx="1036" dy="549" grid="1" gridSize="6" guides="1" tooltips="1" connect="1" arrows="1" fold="1" page="1" pageScale="1" pageWidth="1100" pageHeight="850" background="#ffffff" math="0" shadow="0">
      <root>
        <mxCell id="AuS2F1Ax6viGn4lre6-I-0" />
        <mxCell id="AuS2F1Ax6viGn4lre6-I-1" parent="AuS2F1Ax6viGn4lre6-I-0" />
        <mxCell id="AuS2F1Ax6viGn4lre6-I-2" value="" style="whiteSpace=wrap;html=1;rounded=0;shadow=0;labelBackgroundColor=none;strokeColor=#000000;strokeWidth=1;fillColor=default;fontFamily=Verdana;fontSize=12;fontColor=#000000;align=center;comic=1;" parent="AuS2F1Ax6viGn4lre6-I-1" vertex="1">
          <mxGeometry x="20" y="20" width="1060" height="1684" as="geometry" />
        </mxCell>
        <mxCell id="AuS2F1Ax6viGn4lre6-I-3" value="" style="line;strokeWidth=1;html=1;rounded=0;shadow=0;labelBackgroundColor=none;fillColor=none;fontFamily=Verdana;fontSize=14;fontColor=#000000;align=center;comic=1;" parent="AuS2F1Ax6viGn4lre6-I-1" vertex="1">
          <mxGeometry x="20" y="140" width="1060" height="10" as="geometry" />
        </mxCell>
        <mxCell id="AuS2F1Ax6viGn4lre6-I-4" value="" style="shape=singleArrow;direction=west;whiteSpace=wrap;html=1;" parent="AuS2F1Ax6viGn4lre6-I-1" vertex="1">
          <mxGeometry x="40" y="25" width="50" height="40" as="geometry" />
        </mxCell>
        <mxCell id="AuS2F1Ax6viGn4lre6-I-5" value="" style="group" parent="AuS2F1Ax6viGn4lre6-I-1" vertex="1" connectable="0">
          <mxGeometry x="20" y="19.999999999999996" width="1060" height="111" as="geometry" />
        </mxCell>
        <mxCell id="AuS2F1Ax6viGn4lre6-I-6" value="LOGO" style="whiteSpace=wrap;html=1;rounded=0;shadow=0;labelBackgroundColor=none;strokeWidth=1;fontFamily=Verdana;fontSize=28;align=center;comic=1;" parent="AuS2F1Ax6viGn4lre6-I-5" vertex="1">
          <mxGeometry x="20" y="61" width="130" height="50" as="geometry" />
        </mxCell>
        <mxCell id="AuS2F1Ax6viGn4lre6-I-7" value="Search" style="strokeWidth=1;shadow=0;dashed=0;align=center;html=1;shape=mxgraph.mockup.forms.searchBox;strokeColor=#999999;mainText=;strokeColor2=#008cff;fontColor=#666666;fontSize=17;align=left;spacingLeft=3;rounded=0;labelBackgroundColor=none;comic=1;" parent="AuS2F1Ax6viGn4lre6-I-5" vertex="1">
          <mxGeometry x="370" y="71" width="220" height="30" as="geometry" />
        </mxCell>
        <mxCell id="AuS2F1Ax6viGn4lre6-I-8" value="Shop Now" style="text;html=1;points=[];align=left;verticalAlign=top;spacingTop=-4;fontSize=14;fontFamily=Verdana" parent="AuS2F1Ax6viGn4lre6-I-5" vertex="1">
          <mxGeometry x="180" y="76" width="80" height="20" as="geometry" />
        </mxCell>
        <mxCell id="AuS2F1Ax6viGn4lre6-I-9" value="" style="group" parent="AuS2F1Ax6viGn4lre6-I-5" vertex="1" connectable="0">
          <mxGeometry width="1060" height="50" as="geometry" />
        </mxCell>
        <mxCell id="AuS2F1Ax6viGn4lre6-I-10" value="" style="whiteSpace=wrap;html=1;rounded=0;shadow=0;labelBackgroundColor=none;strokeWidth=1;fillColor=none;fontFamily=Verdana;fontSize=12;align=center;comic=1;" parent="AuS2F1Ax6viGn4lre6-I-9" vertex="1">
          <mxGeometry y="3.552713678800501e-15" width="1060" height="50" as="geometry" />
        </mxCell>
        <mxCell id="AuS2F1Ax6viGn4lre6-I-11" value="Free Shipping on all items" style="text;html=1;points=[];align=center;verticalAlign=top;spacingTop=-4;fontSize=14;fontFamily=Verdana" parent="AuS2F1Ax6viGn4lre6-I-9" vertex="1">
          <mxGeometry x="385" y="15.000000000000004" width="290" height="20" as="geometry" />
        </mxCell>
        <mxCell id="AuS2F1Ax6viGn4lre6-I-12" value="" style="shape=singleArrow;direction=west;whiteSpace=wrap;html=1;rotation=-180;" parent="AuS2F1Ax6viGn4lre6-I-9" vertex="1">
          <mxGeometry x="993" y="3.552713678800501e-15" width="50" height="40" as="geometry" />
        </mxCell>
        <mxCell id="AuS2F1Ax6viGn4lre6-I-101" value="" style="whiteSpace=wrap;html=1;rounded=0;shadow=0;strokeWidth=1;fillColor=none;align=center;comic=1;container=0;verticalAlign=middle;" parent="AuS2F1Ax6viGn4lre6-I-1" vertex="1">
          <mxGeometry x="20" y="1446" width="1060" height="192" as="geometry" />
        </mxCell>
        <mxCell id="AuS2F1Ax6viGn4lre6-I-102" value="DESIWEAR" style="text;strokeColor=none;fillColor=none;html=1;fontSize=21;fontStyle=1;verticalAlign=middle;align=center;fontFamily=Verdana;fontColor=default;" parent="AuS2F1Ax6viGn4lre6-I-1" vertex="1">
          <mxGeometry x="120" y="1456" width="221.5" height="40" as="geometry" />
        </mxCell>
        <mxCell id="AuS2F1Ax6viGn4lre6-I-103" value="CATEGORY" style="text;strokeColor=none;fillColor=none;html=1;fontSize=21;fontStyle=1;verticalAlign=middle;align=center;fontFamily=Verdana;fontColor=default;" parent="AuS2F1Ax6viGn4lre6-I-1" vertex="1">
          <mxGeometry x="508.5" y="1456" width="221.5" height="40" as="geometry" />
        </mxCell>
        <mxCell id="AuS2F1Ax6viGn4lre6-I-104" value="USEFUL LINKS" style="text;strokeColor=none;fillColor=none;html=1;fontSize=21;fontStyle=1;verticalAlign=middle;align=center;fontFamily=Verdana;fontColor=default;" parent="AuS2F1Ax6viGn4lre6-I-1" vertex="1">
          <mxGeometry x="730" y="1456" width="221.5" height="40" as="geometry" />
        </mxCell>
        <mxCell id="AuS2F1Ax6viGn4lre6-I-105" value="" style="line;strokeWidth=2;html=1;rounded=0;shadow=0;labelBackgroundColor=none;comic=1;strokeColor=default;fontFamily=Verdana;fontSize=12;fontColor=default;fillColor=none;" parent="AuS2F1Ax6viGn4lre6-I-1" vertex="1">
          <mxGeometry x="170" y="1496" width="60" height="10" as="geometry" />
        </mxCell>
        <mxCell id="AuS2F1Ax6viGn4lre6-I-106" value="" style="line;strokeWidth=2;html=1;rounded=0;shadow=0;labelBackgroundColor=none;comic=1;strokeColor=default;fontFamily=Verdana;fontSize=12;fontColor=default;fillColor=none;" parent="AuS2F1Ax6viGn4lre6-I-1" vertex="1">
          <mxGeometry x="760" y="1496" width="60" height="10" as="geometry" />
        </mxCell>
        <mxCell id="AuS2F1Ax6viGn4lre6-I-107" value="" style="line;strokeWidth=2;html=1;rounded=0;shadow=0;labelBackgroundColor=none;comic=1;strokeColor=default;fontFamily=Verdana;fontSize=12;fontColor=default;fillColor=none;" parent="AuS2F1Ax6viGn4lre6-I-1" vertex="1">
          <mxGeometry x="558.5" y="1496" width="60" height="10" as="geometry" />
        </mxCell>
        <mxCell id="AuS2F1Ax6viGn4lre6-I-108" value="DesiWear: Your Fashion Destination for Desi Dazzle – Embrace the Culture, Own the Style, and Slay Every Day" style="text;html=1;strokeColor=none;fillColor=none;align=left;verticalAlign=middle;whiteSpace=wrap;rounded=0;fontSize=12;fontFamily=Verdana;fontColor=default;" parent="AuS2F1Ax6viGn4lre6-I-1" vertex="1">
          <mxGeometry x="160" y="1515" width="330" height="70" as="geometry" />
        </mxCell>
        <mxCell id="AuS2F1Ax6viGn4lre6-I-109" value="Women&#39;s" style="text;html=1;strokeColor=none;fillColor=none;align=left;verticalAlign=middle;whiteSpace=wrap;rounded=0;fontSize=12;fontFamily=Verdana;fontColor=default;" parent="AuS2F1Ax6viGn4lre6-I-1" vertex="1">
          <mxGeometry x="558.5" y="1515" width="60" height="30" as="geometry" />
        </mxCell>
        <mxCell id="AuS2F1Ax6viGn4lre6-I-110" value="Men&#39;s" style="text;html=1;strokeColor=none;fillColor=none;align=left;verticalAlign=middle;whiteSpace=wrap;rounded=0;fontSize=12;fontFamily=Verdana;fontColor=default;" parent="AuS2F1Ax6viGn4lre6-I-1" vertex="1">
          <mxGeometry x="558.5" y="1545" width="60" height="30" as="geometry" />
        </mxCell>
        <mxCell id="AuS2F1Ax6viGn4lre6-I-111" value="Kids" style="text;html=1;strokeColor=none;fillColor=none;align=left;verticalAlign=middle;whiteSpace=wrap;rounded=0;fontSize=12;fontFamily=Verdana;fontColor=default;" parent="AuS2F1Ax6viGn4lre6-I-1" vertex="1">
          <mxGeometry x="558.5" y="1575" width="60" height="30" as="geometry" />
        </mxCell>
        <mxCell id="AuS2F1Ax6viGn4lre6-I-112" value="Accessories" style="text;html=1;strokeColor=none;fillColor=none;align=left;verticalAlign=middle;whiteSpace=wrap;rounded=0;fontSize=12;fontFamily=Verdana;fontColor=default;" parent="AuS2F1Ax6viGn4lre6-I-1" vertex="1">
          <mxGeometry x="558.5" y="1605" width="60" height="30" as="geometry" />
        </mxCell>
        <mxCell id="AuS2F1Ax6viGn4lre6-I-113" value="Your Account" style="text;html=1;strokeColor=none;fillColor=none;align=left;verticalAlign=middle;whiteSpace=wrap;rounded=0;fontSize=12;fontFamily=Verdana;fontColor=default;" parent="AuS2F1Ax6viGn4lre6-I-1" vertex="1">
          <mxGeometry x="748.5" y="1515" width="131.5" height="30" as="geometry" />
        </mxCell>
        <mxCell id="AuS2F1Ax6viGn4lre6-I-114" value="Become an Affiliate" style="text;html=1;strokeColor=none;fillColor=none;align=left;verticalAlign=middle;whiteSpace=wrap;rounded=0;fontSize=12;fontFamily=Verdana;fontColor=default;" parent="AuS2F1Ax6viGn4lre6-I-1" vertex="1">
          <mxGeometry x="748.5" y="1545" width="131.5" height="30" as="geometry" />
        </mxCell>
        <mxCell id="AuS2F1Ax6viGn4lre6-I-115" value="Shipping Rates" style="text;html=1;strokeColor=none;fillColor=none;align=left;verticalAlign=middle;whiteSpace=wrap;rounded=0;fontSize=12;fontFamily=Verdana;fontColor=default;" parent="AuS2F1Ax6viGn4lre6-I-1" vertex="1">
          <mxGeometry x="748.5" y="1575" width="131.5" height="30" as="geometry" />
        </mxCell>
        <mxCell id="AuS2F1Ax6viGn4lre6-I-116" value="Help" style="text;html=1;strokeColor=none;fillColor=none;align=left;verticalAlign=middle;whiteSpace=wrap;rounded=0;fontSize=12;fontFamily=Verdana;fontColor=default;" parent="AuS2F1Ax6viGn4lre6-I-1" vertex="1">
          <mxGeometry x="750" y="1605" width="131.5" height="30" as="geometry" />
        </mxCell>
        <mxCell id="AuS2F1Ax6viGn4lre6-I-118" value="© 2023 Copyright: DesiWear" style="text;html=1;strokeColor=none;fillColor=none;align=left;verticalAlign=middle;whiteSpace=wrap;rounded=0;fontSize=13;fontFamily=Verdana;fontColor=default;" parent="AuS2F1Ax6viGn4lre6-I-1" vertex="1">
          <mxGeometry x="437.5" y="1650" width="230" height="30" as="geometry" />
        </mxCell>
        <mxCell id="oavOZBHkTOh9ubobtkXy-0" value="Continue shopping" style="text;strokeColor=none;fillColor=none;html=1;fontSize=21;fontStyle=1;verticalAlign=middle;align=center;" parent="AuS2F1Ax6viGn4lre6-I-1" vertex="1">
          <mxGeometry x="50" y="186" width="264" height="40" as="geometry" />
        </mxCell>
        <mxCell id="JUfRHpI5C3ynGvJk1m9J-0" value="" style="line;strokeWidth=2;html=1;rounded=0;shadow=0;labelBackgroundColor=none;comic=1;strokeColor=default;fontFamily=Verdana;fontSize=12;fontColor=default;fillColor=none;" parent="AuS2F1Ax6viGn4lre6-I-1" vertex="1">
          <mxGeometry x="54" y="234" width="984" height="10" as="geometry" />
        </mxCell>
        <mxCell id="JUfRHpI5C3ynGvJk1m9J-1" value="Shopping Cart" style="text;html=1;strokeColor=none;fillColor=none;align=left;verticalAlign=middle;whiteSpace=wrap;rounded=0;fontSize=19;" parent="AuS2F1Ax6viGn4lre6-I-1" vertex="1">
          <mxGeometry x="80" y="264" width="150" height="30" as="geometry" />
        </mxCell>
        <mxCell id="JUfRHpI5C3ynGvJk1m9J-2" value="You have 4 items in your cart" style="text;html=1;strokeColor=none;fillColor=none;align=left;verticalAlign=middle;whiteSpace=wrap;rounded=0;fontSize=19;" parent="AuS2F1Ax6viGn4lre6-I-1" vertex="1">
          <mxGeometry x="80" y="306" width="334" height="30" as="geometry" />
        </mxCell>
        <mxCell id="JUfRHpI5C3ynGvJk1m9J-4" value="Sort by: price" style="text;html=1;strokeColor=none;fillColor=none;align=left;verticalAlign=middle;whiteSpace=wrap;rounded=0;fontSize=19;" parent="AuS2F1Ax6viGn4lre6-I-1" vertex="1">
          <mxGeometry x="894" y="264" width="150" height="30" as="geometry" />
        </mxCell>
        <mxCell id="uR_VNmQQXXtRpBpemFn4-0" value="" style="whiteSpace=wrap;html=1;rounded=0;shadow=0;strokeWidth=1;fillColor=none;align=center;comic=1;container=0;verticalAlign=middle;" parent="AuS2F1Ax6viGn4lre6-I-1" vertex="1">
          <mxGeometry x="65" y="361" width="967" height="168" as="geometry" />
        </mxCell>
        <mxCell id="uR_VNmQQXXtRpBpemFn4-1" value="" style="verticalLabelPosition=bottom;shadow=0;dashed=0;align=center;html=1;verticalAlign=top;strokeWidth=1;shape=mxgraph.mockup.graphics.simpleIcon;strokeColor=#999999;" parent="AuS2F1Ax6viGn4lre6-I-1" vertex="1">
          <mxGeometry x="80" y="388" width="96" height="114" as="geometry" />
        </mxCell>
        <mxCell id="uR_VNmQQXXtRpBpemFn4-2" value="Name of the Product" style="text;strokeColor=none;fillColor=none;html=1;fontSize=24;fontStyle=1;verticalAlign=middle;align=left;" parent="AuS2F1Ax6viGn4lre6-I-1" vertex="1">
          <mxGeometry x="222" y="388" width="288" height="40" as="geometry" />
        </mxCell>
        <mxCell id="uR_VNmQQXXtRpBpemFn4-3" value="&lt;font style=&quot;font-size: 15px;&quot;&gt;1&lt;/font&gt;" style="text;html=1;strokeColor=none;fillColor=none;align=left;verticalAlign=middle;whiteSpace=wrap;rounded=0;fontSize=15;" parent="AuS2F1Ax6viGn4lre6-I-1" vertex="1">
          <mxGeometry x="835" y="421" width="72" height="30" as="geometry" />
        </mxCell>
        <mxCell id="uR_VNmQQXXtRpBpemFn4-7" value="&lt;span style=&quot;font-size: 15px;&quot;&gt;&lt;b style=&quot;font-size: 15px;&quot;&gt;$100&lt;/b&gt;&lt;/span&gt;" style="text;html=1;strokeColor=none;fillColor=none;align=left;verticalAlign=middle;whiteSpace=wrap;rounded=0;fontSize=15;" parent="AuS2F1Ax6viGn4lre6-I-1" vertex="1">
          <mxGeometry x="905" y="421" width="72" height="30" as="geometry" />
        </mxCell>
        <mxCell id="uR_VNmQQXXtRpBpemFn4-8" value="" style="html=1;verticalLabelPosition=bottom;align=center;labelBackgroundColor=#ffffff;verticalAlign=top;strokeWidth=2;strokeColor=#0080F0;shadow=0;dashed=0;shape=mxgraph.ios7.icons.trashcan;fontSize=15;" parent="AuS2F1Ax6viGn4lre6-I-1" vertex="1">
          <mxGeometry x="984" y="428" width="24" height="18" as="geometry" />
        </mxCell>
        <mxCell id="uR_VNmQQXXtRpBpemFn4-9" value="Product Category" style="text;html=1;strokeColor=none;fillColor=none;align=left;verticalAlign=middle;whiteSpace=wrap;rounded=0;fontSize=15;" parent="AuS2F1Ax6viGn4lre6-I-1" vertex="1">
          <mxGeometry x="225" y="426" width="220" height="30" as="geometry" />
        </mxCell>
        <mxCell id="uR_VNmQQXXtRpBpemFn4-16" value="" style="html=1;verticalLabelPosition=bottom;align=center;labelBackgroundColor=#ffffff;verticalAlign=top;strokeWidth=2;strokeColor=#0080F0;shadow=0;dashed=0;shape=mxgraph.ios7.icons.trashcan;fontSize=15;" parent="AuS2F1Ax6viGn4lre6-I-1" vertex="1">
          <mxGeometry x="986" y="628" width="24" height="18" as="geometry" />
        </mxCell>
        <mxCell id="uR_VNmQQXXtRpBpemFn4-17" value="&lt;span style=&quot;font-size: 15px;&quot;&gt;&lt;b style=&quot;font-size: 15px;&quot;&gt;$100&lt;/b&gt;&lt;/span&gt;" style="text;html=1;strokeColor=none;fillColor=none;align=left;verticalAlign=middle;whiteSpace=wrap;rounded=0;fontSize=15;" parent="AuS2F1Ax6viGn4lre6-I-1" vertex="1">
          <mxGeometry x="907" y="621" width="72" height="30" as="geometry" />
        </mxCell>
        <mxCell id="uR_VNmQQXXtRpBpemFn4-18" value="&lt;font style=&quot;font-size: 15px;&quot;&gt;1&lt;/font&gt;" style="text;html=1;strokeColor=none;fillColor=none;align=left;verticalAlign=middle;whiteSpace=wrap;rounded=0;fontSize=15;" parent="AuS2F1Ax6viGn4lre6-I-1" vertex="1">
          <mxGeometry x="837" y="621" width="72" height="30" as="geometry" />
        </mxCell>
        <mxCell id="uR_VNmQQXXtRpBpemFn4-19" value="Name of the Product" style="text;strokeColor=none;fillColor=none;html=1;fontSize=24;fontStyle=1;verticalAlign=middle;align=left;" parent="AuS2F1Ax6viGn4lre6-I-1" vertex="1">
          <mxGeometry x="224" y="588" width="288" height="40" as="geometry" />
        </mxCell>
        <mxCell id="uR_VNmQQXXtRpBpemFn4-20" value="Product Category" style="text;html=1;strokeColor=none;fillColor=none;align=left;verticalAlign=middle;whiteSpace=wrap;rounded=0;fontSize=15;" parent="AuS2F1Ax6viGn4lre6-I-1" vertex="1">
          <mxGeometry x="227" y="626" width="220" height="30" as="geometry" />
        </mxCell>
        <mxCell id="uR_VNmQQXXtRpBpemFn4-21" value="" style="verticalLabelPosition=bottom;shadow=0;dashed=0;align=center;html=1;verticalAlign=top;strokeWidth=1;shape=mxgraph.mockup.graphics.simpleIcon;strokeColor=#999999;" parent="AuS2F1Ax6viGn4lre6-I-1" vertex="1">
          <mxGeometry x="82" y="588" width="96" height="114" as="geometry" />
        </mxCell>
        <mxCell id="uR_VNmQQXXtRpBpemFn4-22" value="" style="whiteSpace=wrap;html=1;rounded=0;shadow=0;strokeWidth=1;fillColor=none;align=center;comic=1;container=0;verticalAlign=middle;" parent="AuS2F1Ax6viGn4lre6-I-1" vertex="1">
          <mxGeometry x="67" y="561" width="967" height="168" as="geometry" />
        </mxCell>
        <mxCell id="uR_VNmQQXXtRpBpemFn4-23" value="" style="html=1;verticalLabelPosition=bottom;align=center;labelBackgroundColor=#ffffff;verticalAlign=top;strokeWidth=2;strokeColor=#0080F0;shadow=0;dashed=0;shape=mxgraph.ios7.icons.trashcan;fontSize=15;" parent="AuS2F1Ax6viGn4lre6-I-1" vertex="1">
          <mxGeometry x="986" y="836" width="24" height="18" as="geometry" />
        </mxCell>
        <mxCell id="uR_VNmQQXXtRpBpemFn4-24" value="&lt;span style=&quot;font-size: 15px;&quot;&gt;&lt;b style=&quot;font-size: 15px;&quot;&gt;$100&lt;/b&gt;&lt;/span&gt;" style="text;html=1;strokeColor=none;fillColor=none;align=left;verticalAlign=middle;whiteSpace=wrap;rounded=0;fontSize=15;" parent="AuS2F1Ax6viGn4lre6-I-1" vertex="1">
          <mxGeometry x="907" y="829" width="72" height="30" as="geometry" />
        </mxCell>
        <mxCell id="uR_VNmQQXXtRpBpemFn4-25" value="&lt;font style=&quot;font-size: 15px;&quot;&gt;1&lt;/font&gt;" style="text;html=1;strokeColor=none;fillColor=none;align=left;verticalAlign=middle;whiteSpace=wrap;rounded=0;fontSize=15;" parent="AuS2F1Ax6viGn4lre6-I-1" vertex="1">
          <mxGeometry x="837" y="829" width="72" height="30" as="geometry" />
        </mxCell>
        <mxCell id="uR_VNmQQXXtRpBpemFn4-26" value="Name of the Product" style="text;strokeColor=none;fillColor=none;html=1;fontSize=24;fontStyle=1;verticalAlign=middle;align=left;" parent="AuS2F1Ax6viGn4lre6-I-1" vertex="1">
          <mxGeometry x="224" y="796" width="288" height="40" as="geometry" />
        </mxCell>
        <mxCell id="uR_VNmQQXXtRpBpemFn4-27" value="Product Category" style="text;html=1;strokeColor=none;fillColor=none;align=left;verticalAlign=middle;whiteSpace=wrap;rounded=0;fontSize=15;" parent="AuS2F1Ax6viGn4lre6-I-1" vertex="1">
          <mxGeometry x="227" y="834" width="220" height="30" as="geometry" />
        </mxCell>
        <mxCell id="uR_VNmQQXXtRpBpemFn4-28" value="" style="verticalLabelPosition=bottom;shadow=0;dashed=0;align=center;html=1;verticalAlign=top;strokeWidth=1;shape=mxgraph.mockup.graphics.simpleIcon;strokeColor=#999999;" parent="AuS2F1Ax6viGn4lre6-I-1" vertex="1">
          <mxGeometry x="82" y="796" width="96" height="114" as="geometry" />
        </mxCell>
        <mxCell id="uR_VNmQQXXtRpBpemFn4-29" value="" style="whiteSpace=wrap;html=1;rounded=0;shadow=0;strokeWidth=1;fillColor=none;align=center;comic=1;container=0;verticalAlign=middle;" parent="AuS2F1Ax6viGn4lre6-I-1" vertex="1">
          <mxGeometry x="67" y="769" width="967" height="168" as="geometry" />
        </mxCell>
        <mxCell id="uR_VNmQQXXtRpBpemFn4-37" value="" style="html=1;verticalLabelPosition=bottom;align=center;labelBackgroundColor=#ffffff;verticalAlign=top;strokeWidth=2;strokeColor=#0080F0;shadow=0;dashed=0;shape=mxgraph.ios7.icons.trashcan;fontSize=15;" parent="AuS2F1Ax6viGn4lre6-I-1" vertex="1">
          <mxGeometry x="988" y="1049" width="24" height="18" as="geometry" />
        </mxCell>
        <mxCell id="uR_VNmQQXXtRpBpemFn4-38" value="&lt;span style=&quot;font-size: 15px;&quot;&gt;&lt;b style=&quot;font-size: 15px;&quot;&gt;$100&lt;/b&gt;&lt;/span&gt;" style="text;html=1;strokeColor=none;fillColor=none;align=left;verticalAlign=middle;whiteSpace=wrap;rounded=0;fontSize=15;" parent="AuS2F1Ax6viGn4lre6-I-1" vertex="1">
          <mxGeometry x="909" y="1042" width="72" height="30" as="geometry" />
        </mxCell>
        <mxCell id="uR_VNmQQXXtRpBpemFn4-39" value="&lt;font style=&quot;font-size: 15px;&quot;&gt;1&lt;/font&gt;" style="text;html=1;strokeColor=none;fillColor=none;align=left;verticalAlign=middle;whiteSpace=wrap;rounded=0;fontSize=15;" parent="AuS2F1Ax6viGn4lre6-I-1" vertex="1">
          <mxGeometry x="839" y="1042" width="72" height="30" as="geometry" />
        </mxCell>
        <mxCell id="uR_VNmQQXXtRpBpemFn4-40" value="Name of the Product" style="text;strokeColor=none;fillColor=none;html=1;fontSize=24;fontStyle=1;verticalAlign=middle;align=left;" parent="AuS2F1Ax6viGn4lre6-I-1" vertex="1">
          <mxGeometry x="226" y="1009" width="288" height="40" as="geometry" />
        </mxCell>
        <mxCell id="uR_VNmQQXXtRpBpemFn4-41" value="Product Category" style="text;html=1;strokeColor=none;fillColor=none;align=left;verticalAlign=middle;whiteSpace=wrap;rounded=0;fontSize=15;" parent="AuS2F1Ax6viGn4lre6-I-1" vertex="1">
          <mxGeometry x="229" y="1047" width="220" height="30" as="geometry" />
        </mxCell>
        <mxCell id="uR_VNmQQXXtRpBpemFn4-42" value="" style="verticalLabelPosition=bottom;shadow=0;dashed=0;align=center;html=1;verticalAlign=top;strokeWidth=1;shape=mxgraph.mockup.graphics.simpleIcon;strokeColor=#999999;" parent="AuS2F1Ax6viGn4lre6-I-1" vertex="1">
          <mxGeometry x="84" y="1009" width="96" height="114" as="geometry" />
        </mxCell>
        <mxCell id="uR_VNmQQXXtRpBpemFn4-43" value="" style="whiteSpace=wrap;html=1;rounded=0;shadow=0;strokeWidth=1;fillColor=none;align=center;comic=1;container=0;verticalAlign=middle;" parent="AuS2F1Ax6viGn4lre6-I-1" vertex="1">
          <mxGeometry x="69" y="982" width="967" height="168" as="geometry" />
        </mxCell>
        <mxCell id="uR_VNmQQXXtRpBpemFn4-44" value="&lt;font color=&quot;#000033&quot;&gt;Proceed to Checkout&lt;/font&gt;" style="html=1;shadow=0;dashed=0;shape=mxgraph.bootstrap.rrect;rSize=5;strokeColor=none;strokeWidth=1;fillColor=#FFBC26;fontColor=#FFFFFF;whiteSpace=wrap;align=center;verticalAlign=middle;spacingLeft=0;fontStyle=0;fontSize=16;spacing=5;" parent="AuS2F1Ax6viGn4lre6-I-1" vertex="1">
          <mxGeometry x="72" y="1206" width="960" height="40" as="geometry" />
        </mxCell>
        <mxCell id="6mK_ctHOKCZtXi_9mEa0-0" value="" style="whiteSpace=wrap;html=1;rounded=0;shadow=0;strokeWidth=1;fillColor=none;align=center;comic=1;container=0;verticalAlign=middle;" parent="AuS2F1Ax6viGn4lre6-I-1" vertex="1">
          <mxGeometry x="20.5" y="1374" width="1060" height="72" as="geometry" />
        </mxCell>
        <mxCell id="6mK_ctHOKCZtXi_9mEa0-1" value="Connect with us!" style="text;strokeColor=none;fillColor=none;html=1;fontSize=24;fontStyle=1;verticalAlign=middle;align=left;" parent="AuS2F1Ax6viGn4lre6-I-1" vertex="1">
          <mxGeometry x="30.5" y="1390" width="246" height="40" as="geometry" />
        </mxCell>
        <mxCell id="6mK_ctHOKCZtXi_9mEa0-2" value="" style="shape=image;html=1;verticalAlign=top;verticalLabelPosition=bottom;labelBackgroundColor=#ffffff;imageAspect=0;aspect=fixed;image=https://cdn2.iconfinder.com/data/icons/social-media-2285/512/1_Facebook_colored_svg_copy-128.png" parent="AuS2F1Ax6viGn4lre6-I-1" vertex="1">
          <mxGeometry x="1019" y="1395" width="30" height="30" as="geometry" />
        </mxCell>
        <mxCell id="6mK_ctHOKCZtXi_9mEa0-3" value="" style="shape=image;html=1;verticalAlign=top;verticalLabelPosition=bottom;labelBackgroundColor=#ffffff;imageAspect=0;aspect=fixed;image=https://cdn2.iconfinder.com/data/icons/social-media-2285/512/1_Facebook_colored_svg_copy-128.png" parent="AuS2F1Ax6viGn4lre6-I-1" vertex="1">
          <mxGeometry x="970.5" y="1395" width="30" height="30" as="geometry" />
        </mxCell>
        <mxCell id="6mK_ctHOKCZtXi_9mEa0-4" value="" style="shape=image;html=1;verticalAlign=top;verticalLabelPosition=bottom;labelBackgroundColor=#ffffff;imageAspect=0;aspect=fixed;image=https://cdn2.iconfinder.com/data/icons/social-media-2285/512/1_Facebook_colored_svg_copy-128.png" parent="AuS2F1Ax6viGn4lre6-I-1" vertex="1">
          <mxGeometry x="922" y="1395" width="30" height="30" as="geometry" />
        </mxCell>
        <mxCell id="6mK_ctHOKCZtXi_9mEa0-5" value="" style="shape=image;html=1;verticalAlign=top;verticalLabelPosition=bottom;labelBackgroundColor=#ffffff;imageAspect=0;aspect=fixed;image=https://cdn2.iconfinder.com/data/icons/social-media-2285/512/1_Facebook_colored_svg_copy-128.png" parent="AuS2F1Ax6viGn4lre6-I-1" vertex="1">
          <mxGeometry x="864.5" y="1395" width="30" height="30" as="geometry" />
        </mxCell>
        <mxCell id="cQGC7BOktiiDv1lraOfm-0" value="Currency" style="text;html=1;points=[];align=right;verticalAlign=top;spacingTop=-4;fontSize=14;fontFamily=Verdana" parent="AuS2F1Ax6viGn4lre6-I-1" vertex="1">
          <mxGeometry x="784" y="91" width="80" height="20" as="geometry" />
        </mxCell>
        <mxCell id="cQGC7BOktiiDv1lraOfm-1" value="Cart" style="text;html=1;points=[];align=right;verticalAlign=top;spacingTop=-4;fontSize=14;fontFamily=Verdana" parent="AuS2F1Ax6viGn4lre6-I-1" vertex="1">
          <mxGeometry x="832" y="91" width="80" height="20" as="geometry" />
        </mxCell>
        <mxCell id="cQGC7BOktiiDv1lraOfm-2" value="Wishlist" style="text;html=1;points=[];align=right;verticalAlign=top;spacingTop=-4;fontSize=14;fontFamily=Verdana" parent="AuS2F1Ax6viGn4lre6-I-1" vertex="1">
          <mxGeometry x="903" y="91" width="80" height="20" as="geometry" />
        </mxCell>
        <mxCell id="cQGC7BOktiiDv1lraOfm-3" value="Profile" style="text;html=1;points=[];align=right;verticalAlign=top;spacingTop=-4;fontSize=14;fontFamily=Verdana" parent="AuS2F1Ax6viGn4lre6-I-1" vertex="1">
          <mxGeometry x="974" y="91" width="80" height="20" as="geometry" />
        </mxCell>
      </root>
    </mxGraphModel>
  </diagram>
  <diagram name="Checkout" id="vU7IWP6Ywhyjm06kVqUW">
    <mxGraphModel dx="1884" dy="998" grid="1" gridSize="6" guides="1" tooltips="1" connect="1" arrows="0" fold="1" page="1" pageScale="1" pageWidth="1100" pageHeight="850" background="#ffffff" math="0" shadow="0">
      <root>
        <mxCell id="ntQgoBIxeyPIHB9B7zEI-0" />
        <mxCell id="ntQgoBIxeyPIHB9B7zEI-1" parent="ntQgoBIxeyPIHB9B7zEI-0" />
        <mxCell id="ntQgoBIxeyPIHB9B7zEI-2" value="" style="whiteSpace=wrap;html=1;rounded=0;shadow=0;labelBackgroundColor=none;strokeColor=#000000;strokeWidth=1;fillColor=default;fontFamily=Verdana;fontSize=12;fontColor=#000000;align=center;comic=1;" parent="ntQgoBIxeyPIHB9B7zEI-1" vertex="1">
          <mxGeometry x="20" y="20" width="1060" height="2560" as="geometry" />
        </mxCell>
        <mxCell id="ntQgoBIxeyPIHB9B7zEI-3" value="" style="line;strokeWidth=1;html=1;rounded=0;shadow=0;labelBackgroundColor=none;fillColor=none;fontFamily=Verdana;fontSize=14;fontColor=#000000;align=center;comic=1;" parent="ntQgoBIxeyPIHB9B7zEI-1" vertex="1">
          <mxGeometry x="20" y="140" width="1060" height="10" as="geometry" />
        </mxCell>
        <mxCell id="ntQgoBIxeyPIHB9B7zEI-4" value="" style="shape=singleArrow;direction=west;whiteSpace=wrap;html=1;" parent="ntQgoBIxeyPIHB9B7zEI-1" vertex="1">
          <mxGeometry x="40" y="25" width="50" height="40" as="geometry" />
        </mxCell>
        <mxCell id="ntQgoBIxeyPIHB9B7zEI-5" value="" style="group" parent="ntQgoBIxeyPIHB9B7zEI-1" vertex="1" connectable="0">
          <mxGeometry x="20" y="19.999999999999996" width="1060" height="111" as="geometry" />
        </mxCell>
        <mxCell id="ntQgoBIxeyPIHB9B7zEI-6" value="LOGO" style="whiteSpace=wrap;html=1;rounded=0;shadow=0;labelBackgroundColor=none;strokeWidth=1;fontFamily=Verdana;fontSize=28;align=center;comic=1;" parent="ntQgoBIxeyPIHB9B7zEI-5" vertex="1">
          <mxGeometry x="20" y="61" width="130" height="50" as="geometry" />
        </mxCell>
        <mxCell id="ntQgoBIxeyPIHB9B7zEI-7" value="Search" style="strokeWidth=1;shadow=0;dashed=0;align=center;html=1;shape=mxgraph.mockup.forms.searchBox;strokeColor=#999999;mainText=;strokeColor2=#008cff;fontColor=#666666;fontSize=17;align=left;spacingLeft=3;rounded=0;labelBackgroundColor=none;comic=1;" parent="ntQgoBIxeyPIHB9B7zEI-5" vertex="1">
          <mxGeometry x="370" y="71" width="220" height="30" as="geometry" />
        </mxCell>
        <mxCell id="ntQgoBIxeyPIHB9B7zEI-8" value="Shop Now" style="text;html=1;points=[];align=left;verticalAlign=top;spacingTop=-4;fontSize=14;fontFamily=Verdana" parent="ntQgoBIxeyPIHB9B7zEI-5" vertex="1">
          <mxGeometry x="180" y="76" width="80" height="20" as="geometry" />
        </mxCell>
        <mxCell id="ntQgoBIxeyPIHB9B7zEI-9" value="" style="group" parent="ntQgoBIxeyPIHB9B7zEI-5" vertex="1" connectable="0">
          <mxGeometry width="1060" height="50" as="geometry" />
        </mxCell>
        <mxCell id="ntQgoBIxeyPIHB9B7zEI-10" value="" style="whiteSpace=wrap;html=1;rounded=0;shadow=0;labelBackgroundColor=none;strokeWidth=1;fillColor=none;fontFamily=Verdana;fontSize=12;align=center;comic=1;" parent="ntQgoBIxeyPIHB9B7zEI-9" vertex="1">
          <mxGeometry y="3.552713678800501e-15" width="1060" height="50" as="geometry" />
        </mxCell>
        <mxCell id="ntQgoBIxeyPIHB9B7zEI-11" value="Free Shipping on all items" style="text;html=1;points=[];align=center;verticalAlign=top;spacingTop=-4;fontSize=14;fontFamily=Verdana" parent="ntQgoBIxeyPIHB9B7zEI-9" vertex="1">
          <mxGeometry x="385" y="15.000000000000004" width="290" height="20" as="geometry" />
        </mxCell>
        <mxCell id="ntQgoBIxeyPIHB9B7zEI-12" value="" style="shape=singleArrow;direction=west;whiteSpace=wrap;html=1;rotation=-180;" parent="ntQgoBIxeyPIHB9B7zEI-9" vertex="1">
          <mxGeometry x="993" y="3.552713678800501e-15" width="50" height="40" as="geometry" />
        </mxCell>
        <mxCell id="ntQgoBIxeyPIHB9B7zEI-16" value="" style="whiteSpace=wrap;html=1;rounded=0;shadow=0;strokeWidth=1;fillColor=none;align=center;comic=1;container=0;verticalAlign=middle;" parent="ntQgoBIxeyPIHB9B7zEI-1" vertex="1">
          <mxGeometry x="20" y="2298" width="1060" height="198" as="geometry" />
        </mxCell>
        <mxCell id="ntQgoBIxeyPIHB9B7zEI-17" value="DESIWEAR" style="text;strokeColor=none;fillColor=none;html=1;fontSize=21;fontStyle=1;verticalAlign=middle;align=center;fontFamily=Verdana;fontColor=default;" parent="ntQgoBIxeyPIHB9B7zEI-1" vertex="1">
          <mxGeometry x="120" y="2313" width="221.5" height="40" as="geometry" />
        </mxCell>
        <mxCell id="ntQgoBIxeyPIHB9B7zEI-18" value="CATEGORY" style="text;strokeColor=none;fillColor=none;html=1;fontSize=21;fontStyle=1;verticalAlign=middle;align=center;fontFamily=Verdana;fontColor=default;" parent="ntQgoBIxeyPIHB9B7zEI-1" vertex="1">
          <mxGeometry x="508.5" y="2313" width="221.5" height="40" as="geometry" />
        </mxCell>
        <mxCell id="ntQgoBIxeyPIHB9B7zEI-19" value="USEFUL LINKS" style="text;strokeColor=none;fillColor=none;html=1;fontSize=21;fontStyle=1;verticalAlign=middle;align=center;fontFamily=Verdana;fontColor=default;" parent="ntQgoBIxeyPIHB9B7zEI-1" vertex="1">
          <mxGeometry x="729.25" y="2313" width="221.5" height="40" as="geometry" />
        </mxCell>
        <mxCell id="ntQgoBIxeyPIHB9B7zEI-20" value="" style="line;strokeWidth=2;html=1;rounded=0;shadow=0;labelBackgroundColor=none;comic=1;strokeColor=default;fontFamily=Verdana;fontSize=12;fontColor=default;fillColor=none;" parent="ntQgoBIxeyPIHB9B7zEI-1" vertex="1">
          <mxGeometry x="170" y="2353" width="60" height="10" as="geometry" />
        </mxCell>
        <mxCell id="ntQgoBIxeyPIHB9B7zEI-21" value="" style="line;strokeWidth=2;html=1;rounded=0;shadow=0;labelBackgroundColor=none;comic=1;strokeColor=default;fontFamily=Verdana;fontSize=12;fontColor=default;fillColor=none;" parent="ntQgoBIxeyPIHB9B7zEI-1" vertex="1">
          <mxGeometry x="755" y="2353" width="60" height="10" as="geometry" />
        </mxCell>
        <mxCell id="ntQgoBIxeyPIHB9B7zEI-22" value="" style="line;strokeWidth=2;html=1;rounded=0;shadow=0;labelBackgroundColor=none;comic=1;strokeColor=default;fontFamily=Verdana;fontSize=12;fontColor=default;fillColor=none;" parent="ntQgoBIxeyPIHB9B7zEI-1" vertex="1">
          <mxGeometry x="558.5" y="2353" width="60" height="10" as="geometry" />
        </mxCell>
        <mxCell id="ntQgoBIxeyPIHB9B7zEI-23" value="DesiWear: Your Fashion Destination for Desi Dazzle – Embrace the Culture, Own the Style, and Slay Every Day" style="text;html=1;strokeColor=none;fillColor=none;align=left;verticalAlign=middle;whiteSpace=wrap;rounded=0;fontSize=12;fontFamily=Verdana;fontColor=default;" parent="ntQgoBIxeyPIHB9B7zEI-1" vertex="1">
          <mxGeometry x="160" y="2372" width="330" height="70" as="geometry" />
        </mxCell>
        <mxCell id="ntQgoBIxeyPIHB9B7zEI-24" value="Women&#39;s" style="text;html=1;strokeColor=none;fillColor=none;align=left;verticalAlign=middle;whiteSpace=wrap;rounded=0;fontSize=12;fontFamily=Verdana;fontColor=default;" parent="ntQgoBIxeyPIHB9B7zEI-1" vertex="1">
          <mxGeometry x="558.5" y="2372" width="60" height="30" as="geometry" />
        </mxCell>
        <mxCell id="ntQgoBIxeyPIHB9B7zEI-25" value="Men&#39;s" style="text;html=1;strokeColor=none;fillColor=none;align=left;verticalAlign=middle;whiteSpace=wrap;rounded=0;fontSize=12;fontFamily=Verdana;fontColor=default;" parent="ntQgoBIxeyPIHB9B7zEI-1" vertex="1">
          <mxGeometry x="558.5" y="2402" width="60" height="30" as="geometry" />
        </mxCell>
        <mxCell id="ntQgoBIxeyPIHB9B7zEI-26" value="Kids" style="text;html=1;strokeColor=none;fillColor=none;align=left;verticalAlign=middle;whiteSpace=wrap;rounded=0;fontSize=12;fontFamily=Verdana;fontColor=default;" parent="ntQgoBIxeyPIHB9B7zEI-1" vertex="1">
          <mxGeometry x="558.5" y="2432" width="60" height="30" as="geometry" />
        </mxCell>
        <mxCell id="ntQgoBIxeyPIHB9B7zEI-27" value="Accessories" style="text;html=1;strokeColor=none;fillColor=none;align=left;verticalAlign=middle;whiteSpace=wrap;rounded=0;fontSize=12;fontFamily=Verdana;fontColor=default;" parent="ntQgoBIxeyPIHB9B7zEI-1" vertex="1">
          <mxGeometry x="558.5" y="2462" width="60" height="30" as="geometry" />
        </mxCell>
        <mxCell id="ntQgoBIxeyPIHB9B7zEI-28" value="Your Account" style="text;html=1;strokeColor=none;fillColor=none;align=left;verticalAlign=middle;whiteSpace=wrap;rounded=0;fontSize=12;fontFamily=Verdana;fontColor=default;" parent="ntQgoBIxeyPIHB9B7zEI-1" vertex="1">
          <mxGeometry x="748.5" y="2372" width="131.5" height="30" as="geometry" />
        </mxCell>
        <mxCell id="ntQgoBIxeyPIHB9B7zEI-29" value="Become an Affiliate" style="text;html=1;strokeColor=none;fillColor=none;align=left;verticalAlign=middle;whiteSpace=wrap;rounded=0;fontSize=12;fontFamily=Verdana;fontColor=default;" parent="ntQgoBIxeyPIHB9B7zEI-1" vertex="1">
          <mxGeometry x="748.5" y="2402" width="131.5" height="30" as="geometry" />
        </mxCell>
        <mxCell id="ntQgoBIxeyPIHB9B7zEI-30" value="Shipping Rates" style="text;html=1;strokeColor=none;fillColor=none;align=left;verticalAlign=middle;whiteSpace=wrap;rounded=0;fontSize=12;fontFamily=Verdana;fontColor=default;" parent="ntQgoBIxeyPIHB9B7zEI-1" vertex="1">
          <mxGeometry x="748.5" y="2432" width="131.5" height="30" as="geometry" />
        </mxCell>
        <mxCell id="ntQgoBIxeyPIHB9B7zEI-31" value="Help" style="text;html=1;strokeColor=none;fillColor=none;align=left;verticalAlign=middle;whiteSpace=wrap;rounded=0;fontSize=12;fontFamily=Verdana;fontColor=default;" parent="ntQgoBIxeyPIHB9B7zEI-1" vertex="1">
          <mxGeometry x="750" y="2462" width="131.5" height="30" as="geometry" />
        </mxCell>
        <mxCell id="ntQgoBIxeyPIHB9B7zEI-32" value="© 2023 Copyright: DesiWear" style="text;html=1;strokeColor=none;fillColor=none;align=left;verticalAlign=middle;whiteSpace=wrap;rounded=0;fontSize=13;fontFamily=Verdana;fontColor=default;" parent="ntQgoBIxeyPIHB9B7zEI-1" vertex="1">
          <mxGeometry x="438" y="2514" width="230" height="30" as="geometry" />
        </mxCell>
        <mxCell id="ntQgoBIxeyPIHB9B7zEI-33" value="Continue shopping" style="text;strokeColor=none;fillColor=none;html=1;fontSize=21;fontStyle=1;verticalAlign=middle;align=left;" parent="ntQgoBIxeyPIHB9B7zEI-1" vertex="1">
          <mxGeometry x="50" y="186" width="264" height="40" as="geometry" />
        </mxCell>
        <mxCell id="ntQgoBIxeyPIHB9B7zEI-34" value="" style="line;strokeWidth=2;html=1;rounded=0;shadow=0;labelBackgroundColor=none;comic=1;strokeColor=default;fontFamily=Verdana;fontSize=12;fontColor=default;fillColor=none;" parent="ntQgoBIxeyPIHB9B7zEI-1" vertex="1">
          <mxGeometry x="54" y="234" width="498" height="10" as="geometry" />
        </mxCell>
        <mxCell id="ntQgoBIxeyPIHB9B7zEI-35" value="Shopping Cart" style="text;html=1;strokeColor=none;fillColor=none;align=left;verticalAlign=middle;whiteSpace=wrap;rounded=0;fontSize=19;" parent="ntQgoBIxeyPIHB9B7zEI-1" vertex="1">
          <mxGeometry x="80" y="264" width="150" height="30" as="geometry" />
        </mxCell>
        <mxCell id="ntQgoBIxeyPIHB9B7zEI-36" value="You have 4 items in your cart" style="text;html=1;strokeColor=none;fillColor=none;align=left;verticalAlign=middle;whiteSpace=wrap;rounded=0;fontSize=19;" parent="ntQgoBIxeyPIHB9B7zEI-1" vertex="1">
          <mxGeometry x="80" y="306" width="334" height="30" as="geometry" />
        </mxCell>
        <mxCell id="ntQgoBIxeyPIHB9B7zEI-37" value="Sort by: price" style="text;html=1;strokeColor=none;fillColor=none;align=right;verticalAlign=middle;whiteSpace=wrap;rounded=0;fontSize=19;" parent="ntQgoBIxeyPIHB9B7zEI-1" vertex="1">
          <mxGeometry x="366" y="264" width="150" height="30" as="geometry" />
        </mxCell>
        <mxCell id="ntQgoBIxeyPIHB9B7zEI-39" value="" style="whiteSpace=wrap;html=1;rounded=0;shadow=0;strokeWidth=1;fillColor=none;align=center;comic=1;container=0;verticalAlign=middle;" parent="ntQgoBIxeyPIHB9B7zEI-1" vertex="1">
          <mxGeometry x="65" y="361" width="499" height="168" as="geometry" />
        </mxCell>
        <mxCell id="ntQgoBIxeyPIHB9B7zEI-40" value="" style="verticalLabelPosition=bottom;shadow=0;dashed=0;align=center;html=1;verticalAlign=top;strokeWidth=1;shape=mxgraph.mockup.graphics.simpleIcon;strokeColor=#999999;" parent="ntQgoBIxeyPIHB9B7zEI-1" vertex="1">
          <mxGeometry x="80" y="388" width="96" height="114" as="geometry" />
        </mxCell>
        <mxCell id="ntQgoBIxeyPIHB9B7zEI-41" value="Name of the Product" style="text;strokeColor=none;fillColor=none;html=1;fontSize=24;fontStyle=1;verticalAlign=middle;align=left;" parent="ntQgoBIxeyPIHB9B7zEI-1" vertex="1">
          <mxGeometry x="222" y="388" width="288" height="40" as="geometry" />
        </mxCell>
        <mxCell id="ntQgoBIxeyPIHB9B7zEI-42" value="&lt;font style=&quot;font-size: 15px;&quot;&gt;1&lt;/font&gt;" style="text;html=1;strokeColor=none;fillColor=none;align=left;verticalAlign=middle;whiteSpace=wrap;rounded=0;fontSize=15;" parent="ntQgoBIxeyPIHB9B7zEI-1" vertex="1">
          <mxGeometry x="364" y="424" width="72" height="30" as="geometry" />
        </mxCell>
        <mxCell id="ntQgoBIxeyPIHB9B7zEI-43" value="&lt;span style=&quot;font-size: 15px;&quot;&gt;&lt;b style=&quot;font-size: 15px;&quot;&gt;$100&lt;/b&gt;&lt;/span&gt;" style="text;html=1;strokeColor=none;fillColor=none;align=left;verticalAlign=middle;whiteSpace=wrap;rounded=0;fontSize=15;" parent="ntQgoBIxeyPIHB9B7zEI-1" vertex="1">
          <mxGeometry x="434" y="424" width="72" height="30" as="geometry" />
        </mxCell>
        <mxCell id="ntQgoBIxeyPIHB9B7zEI-44" value="" style="html=1;verticalLabelPosition=bottom;align=center;labelBackgroundColor=#ffffff;verticalAlign=top;strokeWidth=2;strokeColor=#0080F0;shadow=0;dashed=0;shape=mxgraph.ios7.icons.trashcan;fontSize=15;" parent="ntQgoBIxeyPIHB9B7zEI-1" vertex="1">
          <mxGeometry x="513" y="431" width="24" height="18" as="geometry" />
        </mxCell>
        <mxCell id="ntQgoBIxeyPIHB9B7zEI-45" value="Product Category" style="text;html=1;strokeColor=none;fillColor=none;align=left;verticalAlign=middle;whiteSpace=wrap;rounded=0;fontSize=15;" parent="ntQgoBIxeyPIHB9B7zEI-1" vertex="1">
          <mxGeometry x="225" y="426" width="129" height="30" as="geometry" />
        </mxCell>
        <mxCell id="ypg0qqeO4aZH2xYLX6tl-2" value="Billing Address" style="text;strokeColor=none;fillColor=none;html=1;fontSize=21;fontStyle=1;verticalAlign=middle;align=left;" parent="ntQgoBIxeyPIHB9B7zEI-1" vertex="1">
          <mxGeometry x="588" y="185" width="264" height="40" as="geometry" />
        </mxCell>
        <mxCell id="ypg0qqeO4aZH2xYLX6tl-3" value="" style="line;strokeWidth=2;html=1;rounded=0;shadow=0;labelBackgroundColor=none;comic=1;strokeColor=default;fontFamily=Verdana;fontSize=12;fontColor=default;fillColor=none;" parent="ntQgoBIxeyPIHB9B7zEI-1" vertex="1">
          <mxGeometry x="594" y="233" width="444" height="10" as="geometry" />
        </mxCell>
        <mxCell id="ypg0qqeO4aZH2xYLX6tl-15" value="" style="whiteSpace=wrap;html=1;rounded=0;shadow=0;strokeWidth=1;fillColor=none;align=center;comic=1;container=0;verticalAlign=middle;" parent="ntQgoBIxeyPIHB9B7zEI-1" vertex="1">
          <mxGeometry x="66" y="560" width="499" height="168" as="geometry" />
        </mxCell>
        <mxCell id="ypg0qqeO4aZH2xYLX6tl-16" value="" style="verticalLabelPosition=bottom;shadow=0;dashed=0;align=center;html=1;verticalAlign=top;strokeWidth=1;shape=mxgraph.mockup.graphics.simpleIcon;strokeColor=#999999;" parent="ntQgoBIxeyPIHB9B7zEI-1" vertex="1">
          <mxGeometry x="81" y="587" width="96" height="114" as="geometry" />
        </mxCell>
        <mxCell id="ypg0qqeO4aZH2xYLX6tl-17" value="Name of the Product" style="text;strokeColor=none;fillColor=none;html=1;fontSize=24;fontStyle=1;verticalAlign=middle;align=left;" parent="ntQgoBIxeyPIHB9B7zEI-1" vertex="1">
          <mxGeometry x="223" y="587" width="288" height="40" as="geometry" />
        </mxCell>
        <mxCell id="ypg0qqeO4aZH2xYLX6tl-18" value="&lt;font style=&quot;font-size: 15px;&quot;&gt;1&lt;/font&gt;" style="text;html=1;strokeColor=none;fillColor=none;align=left;verticalAlign=middle;whiteSpace=wrap;rounded=0;fontSize=15;" parent="ntQgoBIxeyPIHB9B7zEI-1" vertex="1">
          <mxGeometry x="365" y="623" width="72" height="30" as="geometry" />
        </mxCell>
        <mxCell id="ypg0qqeO4aZH2xYLX6tl-19" value="&lt;span style=&quot;font-size: 15px;&quot;&gt;&lt;b style=&quot;font-size: 15px;&quot;&gt;$100&lt;/b&gt;&lt;/span&gt;" style="text;html=1;strokeColor=none;fillColor=none;align=left;verticalAlign=middle;whiteSpace=wrap;rounded=0;fontSize=15;" parent="ntQgoBIxeyPIHB9B7zEI-1" vertex="1">
          <mxGeometry x="435" y="623" width="72" height="30" as="geometry" />
        </mxCell>
        <mxCell id="ypg0qqeO4aZH2xYLX6tl-20" value="" style="html=1;verticalLabelPosition=bottom;align=center;labelBackgroundColor=#ffffff;verticalAlign=top;strokeWidth=2;strokeColor=#0080F0;shadow=0;dashed=0;shape=mxgraph.ios7.icons.trashcan;fontSize=15;" parent="ntQgoBIxeyPIHB9B7zEI-1" vertex="1">
          <mxGeometry x="514" y="630" width="24" height="18" as="geometry" />
        </mxCell>
        <mxCell id="ypg0qqeO4aZH2xYLX6tl-21" value="Product Category" style="text;html=1;strokeColor=none;fillColor=none;align=left;verticalAlign=middle;whiteSpace=wrap;rounded=0;fontSize=15;" parent="ntQgoBIxeyPIHB9B7zEI-1" vertex="1">
          <mxGeometry x="226" y="625" width="129" height="30" as="geometry" />
        </mxCell>
        <mxCell id="ypg0qqeO4aZH2xYLX6tl-31" value="" style="whiteSpace=wrap;html=1;rounded=0;shadow=0;strokeWidth=1;fillColor=none;align=center;comic=1;container=0;verticalAlign=middle;" parent="ntQgoBIxeyPIHB9B7zEI-1" vertex="1">
          <mxGeometry x="67" y="769" width="499" height="168" as="geometry" />
        </mxCell>
        <mxCell id="ypg0qqeO4aZH2xYLX6tl-32" value="" style="verticalLabelPosition=bottom;shadow=0;dashed=0;align=center;html=1;verticalAlign=top;strokeWidth=1;shape=mxgraph.mockup.graphics.simpleIcon;strokeColor=#999999;" parent="ntQgoBIxeyPIHB9B7zEI-1" vertex="1">
          <mxGeometry x="82" y="796" width="96" height="114" as="geometry" />
        </mxCell>
        <mxCell id="ypg0qqeO4aZH2xYLX6tl-33" value="Name of the Product" style="text;strokeColor=none;fillColor=none;html=1;fontSize=24;fontStyle=1;verticalAlign=middle;align=left;" parent="ntQgoBIxeyPIHB9B7zEI-1" vertex="1">
          <mxGeometry x="224" y="796" width="288" height="40" as="geometry" />
        </mxCell>
        <mxCell id="ypg0qqeO4aZH2xYLX6tl-34" value="&lt;font style=&quot;font-size: 15px;&quot;&gt;1&lt;/font&gt;" style="text;html=1;strokeColor=none;fillColor=none;align=left;verticalAlign=middle;whiteSpace=wrap;rounded=0;fontSize=15;" parent="ntQgoBIxeyPIHB9B7zEI-1" vertex="1">
          <mxGeometry x="366" y="832" width="72" height="30" as="geometry" />
        </mxCell>
        <mxCell id="ypg0qqeO4aZH2xYLX6tl-35" value="&lt;span style=&quot;font-size: 15px;&quot;&gt;&lt;b style=&quot;font-size: 15px;&quot;&gt;$100&lt;/b&gt;&lt;/span&gt;" style="text;html=1;strokeColor=none;fillColor=none;align=left;verticalAlign=middle;whiteSpace=wrap;rounded=0;fontSize=15;" parent="ntQgoBIxeyPIHB9B7zEI-1" vertex="1">
          <mxGeometry x="436" y="832" width="72" height="30" as="geometry" />
        </mxCell>
        <mxCell id="ypg0qqeO4aZH2xYLX6tl-36" value="" style="html=1;verticalLabelPosition=bottom;align=center;labelBackgroundColor=#ffffff;verticalAlign=top;strokeWidth=2;strokeColor=#0080F0;shadow=0;dashed=0;shape=mxgraph.ios7.icons.trashcan;fontSize=15;" parent="ntQgoBIxeyPIHB9B7zEI-1" vertex="1">
          <mxGeometry x="515" y="839" width="24" height="18" as="geometry" />
        </mxCell>
        <mxCell id="ypg0qqeO4aZH2xYLX6tl-37" value="Product Category" style="text;html=1;strokeColor=none;fillColor=none;align=left;verticalAlign=middle;whiteSpace=wrap;rounded=0;fontSize=15;" parent="ntQgoBIxeyPIHB9B7zEI-1" vertex="1">
          <mxGeometry x="227" y="834" width="129" height="30" as="geometry" />
        </mxCell>
        <mxCell id="ypg0qqeO4aZH2xYLX6tl-38" value="" style="whiteSpace=wrap;html=1;rounded=0;shadow=0;strokeWidth=1;fillColor=none;align=center;comic=1;container=0;verticalAlign=middle;" parent="ntQgoBIxeyPIHB9B7zEI-1" vertex="1">
          <mxGeometry x="71" y="979" width="499" height="168" as="geometry" />
        </mxCell>
        <mxCell id="ypg0qqeO4aZH2xYLX6tl-39" value="" style="verticalLabelPosition=bottom;shadow=0;dashed=0;align=center;html=1;verticalAlign=top;strokeWidth=1;shape=mxgraph.mockup.graphics.simpleIcon;strokeColor=#999999;" parent="ntQgoBIxeyPIHB9B7zEI-1" vertex="1">
          <mxGeometry x="86" y="1006" width="96" height="114" as="geometry" />
        </mxCell>
        <mxCell id="ypg0qqeO4aZH2xYLX6tl-40" value="Name of the Product" style="text;strokeColor=none;fillColor=none;html=1;fontSize=24;fontStyle=1;verticalAlign=middle;align=left;" parent="ntQgoBIxeyPIHB9B7zEI-1" vertex="1">
          <mxGeometry x="228" y="1006" width="288" height="40" as="geometry" />
        </mxCell>
        <mxCell id="ypg0qqeO4aZH2xYLX6tl-41" value="&lt;font style=&quot;font-size: 15px;&quot;&gt;1&lt;/font&gt;" style="text;html=1;strokeColor=none;fillColor=none;align=left;verticalAlign=middle;whiteSpace=wrap;rounded=0;fontSize=15;" parent="ntQgoBIxeyPIHB9B7zEI-1" vertex="1">
          <mxGeometry x="370" y="1042" width="72" height="30" as="geometry" />
        </mxCell>
        <mxCell id="ypg0qqeO4aZH2xYLX6tl-42" value="&lt;span style=&quot;font-size: 15px;&quot;&gt;&lt;b style=&quot;font-size: 15px;&quot;&gt;$100&lt;/b&gt;&lt;/span&gt;" style="text;html=1;strokeColor=none;fillColor=none;align=left;verticalAlign=middle;whiteSpace=wrap;rounded=0;fontSize=15;" parent="ntQgoBIxeyPIHB9B7zEI-1" vertex="1">
          <mxGeometry x="440" y="1042" width="72" height="30" as="geometry" />
        </mxCell>
        <mxCell id="ypg0qqeO4aZH2xYLX6tl-43" value="" style="html=1;verticalLabelPosition=bottom;align=center;labelBackgroundColor=#ffffff;verticalAlign=top;strokeWidth=2;strokeColor=#0080F0;shadow=0;dashed=0;shape=mxgraph.ios7.icons.trashcan;fontSize=15;" parent="ntQgoBIxeyPIHB9B7zEI-1" vertex="1">
          <mxGeometry x="519" y="1049" width="24" height="18" as="geometry" />
        </mxCell>
        <mxCell id="ypg0qqeO4aZH2xYLX6tl-44" value="Product Category" style="text;html=1;strokeColor=none;fillColor=none;align=left;verticalAlign=middle;whiteSpace=wrap;rounded=0;fontSize=15;" parent="ntQgoBIxeyPIHB9B7zEI-1" vertex="1">
          <mxGeometry x="231" y="1044" width="129" height="30" as="geometry" />
        </mxCell>
        <mxCell id="ypg0qqeO4aZH2xYLX6tl-45" value="First Name" style="fillColor=none;strokeColor=none;align=left;fontSize=18;" parent="ntQgoBIxeyPIHB9B7zEI-1" vertex="1">
          <mxGeometry x="612" y="270" width="162" height="40" as="geometry" />
        </mxCell>
        <mxCell id="ypg0qqeO4aZH2xYLX6tl-46" value="First Name" style="html=1;shadow=0;dashed=0;shape=mxgraph.bootstrap.rrect;rSize=5;fillColor=none;strokeColor=#999999;align=left;spacing=15;fontSize=19;fontColor=#6C767D;" parent="ntQgoBIxeyPIHB9B7zEI-1" vertex="1">
          <mxGeometry width="210" height="48" relative="1" as="geometry">
            <mxPoint x="612" y="310" as="offset" />
          </mxGeometry>
        </mxCell>
        <mxCell id="ypg0qqeO4aZH2xYLX6tl-63" value="Last Name" style="fillColor=none;strokeColor=none;align=left;fontSize=18;" parent="ntQgoBIxeyPIHB9B7zEI-1" vertex="1">
          <mxGeometry x="855" y="268" width="162" height="40" as="geometry" />
        </mxCell>
        <mxCell id="ypg0qqeO4aZH2xYLX6tl-64" value="Last Name" style="html=1;shadow=0;dashed=0;shape=mxgraph.bootstrap.rrect;rSize=5;fillColor=none;strokeColor=#999999;align=left;spacing=15;fontSize=19;fontColor=#6C767D;" parent="ntQgoBIxeyPIHB9B7zEI-1" vertex="1">
          <mxGeometry x="840" y="311" width="222" height="48" as="geometry" />
        </mxCell>
        <mxCell id="ypg0qqeO4aZH2xYLX6tl-66" value="Email" style="html=1;shadow=0;dashed=0;shape=mxgraph.bootstrap.rrect;rSize=5;fillColor=none;strokeColor=#999999;align=left;spacing=15;fontSize=19;fontColor=#6C767D;" parent="ntQgoBIxeyPIHB9B7zEI-1" vertex="1">
          <mxGeometry x="606" y="418" width="456" height="48" as="geometry" />
        </mxCell>
        <mxCell id="ypg0qqeO4aZH2xYLX6tl-67" value="Email" style="fillColor=none;strokeColor=none;align=left;fontSize=18;" parent="ntQgoBIxeyPIHB9B7zEI-1" vertex="1">
          <mxGeometry x="607" y="378" width="162" height="40" as="geometry" />
        </mxCell>
        <mxCell id="ypg0qqeO4aZH2xYLX6tl-68" value="44 W Main Street" style="html=1;shadow=0;dashed=0;shape=mxgraph.bootstrap.rrect;rSize=5;fillColor=none;strokeColor=#999999;align=left;spacing=15;fontSize=19;fontColor=#6C767D;" parent="ntQgoBIxeyPIHB9B7zEI-1" vertex="1">
          <mxGeometry x="612" y="523" width="456" height="48" as="geometry" />
        </mxCell>
        <mxCell id="ypg0qqeO4aZH2xYLX6tl-69" value="Address" style="fillColor=none;strokeColor=none;align=left;fontSize=18;" parent="ntQgoBIxeyPIHB9B7zEI-1" vertex="1">
          <mxGeometry x="615" y="483" width="162" height="40" as="geometry" />
        </mxCell>
        <mxCell id="ypg0qqeO4aZH2xYLX6tl-71" value="Apartment or Suite" style="html=1;shadow=0;dashed=0;shape=mxgraph.bootstrap.rrect;rSize=5;fillColor=none;strokeColor=#999999;align=left;spacing=15;fontSize=19;fontColor=#6C767D;" parent="ntQgoBIxeyPIHB9B7zEI-1" vertex="1">
          <mxGeometry x="613" y="623" width="456" height="48" as="geometry" />
        </mxCell>
        <mxCell id="ypg0qqeO4aZH2xYLX6tl-72" value="Address 2" style="fillColor=none;strokeColor=none;align=left;fontSize=18;" parent="ntQgoBIxeyPIHB9B7zEI-1" vertex="1">
          <mxGeometry x="616" y="583" width="162" height="40" as="geometry" />
        </mxCell>
        <mxCell id="ypg0qqeO4aZH2xYLX6tl-73" value="Country" style="fillColor=none;strokeColor=none;align=left;fontSize=18;" parent="ntQgoBIxeyPIHB9B7zEI-1" vertex="1">
          <mxGeometry x="612" y="694" width="162" height="40" as="geometry" />
        </mxCell>
        <mxCell id="ypg0qqeO4aZH2xYLX6tl-74" value="Choose..." style="html=1;shadow=0;dashed=0;shape=mxgraph.bootstrap.rrect;rSize=5;fillColor=none;strokeColor=#999999;align=left;spacing=15;fontSize=19;fontColor=#6C767D;" parent="ntQgoBIxeyPIHB9B7zEI-1" vertex="1">
          <mxGeometry x="612" y="734" width="132" height="48" as="geometry" />
        </mxCell>
        <mxCell id="ypg0qqeO4aZH2xYLX6tl-75" value="State" style="fillColor=none;strokeColor=none;align=left;fontSize=18;" parent="ntQgoBIxeyPIHB9B7zEI-1" vertex="1">
          <mxGeometry x="779" y="692" width="133" height="40" as="geometry" />
        </mxCell>
        <mxCell id="ypg0qqeO4aZH2xYLX6tl-76" value="Choose..." style="html=1;shadow=0;dashed=0;shape=mxgraph.bootstrap.rrect;rSize=5;fillColor=none;strokeColor=#999999;align=left;spacing=15;fontSize=19;fontColor=#6C767D;" parent="ntQgoBIxeyPIHB9B7zEI-1" vertex="1">
          <mxGeometry x="783" y="735" width="135" height="48" as="geometry" />
        </mxCell>
        <mxCell id="ypg0qqeO4aZH2xYLX6tl-77" value="Zip" style="fillColor=none;strokeColor=none;align=left;fontSize=18;" parent="ntQgoBIxeyPIHB9B7zEI-1" vertex="1">
          <mxGeometry x="935" y="691" width="133" height="40" as="geometry" />
        </mxCell>
        <mxCell id="ypg0qqeO4aZH2xYLX6tl-78" value="" style="html=1;shadow=0;dashed=0;shape=mxgraph.bootstrap.rrect;rSize=5;fillColor=none;strokeColor=#999999;align=left;spacing=15;fontSize=19;fontColor=#6C767D;" parent="ntQgoBIxeyPIHB9B7zEI-1" vertex="1">
          <mxGeometry x="933" y="734" width="135" height="48" as="geometry" />
        </mxCell>
        <mxCell id="ypg0qqeO4aZH2xYLX6tl-79" value="" style="line;strokeWidth=2;html=1;rounded=0;shadow=0;labelBackgroundColor=none;comic=1;strokeColor=default;fontFamily=Verdana;fontSize=12;fontColor=default;fillColor=none;" parent="ntQgoBIxeyPIHB9B7zEI-1" vertex="1">
          <mxGeometry x="606" y="811" width="456" height="10" as="geometry" />
        </mxCell>
        <mxCell id="ypg0qqeO4aZH2xYLX6tl-82" value="Shipping address is the same as my billing address&amp;nbsp;" style="html=1;shadow=0;dashed=0;shape=mxgraph.bootstrap.checkbox2;labelPosition=right;verticalLabelPosition=middle;align=left;verticalAlign=middle;gradientColor=#DEDEDE;fillColor=#EDEDED;checked=1;spacing=5;checkedFill=#0085FC;checkedStroke=#ffffff;sketch=0;fontSize=15;" parent="ntQgoBIxeyPIHB9B7zEI-1" vertex="1">
          <mxGeometry x="609" y="834" width="10" height="10" as="geometry" />
        </mxCell>
        <mxCell id="ypg0qqeO4aZH2xYLX6tl-84" value="&lt;font style=&quot;font-size: 15px;&quot;&gt;Save this information for next time&amp;nbsp;&lt;/font&gt;" style="html=1;shadow=0;dashed=0;shape=mxgraph.bootstrap.checkbox2;labelPosition=right;verticalLabelPosition=middle;align=left;verticalAlign=middle;gradientColor=#DEDEDE;fillColor=#EDEDED;checked=1;spacing=5;checkedFill=#0085FC;checkedStroke=#ffffff;sketch=0;fontSize=15;" parent="ntQgoBIxeyPIHB9B7zEI-1" vertex="1">
          <mxGeometry x="609" y="857" width="10" height="10" as="geometry" />
        </mxCell>
        <mxCell id="ypg0qqeO4aZH2xYLX6tl-85" value="Shipping Address" style="text;strokeColor=none;fillColor=none;html=1;fontSize=21;fontStyle=1;verticalAlign=middle;align=left;" parent="ntQgoBIxeyPIHB9B7zEI-1" vertex="1">
          <mxGeometry x="606" y="897" width="264" height="40" as="geometry" />
        </mxCell>
        <mxCell id="ypg0qqeO4aZH2xYLX6tl-86" value="First Name" style="fillColor=none;strokeColor=none;align=left;fontSize=18;" parent="ntQgoBIxeyPIHB9B7zEI-1" vertex="1">
          <mxGeometry x="605" y="939" width="162" height="40" as="geometry" />
        </mxCell>
        <mxCell id="ypg0qqeO4aZH2xYLX6tl-87" value="First Name" style="html=1;shadow=0;dashed=0;shape=mxgraph.bootstrap.rrect;rSize=5;fillColor=none;strokeColor=#999999;align=left;spacing=15;fontSize=19;fontColor=#6C767D;" parent="ntQgoBIxeyPIHB9B7zEI-1" vertex="1">
          <mxGeometry x="605" y="979" width="210" height="48" as="geometry" />
        </mxCell>
        <mxCell id="ypg0qqeO4aZH2xYLX6tl-88" value="Last Name" style="fillColor=none;strokeColor=none;align=left;fontSize=18;" parent="ntQgoBIxeyPIHB9B7zEI-1" vertex="1">
          <mxGeometry x="848" y="937" width="162" height="40" as="geometry" />
        </mxCell>
        <mxCell id="ypg0qqeO4aZH2xYLX6tl-89" value="Last Name" style="html=1;shadow=0;dashed=0;shape=mxgraph.bootstrap.rrect;rSize=5;fillColor=none;strokeColor=#999999;align=left;spacing=15;fontSize=19;fontColor=#6C767D;" parent="ntQgoBIxeyPIHB9B7zEI-1" vertex="1">
          <mxGeometry x="833" y="980" width="222" height="48" as="geometry" />
        </mxCell>
        <mxCell id="ypg0qqeO4aZH2xYLX6tl-90" value="Email" style="html=1;shadow=0;dashed=0;shape=mxgraph.bootstrap.rrect;rSize=5;fillColor=none;strokeColor=#999999;align=left;spacing=15;fontSize=19;fontColor=#6C767D;" parent="ntQgoBIxeyPIHB9B7zEI-1" vertex="1">
          <mxGeometry x="599" y="1087" width="456" height="48" as="geometry" />
        </mxCell>
        <mxCell id="ypg0qqeO4aZH2xYLX6tl-91" value="Email" style="fillColor=none;strokeColor=none;align=left;fontSize=18;" parent="ntQgoBIxeyPIHB9B7zEI-1" vertex="1">
          <mxGeometry x="600" y="1047" width="162" height="40" as="geometry" />
        </mxCell>
        <mxCell id="ypg0qqeO4aZH2xYLX6tl-92" value="44 W Main Street" style="html=1;shadow=0;dashed=0;shape=mxgraph.bootstrap.rrect;rSize=5;fillColor=none;strokeColor=#999999;align=left;spacing=15;fontSize=19;fontColor=#6C767D;" parent="ntQgoBIxeyPIHB9B7zEI-1" vertex="1">
          <mxGeometry x="605" y="1192" width="456" height="48" as="geometry" />
        </mxCell>
        <mxCell id="ypg0qqeO4aZH2xYLX6tl-93" value="Address" style="fillColor=none;strokeColor=none;align=left;fontSize=18;" parent="ntQgoBIxeyPIHB9B7zEI-1" vertex="1">
          <mxGeometry x="608" y="1152" width="162" height="40" as="geometry" />
        </mxCell>
        <mxCell id="ypg0qqeO4aZH2xYLX6tl-94" value="Apartment or Suite" style="html=1;shadow=0;dashed=0;shape=mxgraph.bootstrap.rrect;rSize=5;fillColor=none;strokeColor=#999999;align=left;spacing=15;fontSize=19;fontColor=#6C767D;" parent="ntQgoBIxeyPIHB9B7zEI-1" vertex="1">
          <mxGeometry x="606" y="1292" width="456" height="48" as="geometry" />
        </mxCell>
        <mxCell id="ypg0qqeO4aZH2xYLX6tl-95" value="Address 2" style="fillColor=none;strokeColor=none;align=left;fontSize=18;" parent="ntQgoBIxeyPIHB9B7zEI-1" vertex="1">
          <mxGeometry x="609" y="1252" width="162" height="40" as="geometry" />
        </mxCell>
        <mxCell id="ypg0qqeO4aZH2xYLX6tl-96" value="Country" style="fillColor=none;strokeColor=none;align=left;fontSize=18;" parent="ntQgoBIxeyPIHB9B7zEI-1" vertex="1">
          <mxGeometry x="605" y="1363" width="162" height="40" as="geometry" />
        </mxCell>
        <mxCell id="ypg0qqeO4aZH2xYLX6tl-97" value="Choose..." style="html=1;shadow=0;dashed=0;shape=mxgraph.bootstrap.rrect;rSize=5;fillColor=none;strokeColor=#999999;align=left;spacing=15;fontSize=19;fontColor=#6C767D;" parent="ntQgoBIxeyPIHB9B7zEI-1" vertex="1">
          <mxGeometry x="605" y="1403" width="132" height="48" as="geometry" />
        </mxCell>
        <mxCell id="ypg0qqeO4aZH2xYLX6tl-98" value="State" style="fillColor=none;strokeColor=none;align=left;fontSize=18;" parent="ntQgoBIxeyPIHB9B7zEI-1" vertex="1">
          <mxGeometry x="936" y="1407" width="133" height="40" as="geometry" />
        </mxCell>
        <mxCell id="ypg0qqeO4aZH2xYLX6tl-99" value="Choose..." style="html=1;shadow=0;dashed=0;shape=mxgraph.bootstrap.rrect;rSize=5;fillColor=none;strokeColor=#999999;align=left;spacing=15;fontSize=19;fontColor=#6C767D;" parent="ntQgoBIxeyPIHB9B7zEI-1" vertex="1">
          <mxGeometry x="768" y="1403" width="135" height="48" as="geometry" />
        </mxCell>
        <mxCell id="ypg0qqeO4aZH2xYLX6tl-100" value="Zip" style="fillColor=none;strokeColor=none;align=left;fontSize=18;" parent="ntQgoBIxeyPIHB9B7zEI-1" vertex="1">
          <mxGeometry x="928" y="1360" width="133" height="40" as="geometry" />
        </mxCell>
        <mxCell id="ypg0qqeO4aZH2xYLX6tl-101" value="" style="html=1;shadow=0;dashed=0;shape=mxgraph.bootstrap.rrect;rSize=5;fillColor=none;strokeColor=#999999;align=left;spacing=15;fontSize=19;fontColor=#6C767D;" parent="ntQgoBIxeyPIHB9B7zEI-1" vertex="1">
          <mxGeometry x="926" y="1403" width="135" height="48" as="geometry" />
        </mxCell>
        <mxCell id="ypg0qqeO4aZH2xYLX6tl-104" value="" style="line;strokeWidth=2;html=1;rounded=0;shadow=0;labelBackgroundColor=none;comic=1;strokeColor=default;fontFamily=Verdana;fontSize=12;fontColor=default;fillColor=none;" parent="ntQgoBIxeyPIHB9B7zEI-1" vertex="1">
          <mxGeometry x="600" y="1488" width="462" height="10" as="geometry" />
        </mxCell>
        <mxCell id="ypg0qqeO4aZH2xYLX6tl-105" value="State" style="fillColor=none;strokeColor=none;align=left;fontSize=18;" parent="ntQgoBIxeyPIHB9B7zEI-1" vertex="1">
          <mxGeometry x="771" y="1360" width="162" height="40" as="geometry" />
        </mxCell>
        <mxCell id="ypg0qqeO4aZH2xYLX6tl-107" value="Card details" style="text;strokeColor=none;fillColor=none;html=1;fontSize=21;fontStyle=1;verticalAlign=middle;align=left;" parent="ntQgoBIxeyPIHB9B7zEI-1" vertex="1">
          <mxGeometry x="600" y="1530" width="264" height="40" as="geometry" />
        </mxCell>
        <mxCell id="ypg0qqeO4aZH2xYLX6tl-108" value="Card Type" style="fillColor=none;strokeColor=none;align=left;fontSize=18;" parent="ntQgoBIxeyPIHB9B7zEI-1" vertex="1">
          <mxGeometry x="605" y="1570" width="162" height="40" as="geometry" />
        </mxCell>
        <mxCell id="ypg0qqeO4aZH2xYLX6tl-109" value="" style="image;html=1;image=img/lib/clip_art/finance/Credit_Card_128x128.png" parent="ntQgoBIxeyPIHB9B7zEI-1" vertex="1">
          <mxGeometry x="607" y="1602" width="50" height="80" as="geometry" />
        </mxCell>
        <mxCell id="ypg0qqeO4aZH2xYLX6tl-110" value="" style="image;html=1;image=img/lib/clip_art/finance/Credit_Card_128x128.png" parent="ntQgoBIxeyPIHB9B7zEI-1" vertex="1">
          <mxGeometry x="680" y="1602" width="50" height="80" as="geometry" />
        </mxCell>
        <mxCell id="ypg0qqeO4aZH2xYLX6tl-111" value="" style="image;html=1;image=img/lib/clip_art/finance/Credit_Card_128x128.png" parent="ntQgoBIxeyPIHB9B7zEI-1" vertex="1">
          <mxGeometry x="752" y="1602" width="50" height="80" as="geometry" />
        </mxCell>
        <mxCell id="ypg0qqeO4aZH2xYLX6tl-112" value="" style="image;html=1;image=img/lib/clip_art/finance/Credit_Card_128x128.png" parent="ntQgoBIxeyPIHB9B7zEI-1" vertex="1">
          <mxGeometry x="825.5" y="1602" width="50" height="80" as="geometry" />
        </mxCell>
        <mxCell id="ypg0qqeO4aZH2xYLX6tl-113" value=" Cardholder&#39;s Name" style="fillColor=none;strokeColor=none;align=left;fontSize=18;" parent="ntQgoBIxeyPIHB9B7zEI-1" vertex="1">
          <mxGeometry x="585.75" y="1682" width="162" height="40" as="geometry" />
        </mxCell>
        <mxCell id="ypg0qqeO4aZH2xYLX6tl-114" value="&amp;nbsp;Cardholder&#39;s Name" style="html=1;shadow=0;dashed=0;shape=mxgraph.bootstrap.rrect;rSize=5;fillColor=none;strokeColor=#999999;align=left;spacing=15;fontSize=19;fontColor=#6C767D;" parent="ntQgoBIxeyPIHB9B7zEI-1" vertex="1">
          <mxGeometry x="584.75" y="1722" width="456" height="48" as="geometry" />
        </mxCell>
        <mxCell id="ypg0qqeO4aZH2xYLX6tl-115" value="Card Number" style="fillColor=none;strokeColor=none;align=left;fontSize=18;" parent="ntQgoBIxeyPIHB9B7zEI-1" vertex="1">
          <mxGeometry x="593.75" y="1787" width="162" height="40" as="geometry" />
        </mxCell>
        <mxCell id="ypg0qqeO4aZH2xYLX6tl-116" value="44 W Main Street" style="html=1;shadow=0;dashed=0;shape=mxgraph.bootstrap.rrect;rSize=5;fillColor=none;strokeColor=#999999;align=left;spacing=15;fontSize=19;fontColor=#6C767D;" parent="ntQgoBIxeyPIHB9B7zEI-1" vertex="1">
          <mxGeometry x="590.75" y="1827" width="456" height="48" as="geometry" />
        </mxCell>
        <mxCell id="ypg0qqeO4aZH2xYLX6tl-131" value="Expiration" style="fillColor=none;strokeColor=none;align=left;fontSize=18;" parent="ntQgoBIxeyPIHB9B7zEI-1" vertex="1">
          <mxGeometry x="594" y="1895" width="162" height="40" as="geometry" />
        </mxCell>
        <mxCell id="ypg0qqeO4aZH2xYLX6tl-132" value="MM/YY" style="html=1;shadow=0;dashed=0;shape=mxgraph.bootstrap.rrect;rSize=5;fillColor=none;strokeColor=#999999;align=left;spacing=15;fontSize=19;fontColor=#6C767D;" parent="ntQgoBIxeyPIHB9B7zEI-1" vertex="1">
          <mxGeometry width="210" height="48" relative="1" as="geometry">
            <mxPoint x="594" y="1930" as="offset" />
          </mxGeometry>
        </mxCell>
        <mxCell id="ypg0qqeO4aZH2xYLX6tl-135" value="CVV" style="fillColor=none;strokeColor=none;align=left;fontSize=18;" parent="ntQgoBIxeyPIHB9B7zEI-1" vertex="1">
          <mxGeometry x="848" y="1901" width="162" height="40" as="geometry" />
        </mxCell>
        <mxCell id="ypg0qqeO4aZH2xYLX6tl-136" value="CVV" style="html=1;shadow=0;dashed=0;shape=mxgraph.bootstrap.rrect;rSize=5;fillColor=none;strokeColor=#999999;align=left;spacing=15;fontSize=19;fontColor=#6C767D;" parent="ntQgoBIxeyPIHB9B7zEI-1" vertex="1">
          <mxGeometry x="831" y="1936" width="210" height="48" as="geometry" />
        </mxCell>
        <mxCell id="ypg0qqeO4aZH2xYLX6tl-137" value="Subtotal" style="fillColor=none;strokeColor=none;align=left;fontSize=18;" parent="ntQgoBIxeyPIHB9B7zEI-1" vertex="1">
          <mxGeometry x="597" y="1998" width="162" height="40" as="geometry" />
        </mxCell>
        <mxCell id="ypg0qqeO4aZH2xYLX6tl-138" value="Shipping" style="fillColor=none;strokeColor=none;align=left;fontSize=18;" parent="ntQgoBIxeyPIHB9B7zEI-1" vertex="1">
          <mxGeometry x="597" y="2038" width="162" height="40" as="geometry" />
        </mxCell>
        <mxCell id="ypg0qqeO4aZH2xYLX6tl-139" value="Total(Incl. taxes)" style="fillColor=none;strokeColor=none;align=left;fontSize=18;" parent="ntQgoBIxeyPIHB9B7zEI-1" vertex="1">
          <mxGeometry x="597" y="2078" width="162" height="40" as="geometry" />
        </mxCell>
        <mxCell id="ypg0qqeO4aZH2xYLX6tl-140" value="$ 350.00" style="fillColor=none;strokeColor=none;align=right;fontSize=18;" parent="ntQgoBIxeyPIHB9B7zEI-1" vertex="1">
          <mxGeometry x="864" y="1998" width="162" height="40" as="geometry" />
        </mxCell>
        <mxCell id="ypg0qqeO4aZH2xYLX6tl-141" value="$87.00" style="fillColor=none;strokeColor=none;align=right;fontSize=18;" parent="ntQgoBIxeyPIHB9B7zEI-1" vertex="1">
          <mxGeometry x="864" y="2040" width="162" height="40" as="geometry" />
        </mxCell>
        <mxCell id="ypg0qqeO4aZH2xYLX6tl-142" value="$300.45" style="fillColor=none;strokeColor=none;align=right;fontSize=18;" parent="ntQgoBIxeyPIHB9B7zEI-1" vertex="1">
          <mxGeometry x="863" y="2088" width="162" height="40" as="geometry" />
        </mxCell>
        <mxCell id="jyr54UPRFX1bfjy3CxJE-0" value="" style="whiteSpace=wrap;html=1;rounded=0;shadow=0;strokeWidth=1;fillColor=none;align=center;comic=1;container=0;verticalAlign=middle;" parent="ntQgoBIxeyPIHB9B7zEI-1" vertex="1">
          <mxGeometry x="23" y="2223" width="1060" height="72" as="geometry" />
        </mxCell>
        <mxCell id="jyr54UPRFX1bfjy3CxJE-1" value="Connect with us!" style="text;strokeColor=none;fillColor=none;html=1;fontSize=24;fontStyle=1;verticalAlign=middle;align=left;" parent="ntQgoBIxeyPIHB9B7zEI-1" vertex="1">
          <mxGeometry x="33" y="2238" width="246" height="40" as="geometry" />
        </mxCell>
        <mxCell id="jyr54UPRFX1bfjy3CxJE-2" value="" style="shape=image;html=1;verticalAlign=top;verticalLabelPosition=bottom;labelBackgroundColor=#ffffff;imageAspect=0;aspect=fixed;image=https://cdn2.iconfinder.com/data/icons/social-media-2285/512/1_Facebook_colored_svg_copy-128.png" parent="ntQgoBIxeyPIHB9B7zEI-1" vertex="1">
          <mxGeometry x="1021.5" y="2243" width="30" height="30" as="geometry" />
        </mxCell>
        <mxCell id="jyr54UPRFX1bfjy3CxJE-3" value="" style="shape=image;html=1;verticalAlign=top;verticalLabelPosition=bottom;labelBackgroundColor=#ffffff;imageAspect=0;aspect=fixed;image=https://cdn2.iconfinder.com/data/icons/social-media-2285/512/1_Facebook_colored_svg_copy-128.png" parent="ntQgoBIxeyPIHB9B7zEI-1" vertex="1">
          <mxGeometry x="973" y="2243" width="30" height="30" as="geometry" />
        </mxCell>
        <mxCell id="jyr54UPRFX1bfjy3CxJE-4" value="" style="shape=image;html=1;verticalAlign=top;verticalLabelPosition=bottom;labelBackgroundColor=#ffffff;imageAspect=0;aspect=fixed;image=https://cdn2.iconfinder.com/data/icons/social-media-2285/512/1_Facebook_colored_svg_copy-128.png" parent="ntQgoBIxeyPIHB9B7zEI-1" vertex="1">
          <mxGeometry x="924.5" y="2243" width="30" height="30" as="geometry" />
        </mxCell>
        <mxCell id="jyr54UPRFX1bfjy3CxJE-5" value="" style="shape=image;html=1;verticalAlign=top;verticalLabelPosition=bottom;labelBackgroundColor=#ffffff;imageAspect=0;aspect=fixed;image=https://cdn2.iconfinder.com/data/icons/social-media-2285/512/1_Facebook_colored_svg_copy-128.png" parent="ntQgoBIxeyPIHB9B7zEI-1" vertex="1">
          <mxGeometry x="867" y="2243" width="30" height="30" as="geometry" />
        </mxCell>
        <mxCell id="AwVqpEhcBuVPVeSfknKI-0" value="Currency" style="text;html=1;points=[];align=right;verticalAlign=top;spacingTop=-4;fontSize=14;fontFamily=Verdana" parent="ntQgoBIxeyPIHB9B7zEI-1" vertex="1">
          <mxGeometry x="784" y="91" width="80" height="20" as="geometry" />
        </mxCell>
        <mxCell id="AwVqpEhcBuVPVeSfknKI-1" value="Cart" style="text;html=1;points=[];align=right;verticalAlign=top;spacingTop=-4;fontSize=14;fontFamily=Verdana" parent="ntQgoBIxeyPIHB9B7zEI-1" vertex="1">
          <mxGeometry x="832" y="91" width="80" height="20" as="geometry" />
        </mxCell>
        <mxCell id="AwVqpEhcBuVPVeSfknKI-2" value="Wishlist" style="text;html=1;points=[];align=right;verticalAlign=top;spacingTop=-4;fontSize=14;fontFamily=Verdana" parent="ntQgoBIxeyPIHB9B7zEI-1" vertex="1">
          <mxGeometry x="903" y="91" width="80" height="20" as="geometry" />
        </mxCell>
        <mxCell id="AwVqpEhcBuVPVeSfknKI-3" value="Profile" style="text;html=1;points=[];align=right;verticalAlign=top;spacingTop=-4;fontSize=14;fontFamily=Verdana" parent="ntQgoBIxeyPIHB9B7zEI-1" vertex="1">
          <mxGeometry x="974" y="91" width="80" height="20" as="geometry" />
        </mxCell>
        <mxCell id="IdHwt3zEafTQvaEFOctQ-0" value="&lt;font color=&quot;#000033&quot;&gt;Pay Now&lt;/font&gt;" style="html=1;shadow=0;dashed=0;shape=mxgraph.bootstrap.rrect;rSize=5;strokeColor=none;strokeWidth=1;fillColor=#FFBC26;fontColor=#FFFFFF;whiteSpace=wrap;align=center;verticalAlign=middle;spacingLeft=0;fontStyle=0;fontSize=16;spacing=5;" vertex="1" parent="ntQgoBIxeyPIHB9B7zEI-1">
          <mxGeometry x="584.75" y="2148" width="150" height="40" as="geometry" />
        </mxCell>
      </root>
    </mxGraphModel>
  </diagram>
  <diagram name="Product Listing(shop)" id="alwk7Z86F4WyL1WS6J-m">
    <mxGraphModel dx="1036" dy="549" grid="1" gridSize="6" guides="1" tooltips="1" connect="1" arrows="1" fold="1" page="1" pageScale="1" pageWidth="1100" pageHeight="850" background="#ffffff" math="0" shadow="0">
      <root>
        <mxCell id="fP9kgdAO-IO4lScnQeGk-0" />
        <mxCell id="fP9kgdAO-IO4lScnQeGk-1" parent="fP9kgdAO-IO4lScnQeGk-0" />
        <mxCell id="fP9kgdAO-IO4lScnQeGk-2" value="" style="whiteSpace=wrap;html=1;rounded=0;shadow=0;labelBackgroundColor=none;strokeColor=#000000;strokeWidth=1;fillColor=default;fontFamily=Verdana;fontSize=12;fontColor=#000000;align=center;comic=1;" parent="fP9kgdAO-IO4lScnQeGk-1" vertex="1">
          <mxGeometry x="20" y="20" width="1060" height="1792" as="geometry" />
        </mxCell>
        <mxCell id="fP9kgdAO-IO4lScnQeGk-3" value="" style="line;strokeWidth=1;html=1;rounded=0;shadow=0;labelBackgroundColor=none;fillColor=none;fontFamily=Verdana;fontSize=14;fontColor=#000000;align=center;comic=1;" parent="fP9kgdAO-IO4lScnQeGk-1" vertex="1">
          <mxGeometry x="20" y="140" width="1060" height="10" as="geometry" />
        </mxCell>
        <mxCell id="fP9kgdAO-IO4lScnQeGk-4" value="" style="shape=singleArrow;direction=west;whiteSpace=wrap;html=1;" parent="fP9kgdAO-IO4lScnQeGk-1" vertex="1">
          <mxGeometry x="40" y="25" width="50" height="40" as="geometry" />
        </mxCell>
        <mxCell id="fP9kgdAO-IO4lScnQeGk-5" value="" style="group" parent="fP9kgdAO-IO4lScnQeGk-1" vertex="1" connectable="0">
          <mxGeometry x="20" y="19.999999999999996" width="1060" height="111" as="geometry" />
        </mxCell>
        <mxCell id="fP9kgdAO-IO4lScnQeGk-6" value="LOGO" style="whiteSpace=wrap;html=1;rounded=0;shadow=0;labelBackgroundColor=none;strokeWidth=1;fontFamily=Verdana;fontSize=28;align=center;comic=1;" parent="fP9kgdAO-IO4lScnQeGk-5" vertex="1">
          <mxGeometry x="20" y="61" width="130" height="50" as="geometry" />
        </mxCell>
        <mxCell id="fP9kgdAO-IO4lScnQeGk-7" value="Search" style="strokeWidth=1;shadow=0;dashed=0;align=center;html=1;shape=mxgraph.mockup.forms.searchBox;strokeColor=#999999;mainText=;strokeColor2=#008cff;fontColor=#666666;fontSize=17;align=left;spacingLeft=3;rounded=0;labelBackgroundColor=none;comic=1;" parent="fP9kgdAO-IO4lScnQeGk-5" vertex="1">
          <mxGeometry x="370" y="71" width="220" height="30" as="geometry" />
        </mxCell>
        <mxCell id="fP9kgdAO-IO4lScnQeGk-8" value="Shop Now" style="text;html=1;points=[];align=left;verticalAlign=top;spacingTop=-4;fontSize=14;fontFamily=Verdana" parent="fP9kgdAO-IO4lScnQeGk-5" vertex="1">
          <mxGeometry x="180" y="76" width="80" height="20" as="geometry" />
        </mxCell>
        <mxCell id="fP9kgdAO-IO4lScnQeGk-9" value="" style="group" parent="fP9kgdAO-IO4lScnQeGk-5" vertex="1" connectable="0">
          <mxGeometry width="1060" height="50" as="geometry" />
        </mxCell>
        <mxCell id="fP9kgdAO-IO4lScnQeGk-10" value="" style="whiteSpace=wrap;html=1;rounded=0;shadow=0;labelBackgroundColor=none;strokeWidth=1;fillColor=none;fontFamily=Verdana;fontSize=12;align=center;comic=1;" parent="fP9kgdAO-IO4lScnQeGk-9" vertex="1">
          <mxGeometry y="3.552713678800501e-15" width="1060" height="50" as="geometry" />
        </mxCell>
        <mxCell id="fP9kgdAO-IO4lScnQeGk-11" value="Free Shipping on all items" style="text;html=1;points=[];align=center;verticalAlign=top;spacingTop=-4;fontSize=14;fontFamily=Verdana" parent="fP9kgdAO-IO4lScnQeGk-9" vertex="1">
          <mxGeometry x="385" y="15.000000000000004" width="290" height="20" as="geometry" />
        </mxCell>
        <mxCell id="fP9kgdAO-IO4lScnQeGk-12" value="" style="shape=singleArrow;direction=west;whiteSpace=wrap;html=1;rotation=-180;" parent="fP9kgdAO-IO4lScnQeGk-9" vertex="1">
          <mxGeometry x="993" y="3.552713678800501e-15" width="50" height="40" as="geometry" />
        </mxCell>
        <mxCell id="fP9kgdAO-IO4lScnQeGk-101" value="" style="whiteSpace=wrap;html=1;rounded=0;shadow=0;strokeWidth=1;fillColor=none;align=center;comic=1;container=0;verticalAlign=middle;" parent="fP9kgdAO-IO4lScnQeGk-1" vertex="1">
          <mxGeometry x="20" y="1476" width="1060" height="252" as="geometry" />
        </mxCell>
        <mxCell id="fP9kgdAO-IO4lScnQeGk-102" value="DESIWEAR" style="text;strokeColor=none;fillColor=none;html=1;fontSize=21;fontStyle=1;verticalAlign=middle;align=center;fontFamily=Verdana;fontColor=default;" parent="fP9kgdAO-IO4lScnQeGk-1" vertex="1">
          <mxGeometry x="120" y="1513" width="221.5" height="40" as="geometry" />
        </mxCell>
        <mxCell id="fP9kgdAO-IO4lScnQeGk-103" value="CATEGORY" style="text;strokeColor=none;fillColor=none;html=1;fontSize=21;fontStyle=1;verticalAlign=middle;align=center;fontFamily=Verdana;fontColor=default;" parent="fP9kgdAO-IO4lScnQeGk-1" vertex="1">
          <mxGeometry x="508.5" y="1513" width="221.5" height="40" as="geometry" />
        </mxCell>
        <mxCell id="fP9kgdAO-IO4lScnQeGk-104" value="USEFUL LINKS" style="text;strokeColor=none;fillColor=none;html=1;fontSize=21;fontStyle=1;verticalAlign=middle;align=center;fontFamily=Verdana;fontColor=default;" parent="fP9kgdAO-IO4lScnQeGk-1" vertex="1">
          <mxGeometry x="730" y="1513" width="221.5" height="40" as="geometry" />
        </mxCell>
        <mxCell id="fP9kgdAO-IO4lScnQeGk-105" value="" style="line;strokeWidth=2;html=1;rounded=0;shadow=0;labelBackgroundColor=none;comic=1;strokeColor=default;fontFamily=Verdana;fontSize=12;fontColor=default;fillColor=none;" parent="fP9kgdAO-IO4lScnQeGk-1" vertex="1">
          <mxGeometry x="170" y="1553" width="60" height="10" as="geometry" />
        </mxCell>
        <mxCell id="fP9kgdAO-IO4lScnQeGk-106" value="" style="line;strokeWidth=2;html=1;rounded=0;shadow=0;labelBackgroundColor=none;comic=1;strokeColor=default;fontFamily=Verdana;fontSize=12;fontColor=default;fillColor=none;" parent="fP9kgdAO-IO4lScnQeGk-1" vertex="1">
          <mxGeometry x="760" y="1553" width="60" height="10" as="geometry" />
        </mxCell>
        <mxCell id="fP9kgdAO-IO4lScnQeGk-107" value="" style="line;strokeWidth=2;html=1;rounded=0;shadow=0;labelBackgroundColor=none;comic=1;strokeColor=default;fontFamily=Verdana;fontSize=12;fontColor=default;fillColor=none;" parent="fP9kgdAO-IO4lScnQeGk-1" vertex="1">
          <mxGeometry x="558.5" y="1553" width="60" height="10" as="geometry" />
        </mxCell>
        <mxCell id="fP9kgdAO-IO4lScnQeGk-108" value="DesiWear: Your Fashion Destination for Desi Dazzle – Embrace the Culture, Own the Style, and Slay Every Day" style="text;html=1;strokeColor=none;fillColor=none;align=left;verticalAlign=middle;whiteSpace=wrap;rounded=0;fontSize=12;fontFamily=Verdana;fontColor=default;" parent="fP9kgdAO-IO4lScnQeGk-1" vertex="1">
          <mxGeometry x="160" y="1572" width="330" height="70" as="geometry" />
        </mxCell>
        <mxCell id="fP9kgdAO-IO4lScnQeGk-109" value="Women&#39;s" style="text;html=1;strokeColor=none;fillColor=none;align=left;verticalAlign=middle;whiteSpace=wrap;rounded=0;fontSize=12;fontFamily=Verdana;fontColor=default;" parent="fP9kgdAO-IO4lScnQeGk-1" vertex="1">
          <mxGeometry x="558.5" y="1572" width="60" height="30" as="geometry" />
        </mxCell>
        <mxCell id="fP9kgdAO-IO4lScnQeGk-110" value="Men&#39;s" style="text;html=1;strokeColor=none;fillColor=none;align=left;verticalAlign=middle;whiteSpace=wrap;rounded=0;fontSize=12;fontFamily=Verdana;fontColor=default;" parent="fP9kgdAO-IO4lScnQeGk-1" vertex="1">
          <mxGeometry x="558.5" y="1602" width="60" height="30" as="geometry" />
        </mxCell>
        <mxCell id="fP9kgdAO-IO4lScnQeGk-111" value="Kids" style="text;html=1;strokeColor=none;fillColor=none;align=left;verticalAlign=middle;whiteSpace=wrap;rounded=0;fontSize=12;fontFamily=Verdana;fontColor=default;" parent="fP9kgdAO-IO4lScnQeGk-1" vertex="1">
          <mxGeometry x="558.5" y="1632" width="60" height="30" as="geometry" />
        </mxCell>
        <mxCell id="fP9kgdAO-IO4lScnQeGk-112" value="Accessories" style="text;html=1;strokeColor=none;fillColor=none;align=left;verticalAlign=middle;whiteSpace=wrap;rounded=0;fontSize=12;fontFamily=Verdana;fontColor=default;" parent="fP9kgdAO-IO4lScnQeGk-1" vertex="1">
          <mxGeometry x="558.5" y="1662" width="60" height="30" as="geometry" />
        </mxCell>
        <mxCell id="fP9kgdAO-IO4lScnQeGk-113" value="Your Account" style="text;html=1;strokeColor=none;fillColor=none;align=left;verticalAlign=middle;whiteSpace=wrap;rounded=0;fontSize=12;fontFamily=Verdana;fontColor=default;" parent="fP9kgdAO-IO4lScnQeGk-1" vertex="1">
          <mxGeometry x="748.5" y="1572" width="131.5" height="30" as="geometry" />
        </mxCell>
        <mxCell id="fP9kgdAO-IO4lScnQeGk-114" value="Become an Affiliate" style="text;html=1;strokeColor=none;fillColor=none;align=left;verticalAlign=middle;whiteSpace=wrap;rounded=0;fontSize=12;fontFamily=Verdana;fontColor=default;" parent="fP9kgdAO-IO4lScnQeGk-1" vertex="1">
          <mxGeometry x="748.5" y="1602" width="131.5" height="30" as="geometry" />
        </mxCell>
        <mxCell id="fP9kgdAO-IO4lScnQeGk-115" value="Shipping Rates" style="text;html=1;strokeColor=none;fillColor=none;align=left;verticalAlign=middle;whiteSpace=wrap;rounded=0;fontSize=12;fontFamily=Verdana;fontColor=default;" parent="fP9kgdAO-IO4lScnQeGk-1" vertex="1">
          <mxGeometry x="748.5" y="1632" width="131.5" height="30" as="geometry" />
        </mxCell>
        <mxCell id="fP9kgdAO-IO4lScnQeGk-116" value="Help" style="text;html=1;strokeColor=none;fillColor=none;align=left;verticalAlign=middle;whiteSpace=wrap;rounded=0;fontSize=12;fontFamily=Verdana;fontColor=default;" parent="fP9kgdAO-IO4lScnQeGk-1" vertex="1">
          <mxGeometry x="750" y="1662" width="131.5" height="30" as="geometry" />
        </mxCell>
        <mxCell id="fP9kgdAO-IO4lScnQeGk-118" value="© 2023 Copyright: DesiWear" style="text;html=1;strokeColor=none;fillColor=none;align=left;verticalAlign=middle;whiteSpace=wrap;rounded=0;fontSize=13;fontFamily=Verdana;fontColor=default;" parent="fP9kgdAO-IO4lScnQeGk-1" vertex="1">
          <mxGeometry x="435" y="1758" width="230" height="30" as="geometry" />
        </mxCell>
        <mxCell id="8a0C2EC5olk1_nAWN_Qg-0" value="" style="whiteSpace=wrap;html=1;rounded=0;shadow=0;strokeWidth=1;fillColor=none;align=center;comic=1;container=0;verticalAlign=middle;" parent="fP9kgdAO-IO4lScnQeGk-1" vertex="1">
          <mxGeometry x="40" y="174" width="254" height="672" as="geometry" />
        </mxCell>
        <mxCell id="8a0C2EC5olk1_nAWN_Qg-3" value="Filter" style="text;strokeColor=none;fillColor=none;html=1;fontSize=24;fontStyle=1;verticalAlign=middle;align=left;" parent="fP9kgdAO-IO4lScnQeGk-1" vertex="1">
          <mxGeometry x="42" y="174" width="100" height="40" as="geometry" />
        </mxCell>
        <mxCell id="8a0C2EC5olk1_nAWN_Qg-4" value="Search here" style="strokeWidth=1;shadow=0;dashed=0;align=center;html=1;shape=mxgraph.mockup.forms.searchBox;strokeColor=#999999;mainText=;strokeColor2=#008cff;fontColor=#666666;fontSize=17;align=left;spacingLeft=3;whiteSpace=wrap;" parent="fP9kgdAO-IO4lScnQeGk-1" vertex="1">
          <mxGeometry x="48.5" y="210" width="233.5" height="30" as="geometry" />
        </mxCell>
        <mxCell id="8a0C2EC5olk1_nAWN_Qg-7" value="" style="line;strokeWidth=2;html=1;rounded=0;shadow=0;labelBackgroundColor=none;comic=1;strokeColor=default;fontFamily=Verdana;fontSize=12;fontColor=default;fillColor=none;" parent="fP9kgdAO-IO4lScnQeGk-1" vertex="1">
          <mxGeometry x="54" y="252" width="222" height="10" as="geometry" />
        </mxCell>
        <mxCell id="8a0C2EC5olk1_nAWN_Qg-8" value="Category" style="text;strokeColor=none;fillColor=none;html=1;fontSize=24;fontStyle=1;verticalAlign=middle;align=left;" parent="fP9kgdAO-IO4lScnQeGk-1" vertex="1">
          <mxGeometry x="42" y="264" width="100" height="40" as="geometry" />
        </mxCell>
        <mxCell id="8a0C2EC5olk1_nAWN_Qg-23" value="Woman&#39;s" style="rounded=1;fillColor=#F0F2F5;strokeColor=#D8DCE3;align=left;verticalAlign=middle;fontStyle=0;fontSize=19;labelPosition=right;verticalLabelPosition=middle;spacingLeft=10;html=1;shadow=0;dashed=0" parent="fP9kgdAO-IO4lScnQeGk-1" vertex="1">
          <mxGeometry x="52" y="313" width="12" height="12" as="geometry" />
        </mxCell>
        <mxCell id="8a0C2EC5olk1_nAWN_Qg-27" value="Men&#39;s" style="rounded=1;fillColor=#F0F2F5;strokeColor=#D8DCE3;align=left;verticalAlign=middle;fontStyle=0;fontSize=19;labelPosition=right;verticalLabelPosition=middle;spacingLeft=10;html=1;shadow=0;dashed=0;glass=0;" parent="fP9kgdAO-IO4lScnQeGk-1" vertex="1">
          <mxGeometry x="52" y="343" width="12" height="12" as="geometry" />
        </mxCell>
        <mxCell id="8a0C2EC5olk1_nAWN_Qg-36" value="Kids" style="rounded=1;fillColor=#F0F2F5;strokeColor=#D8DCE3;align=left;verticalAlign=middle;fontStyle=0;fontSize=19;labelPosition=right;verticalLabelPosition=middle;spacingLeft=10;html=1;shadow=0;dashed=0;glass=0;" parent="fP9kgdAO-IO4lScnQeGk-1" vertex="1">
          <mxGeometry x="55" y="379" width="12" height="12" as="geometry" />
        </mxCell>
        <mxCell id="8a0C2EC5olk1_nAWN_Qg-37" value="Accessories" style="rounded=1;fillColor=#F0F2F5;strokeColor=#D8DCE3;align=left;verticalAlign=middle;fontStyle=0;fontSize=19;labelPosition=right;verticalLabelPosition=middle;spacingLeft=10;html=1;shadow=0;dashed=0;glass=0;" parent="fP9kgdAO-IO4lScnQeGk-1" vertex="1">
          <mxGeometry x="54" y="411" width="12" height="12" as="geometry" />
        </mxCell>
        <mxCell id="8a0C2EC5olk1_nAWN_Qg-38" value="" style="line;strokeWidth=2;html=1;rounded=0;shadow=0;labelBackgroundColor=none;comic=1;strokeColor=default;fontFamily=Verdana;fontSize=12;fontColor=default;fillColor=none;" parent="fP9kgdAO-IO4lScnQeGk-1" vertex="1">
          <mxGeometry x="48.5" y="438" width="222" height="10" as="geometry" />
        </mxCell>
        <mxCell id="8a0C2EC5olk1_nAWN_Qg-39" value="Type" style="text;strokeColor=none;fillColor=none;html=1;fontSize=24;fontStyle=1;verticalAlign=middle;align=left;" parent="fP9kgdAO-IO4lScnQeGk-1" vertex="1">
          <mxGeometry x="55" y="448" width="100" height="40" as="geometry" />
        </mxCell>
        <mxCell id="8a0C2EC5olk1_nAWN_Qg-40" value="Shirts" style="rounded=1;fillColor=#F0F2F5;strokeColor=#D8DCE3;align=left;verticalAlign=middle;fontStyle=0;fontSize=19;labelPosition=right;verticalLabelPosition=middle;spacingLeft=10;html=1;shadow=0;dashed=0" parent="fP9kgdAO-IO4lScnQeGk-1" vertex="1">
          <mxGeometry x="65" y="497" width="12" height="12" as="geometry" />
        </mxCell>
        <mxCell id="8a0C2EC5olk1_nAWN_Qg-41" value="Pants" style="rounded=1;fillColor=#F0F2F5;strokeColor=#D8DCE3;align=left;verticalAlign=middle;fontStyle=0;fontSize=19;labelPosition=right;verticalLabelPosition=middle;spacingLeft=10;html=1;shadow=0;dashed=0;glass=0;" parent="fP9kgdAO-IO4lScnQeGk-1" vertex="1">
          <mxGeometry x="65" y="527" width="12" height="12" as="geometry" />
        </mxCell>
        <mxCell id="8a0C2EC5olk1_nAWN_Qg-42" value="Bottles" style="rounded=1;fillColor=#F0F2F5;strokeColor=#D8DCE3;align=left;verticalAlign=middle;fontStyle=0;fontSize=19;labelPosition=right;verticalLabelPosition=middle;spacingLeft=10;html=1;shadow=0;dashed=0;glass=0;" parent="fP9kgdAO-IO4lScnQeGk-1" vertex="1">
          <mxGeometry x="68" y="563" width="12" height="12" as="geometry" />
        </mxCell>
        <mxCell id="8a0C2EC5olk1_nAWN_Qg-43" value="Suites" style="rounded=1;fillColor=#F0F2F5;strokeColor=#D8DCE3;align=left;verticalAlign=middle;fontStyle=0;fontSize=19;labelPosition=right;verticalLabelPosition=middle;spacingLeft=10;html=1;shadow=0;dashed=0;glass=0;" parent="fP9kgdAO-IO4lScnQeGk-1" vertex="1">
          <mxGeometry x="67" y="595" width="12" height="12" as="geometry" />
        </mxCell>
        <mxCell id="8a0C2EC5olk1_nAWN_Qg-44" value="Price Range" style="text;strokeColor=none;fillColor=none;html=1;fontSize=24;fontStyle=1;verticalAlign=middle;align=left;" parent="fP9kgdAO-IO4lScnQeGk-1" vertex="1">
          <mxGeometry x="55" y="624" width="100" height="40" as="geometry" />
        </mxCell>
        <mxCell id="8a0C2EC5olk1_nAWN_Qg-45" value="" style="verticalLabelPosition=bottom;shadow=0;dashed=0;align=center;html=1;verticalAlign=top;strokeWidth=1;shape=mxgraph.mockup.forms.horSlider;strokeColor=#999999;sliderStyle=basic;sliderPos=20;handleStyle=circle;fillColor2=#ddeeff;" parent="fP9kgdAO-IO4lScnQeGk-1" vertex="1">
          <mxGeometry x="55" y="672" width="150" height="30" as="geometry" />
        </mxCell>
        <mxCell id="8a0C2EC5olk1_nAWN_Qg-46" value="Price:" style="text;html=1;points=[];align=left;verticalAlign=top;spacingTop=-4;fontSize=19;fontFamily=Verdana" parent="fP9kgdAO-IO4lScnQeGk-1" vertex="1">
          <mxGeometry x="54" y="708" width="80" height="17" as="geometry" />
        </mxCell>
        <mxCell id="8a0C2EC5olk1_nAWN_Qg-47" value="$20" style="text;html=1;points=[];align=left;verticalAlign=top;spacingTop=-4;fontSize=19;fontFamily=Verdana" parent="fP9kgdAO-IO4lScnQeGk-1" vertex="1">
          <mxGeometry x="114" y="708" width="80" height="17" as="geometry" />
        </mxCell>
        <mxCell id="8a0C2EC5olk1_nAWN_Qg-48" value="" style="line;strokeWidth=2;html=1;rounded=0;shadow=0;labelBackgroundColor=none;comic=1;strokeColor=default;fontFamily=Verdana;fontSize=12;fontColor=default;fillColor=none;" parent="fP9kgdAO-IO4lScnQeGk-1" vertex="1">
          <mxGeometry x="43" y="738" width="222" height="10" as="geometry" />
        </mxCell>
        <mxCell id="8a0C2EC5olk1_nAWN_Qg-49" value="&lt;font color=&quot;#000033&quot; style=&quot;font-size: 19px;&quot;&gt;Search&lt;/font&gt;" style="html=1;shadow=0;dashed=0;shape=mxgraph.bootstrap.rrect;rSize=5;strokeColor=none;strokeWidth=1;fillColor=#FFBC26;fontColor=#FFFFFF;whiteSpace=wrap;align=center;verticalAlign=middle;spacingLeft=0;fontStyle=0;fontSize=16;spacing=5;" parent="fP9kgdAO-IO4lScnQeGk-1" vertex="1">
          <mxGeometry x="54" y="756" width="90" height="40" as="geometry" />
        </mxCell>
        <mxCell id="8a0C2EC5olk1_nAWN_Qg-50" value="Clear" style="html=1;shadow=0;dashed=0;shape=mxgraph.bootstrap.rrect;rSize=5;strokeColor=none;strokeWidth=1;fillColor=#343A40;fontColor=#ffffff;whiteSpace=wrap;align=center;verticalAlign=middle;spacingLeft=0;fontStyle=0;fontSize=19;spacing=5;" parent="fP9kgdAO-IO4lScnQeGk-1" vertex="1">
          <mxGeometry x="174" y="756" width="90" height="40" as="geometry" />
        </mxCell>
        <mxCell id="8a0C2EC5olk1_nAWN_Qg-71" value="" style="line;strokeWidth=2;html=1;rounded=0;shadow=0;labelBackgroundColor=none;comic=1;strokeColor=default;fontFamily=Verdana;fontSize=12;fontColor=default;fillColor=none;" parent="fP9kgdAO-IO4lScnQeGk-1" vertex="1">
          <mxGeometry x="336" y="318" width="210" height="34" as="geometry" />
        </mxCell>
        <mxCell id="8a0C2EC5olk1_nAWN_Qg-72" value="&lt;span&gt;&lt;font style=&quot;font-size: 14px;&quot;&gt;CATEGORY&lt;/font&gt;&lt;/span&gt;" style="text;html=1;strokeColor=none;fillColor=none;align=center;verticalAlign=middle;whiteSpace=wrap;rounded=0;fontSize=12;fontFamily=Verdana;fontColor=default;fontStyle=0" parent="fP9kgdAO-IO4lScnQeGk-1" vertex="1">
          <mxGeometry x="368" y="351" width="150" height="28" as="geometry" />
        </mxCell>
        <mxCell id="8a0C2EC5olk1_nAWN_Qg-73" value="&lt;span style=&quot;font-size: 14px;&quot;&gt;Name of the product listing&lt;/span&gt;" style="text;html=1;strokeColor=none;fillColor=none;align=center;verticalAlign=middle;whiteSpace=wrap;rounded=0;fontSize=12;fontFamily=Verdana;fontColor=default;fontStyle=0" parent="fP9kgdAO-IO4lScnQeGk-1" vertex="1">
          <mxGeometry x="367" y="384" width="152" height="30" as="geometry" />
        </mxCell>
        <mxCell id="8a0C2EC5olk1_nAWN_Qg-74" value="&lt;span style=&quot;font-size: 14px;&quot;&gt;$100&lt;/span&gt;" style="text;html=1;strokeColor=none;fillColor=none;align=center;verticalAlign=middle;whiteSpace=wrap;rounded=0;fontSize=12;fontFamily=Verdana;fontColor=default;fontStyle=1" parent="fP9kgdAO-IO4lScnQeGk-1" vertex="1">
          <mxGeometry x="348" y="425" width="190" height="30" as="geometry" />
        </mxCell>
        <mxCell id="8a0C2EC5olk1_nAWN_Qg-80" value="" style="verticalLabelPosition=bottom;shadow=0;dashed=0;align=center;html=1;verticalAlign=top;strokeWidth=1;shape=mxgraph.mockup.graphics.simpleIcon;strokeColor=#999999;" parent="fP9kgdAO-IO4lScnQeGk-1" vertex="1">
          <mxGeometry x="336" y="169" width="214" height="144" as="geometry" />
        </mxCell>
        <mxCell id="8a0C2EC5olk1_nAWN_Qg-81" value="" style="verticalLabelPosition=bottom;shadow=0;dashed=0;align=center;html=1;verticalAlign=top;strokeWidth=1;shape=mxgraph.mockup.graphics.simpleIcon;strokeColor=#999999;" parent="fP9kgdAO-IO4lScnQeGk-1" vertex="1">
          <mxGeometry x="588" y="174" width="214" height="144" as="geometry" />
        </mxCell>
        <mxCell id="8a0C2EC5olk1_nAWN_Qg-82" value="" style="verticalLabelPosition=bottom;shadow=0;dashed=0;align=center;html=1;verticalAlign=top;strokeWidth=1;shape=mxgraph.mockup.graphics.simpleIcon;strokeColor=#999999;" parent="fP9kgdAO-IO4lScnQeGk-1" vertex="1">
          <mxGeometry x="840" y="174" width="214" height="144" as="geometry" />
        </mxCell>
        <mxCell id="8a0C2EC5olk1_nAWN_Qg-84" value="" style="line;strokeWidth=2;html=1;rounded=0;shadow=0;labelBackgroundColor=none;comic=1;strokeColor=default;fontFamily=Verdana;fontSize=12;fontColor=default;fillColor=none;" parent="fP9kgdAO-IO4lScnQeGk-1" vertex="1">
          <mxGeometry x="588" y="318" width="210" height="34" as="geometry" />
        </mxCell>
        <mxCell id="8a0C2EC5olk1_nAWN_Qg-85" value="" style="line;strokeWidth=2;html=1;rounded=0;shadow=0;labelBackgroundColor=none;comic=1;strokeColor=default;fontFamily=Verdana;fontSize=12;fontColor=default;fillColor=none;" parent="fP9kgdAO-IO4lScnQeGk-1" vertex="1">
          <mxGeometry x="834" y="318" width="210" height="34" as="geometry" />
        </mxCell>
        <mxCell id="8a0C2EC5olk1_nAWN_Qg-89" value="&lt;span&gt;&lt;font style=&quot;font-size: 14px;&quot;&gt;CATEGORY&lt;/font&gt;&lt;/span&gt;" style="text;html=1;strokeColor=none;fillColor=none;align=center;verticalAlign=middle;whiteSpace=wrap;rounded=0;fontSize=12;fontFamily=Verdana;fontColor=default;fontStyle=0" parent="fP9kgdAO-IO4lScnQeGk-1" vertex="1">
          <mxGeometry x="606" y="352" width="150" height="28" as="geometry" />
        </mxCell>
        <mxCell id="8a0C2EC5olk1_nAWN_Qg-90" value="&lt;span&gt;&lt;font style=&quot;font-size: 14px;&quot;&gt;CATEGORY&lt;/font&gt;&lt;/span&gt;" style="text;html=1;strokeColor=none;fillColor=none;align=center;verticalAlign=middle;whiteSpace=wrap;rounded=0;fontSize=12;fontFamily=Verdana;fontColor=default;fontStyle=0" parent="fP9kgdAO-IO4lScnQeGk-1" vertex="1">
          <mxGeometry x="864" y="351" width="150" height="28" as="geometry" />
        </mxCell>
        <mxCell id="8a0C2EC5olk1_nAWN_Qg-91" value="&lt;span style=&quot;font-size: 14px;&quot;&gt;Name of the product listing&lt;/span&gt;" style="text;html=1;strokeColor=none;fillColor=none;align=center;verticalAlign=middle;whiteSpace=wrap;rounded=0;fontSize=12;fontFamily=Verdana;fontColor=default;fontStyle=0" parent="fP9kgdAO-IO4lScnQeGk-1" vertex="1">
          <mxGeometry x="608" y="384" width="152" height="30" as="geometry" />
        </mxCell>
        <mxCell id="8a0C2EC5olk1_nAWN_Qg-92" value="&lt;span style=&quot;font-size: 14px;&quot;&gt;Name of the product listing&lt;/span&gt;" style="text;html=1;strokeColor=none;fillColor=none;align=center;verticalAlign=middle;whiteSpace=wrap;rounded=0;fontSize=12;fontFamily=Verdana;fontColor=default;fontStyle=0" parent="fP9kgdAO-IO4lScnQeGk-1" vertex="1">
          <mxGeometry x="871" y="391" width="152" height="30" as="geometry" />
        </mxCell>
        <mxCell id="8a0C2EC5olk1_nAWN_Qg-93" value="&lt;span style=&quot;font-size: 14px;&quot;&gt;$100&lt;/span&gt;" style="text;html=1;strokeColor=none;fillColor=none;align=center;verticalAlign=middle;whiteSpace=wrap;rounded=0;fontSize=12;fontFamily=Verdana;fontColor=default;fontStyle=1" parent="fP9kgdAO-IO4lScnQeGk-1" vertex="1">
          <mxGeometry x="576" y="423" width="190" height="30" as="geometry" />
        </mxCell>
        <mxCell id="8a0C2EC5olk1_nAWN_Qg-94" value="&lt;span style=&quot;font-size: 14px;&quot;&gt;$100&lt;/span&gt;" style="text;html=1;strokeColor=none;fillColor=none;align=center;verticalAlign=middle;whiteSpace=wrap;rounded=0;fontSize=12;fontFamily=Verdana;fontColor=default;fontStyle=1" parent="fP9kgdAO-IO4lScnQeGk-1" vertex="1">
          <mxGeometry x="858.5" y="428" width="190" height="30" as="geometry" />
        </mxCell>
        <mxCell id="8a0C2EC5olk1_nAWN_Qg-95" value="" style="verticalLabelPosition=bottom;shadow=0;dashed=0;align=center;html=1;verticalAlign=top;strokeWidth=1;shape=mxgraph.mockup.graphics.simpleIcon;strokeColor=#999999;" parent="fP9kgdAO-IO4lScnQeGk-1" vertex="1">
          <mxGeometry x="336" y="474" width="214" height="144" as="geometry" />
        </mxCell>
        <mxCell id="8a0C2EC5olk1_nAWN_Qg-96" value="" style="line;strokeWidth=2;html=1;rounded=0;shadow=0;labelBackgroundColor=none;comic=1;strokeColor=default;fontFamily=Verdana;fontSize=12;fontColor=default;fillColor=none;" parent="fP9kgdAO-IO4lScnQeGk-1" vertex="1">
          <mxGeometry x="336" y="623" width="210" height="34" as="geometry" />
        </mxCell>
        <mxCell id="8a0C2EC5olk1_nAWN_Qg-97" value="&lt;span&gt;&lt;font style=&quot;font-size: 14px;&quot;&gt;CATEGORY&lt;/font&gt;&lt;/span&gt;" style="text;html=1;strokeColor=none;fillColor=none;align=center;verticalAlign=middle;whiteSpace=wrap;rounded=0;fontSize=12;fontFamily=Verdana;fontColor=default;fontStyle=0" parent="fP9kgdAO-IO4lScnQeGk-1" vertex="1">
          <mxGeometry x="368" y="656" width="150" height="28" as="geometry" />
        </mxCell>
        <mxCell id="8a0C2EC5olk1_nAWN_Qg-98" value="&lt;span style=&quot;font-size: 14px;&quot;&gt;Name of the product listing&lt;/span&gt;" style="text;html=1;strokeColor=none;fillColor=none;align=center;verticalAlign=middle;whiteSpace=wrap;rounded=0;fontSize=12;fontFamily=Verdana;fontColor=default;fontStyle=0" parent="fP9kgdAO-IO4lScnQeGk-1" vertex="1">
          <mxGeometry x="367" y="689" width="152" height="30" as="geometry" />
        </mxCell>
        <mxCell id="8a0C2EC5olk1_nAWN_Qg-99" value="&lt;span style=&quot;font-size: 14px;&quot;&gt;$100&lt;/span&gt;" style="text;html=1;strokeColor=none;fillColor=none;align=center;verticalAlign=middle;whiteSpace=wrap;rounded=0;fontSize=12;fontFamily=Verdana;fontColor=default;fontStyle=1" parent="fP9kgdAO-IO4lScnQeGk-1" vertex="1">
          <mxGeometry x="348" y="730" width="190" height="30" as="geometry" />
        </mxCell>
        <mxCell id="8a0C2EC5olk1_nAWN_Qg-100" value="&lt;span style=&quot;font-size: 14px;&quot;&gt;$100&lt;/span&gt;" style="text;html=1;strokeColor=none;fillColor=none;align=center;verticalAlign=middle;whiteSpace=wrap;rounded=0;fontSize=12;fontFamily=Verdana;fontColor=default;fontStyle=1" parent="fP9kgdAO-IO4lScnQeGk-1" vertex="1">
          <mxGeometry x="576" y="728" width="190" height="30" as="geometry" />
        </mxCell>
        <mxCell id="8a0C2EC5olk1_nAWN_Qg-101" value="&lt;span style=&quot;font-size: 14px;&quot;&gt;Name of the product listing&lt;/span&gt;" style="text;html=1;strokeColor=none;fillColor=none;align=center;verticalAlign=middle;whiteSpace=wrap;rounded=0;fontSize=12;fontFamily=Verdana;fontColor=default;fontStyle=0" parent="fP9kgdAO-IO4lScnQeGk-1" vertex="1">
          <mxGeometry x="608" y="689" width="152" height="30" as="geometry" />
        </mxCell>
        <mxCell id="8a0C2EC5olk1_nAWN_Qg-102" value="&lt;span&gt;&lt;font style=&quot;font-size: 14px;&quot;&gt;CATEGORY&lt;/font&gt;&lt;/span&gt;" style="text;html=1;strokeColor=none;fillColor=none;align=center;verticalAlign=middle;whiteSpace=wrap;rounded=0;fontSize=12;fontFamily=Verdana;fontColor=default;fontStyle=0" parent="fP9kgdAO-IO4lScnQeGk-1" vertex="1">
          <mxGeometry x="606" y="657" width="150" height="28" as="geometry" />
        </mxCell>
        <mxCell id="8a0C2EC5olk1_nAWN_Qg-103" value="" style="line;strokeWidth=2;html=1;rounded=0;shadow=0;labelBackgroundColor=none;comic=1;strokeColor=default;fontFamily=Verdana;fontSize=12;fontColor=default;fillColor=none;" parent="fP9kgdAO-IO4lScnQeGk-1" vertex="1">
          <mxGeometry x="588" y="623" width="210" height="34" as="geometry" />
        </mxCell>
        <mxCell id="8a0C2EC5olk1_nAWN_Qg-104" value="" style="verticalLabelPosition=bottom;shadow=0;dashed=0;align=center;html=1;verticalAlign=top;strokeWidth=1;shape=mxgraph.mockup.graphics.simpleIcon;strokeColor=#999999;" parent="fP9kgdAO-IO4lScnQeGk-1" vertex="1">
          <mxGeometry x="588" y="479" width="214" height="144" as="geometry" />
        </mxCell>
        <mxCell id="8a0C2EC5olk1_nAWN_Qg-105" value="" style="verticalLabelPosition=bottom;shadow=0;dashed=0;align=center;html=1;verticalAlign=top;strokeWidth=1;shape=mxgraph.mockup.graphics.simpleIcon;strokeColor=#999999;" parent="fP9kgdAO-IO4lScnQeGk-1" vertex="1">
          <mxGeometry x="840" y="479" width="214" height="144" as="geometry" />
        </mxCell>
        <mxCell id="8a0C2EC5olk1_nAWN_Qg-106" value="" style="line;strokeWidth=2;html=1;rounded=0;shadow=0;labelBackgroundColor=none;comic=1;strokeColor=default;fontFamily=Verdana;fontSize=12;fontColor=default;fillColor=none;" parent="fP9kgdAO-IO4lScnQeGk-1" vertex="1">
          <mxGeometry x="834" y="623" width="210" height="34" as="geometry" />
        </mxCell>
        <mxCell id="8a0C2EC5olk1_nAWN_Qg-107" value="&lt;span&gt;&lt;font style=&quot;font-size: 14px;&quot;&gt;CATEGORY&lt;/font&gt;&lt;/span&gt;" style="text;html=1;strokeColor=none;fillColor=none;align=center;verticalAlign=middle;whiteSpace=wrap;rounded=0;fontSize=12;fontFamily=Verdana;fontColor=default;fontStyle=0" parent="fP9kgdAO-IO4lScnQeGk-1" vertex="1">
          <mxGeometry x="864" y="656" width="150" height="28" as="geometry" />
        </mxCell>
        <mxCell id="8a0C2EC5olk1_nAWN_Qg-108" value="&lt;span style=&quot;font-size: 14px;&quot;&gt;Name of the product listing&lt;/span&gt;" style="text;html=1;strokeColor=none;fillColor=none;align=center;verticalAlign=middle;whiteSpace=wrap;rounded=0;fontSize=12;fontFamily=Verdana;fontColor=default;fontStyle=0" parent="fP9kgdAO-IO4lScnQeGk-1" vertex="1">
          <mxGeometry x="871" y="696" width="152" height="30" as="geometry" />
        </mxCell>
        <mxCell id="8a0C2EC5olk1_nAWN_Qg-109" value="&lt;span style=&quot;font-size: 14px;&quot;&gt;$100&lt;/span&gt;" style="text;html=1;strokeColor=none;fillColor=none;align=center;verticalAlign=middle;whiteSpace=wrap;rounded=0;fontSize=12;fontFamily=Verdana;fontColor=default;fontStyle=1" parent="fP9kgdAO-IO4lScnQeGk-1" vertex="1">
          <mxGeometry x="858.5" y="733" width="190" height="30" as="geometry" />
        </mxCell>
        <mxCell id="8a0C2EC5olk1_nAWN_Qg-110" value="" style="verticalLabelPosition=bottom;shadow=0;dashed=0;align=center;html=1;verticalAlign=top;strokeWidth=1;shape=mxgraph.mockup.graphics.simpleIcon;strokeColor=#999999;" parent="fP9kgdAO-IO4lScnQeGk-1" vertex="1">
          <mxGeometry x="334" y="748" width="214" height="144" as="geometry" />
        </mxCell>
        <mxCell id="8a0C2EC5olk1_nAWN_Qg-111" value="" style="verticalLabelPosition=bottom;shadow=0;dashed=0;align=center;html=1;verticalAlign=top;strokeWidth=1;shape=mxgraph.mockup.graphics.simpleIcon;strokeColor=#999999;" parent="fP9kgdAO-IO4lScnQeGk-1" vertex="1">
          <mxGeometry x="586" y="753" width="214" height="144" as="geometry" />
        </mxCell>
        <mxCell id="8a0C2EC5olk1_nAWN_Qg-112" value="" style="verticalLabelPosition=bottom;shadow=0;dashed=0;align=center;html=1;verticalAlign=top;strokeWidth=1;shape=mxgraph.mockup.graphics.simpleIcon;strokeColor=#999999;" parent="fP9kgdAO-IO4lScnQeGk-1" vertex="1">
          <mxGeometry x="838" y="753" width="214" height="144" as="geometry" />
        </mxCell>
        <mxCell id="8a0C2EC5olk1_nAWN_Qg-113" value="" style="line;strokeWidth=2;html=1;rounded=0;shadow=0;labelBackgroundColor=none;comic=1;strokeColor=default;fontFamily=Verdana;fontSize=12;fontColor=default;fillColor=none;" parent="fP9kgdAO-IO4lScnQeGk-1" vertex="1">
          <mxGeometry x="832" y="897" width="210" height="34" as="geometry" />
        </mxCell>
        <mxCell id="8a0C2EC5olk1_nAWN_Qg-114" value="" style="line;strokeWidth=2;html=1;rounded=0;shadow=0;labelBackgroundColor=none;comic=1;strokeColor=default;fontFamily=Verdana;fontSize=12;fontColor=default;fillColor=none;" parent="fP9kgdAO-IO4lScnQeGk-1" vertex="1">
          <mxGeometry x="586" y="897" width="210" height="34" as="geometry" />
        </mxCell>
        <mxCell id="8a0C2EC5olk1_nAWN_Qg-115" value="" style="line;strokeWidth=2;html=1;rounded=0;shadow=0;labelBackgroundColor=none;comic=1;strokeColor=default;fontFamily=Verdana;fontSize=12;fontColor=default;fillColor=none;" parent="fP9kgdAO-IO4lScnQeGk-1" vertex="1">
          <mxGeometry x="334" y="897" width="210" height="34" as="geometry" />
        </mxCell>
        <mxCell id="8a0C2EC5olk1_nAWN_Qg-116" value="&lt;span&gt;&lt;font style=&quot;font-size: 14px;&quot;&gt;CATEGORY&lt;/font&gt;&lt;/span&gt;" style="text;html=1;strokeColor=none;fillColor=none;align=center;verticalAlign=middle;whiteSpace=wrap;rounded=0;fontSize=12;fontFamily=Verdana;fontColor=default;fontStyle=0" parent="fP9kgdAO-IO4lScnQeGk-1" vertex="1">
          <mxGeometry x="366" y="930" width="150" height="28" as="geometry" />
        </mxCell>
        <mxCell id="8a0C2EC5olk1_nAWN_Qg-117" value="&lt;span style=&quot;font-size: 14px;&quot;&gt;Name of the product listing&lt;/span&gt;" style="text;html=1;strokeColor=none;fillColor=none;align=center;verticalAlign=middle;whiteSpace=wrap;rounded=0;fontSize=12;fontFamily=Verdana;fontColor=default;fontStyle=0" parent="fP9kgdAO-IO4lScnQeGk-1" vertex="1">
          <mxGeometry x="365" y="963" width="152" height="30" as="geometry" />
        </mxCell>
        <mxCell id="8a0C2EC5olk1_nAWN_Qg-118" value="&lt;span style=&quot;font-size: 14px;&quot;&gt;$100&lt;/span&gt;" style="text;html=1;strokeColor=none;fillColor=none;align=center;verticalAlign=middle;whiteSpace=wrap;rounded=0;fontSize=12;fontFamily=Verdana;fontColor=default;fontStyle=1" parent="fP9kgdAO-IO4lScnQeGk-1" vertex="1">
          <mxGeometry x="346" y="1004" width="190" height="30" as="geometry" />
        </mxCell>
        <mxCell id="8a0C2EC5olk1_nAWN_Qg-119" value="&lt;span&gt;&lt;font style=&quot;font-size: 14px;&quot;&gt;CATEGORY&lt;/font&gt;&lt;/span&gt;" style="text;html=1;strokeColor=none;fillColor=none;align=center;verticalAlign=middle;whiteSpace=wrap;rounded=0;fontSize=12;fontFamily=Verdana;fontColor=default;fontStyle=0" parent="fP9kgdAO-IO4lScnQeGk-1" vertex="1">
          <mxGeometry x="604" y="931" width="150" height="28" as="geometry" />
        </mxCell>
        <mxCell id="8a0C2EC5olk1_nAWN_Qg-120" value="&lt;span style=&quot;font-size: 14px;&quot;&gt;Name of the product listing&lt;/span&gt;" style="text;html=1;strokeColor=none;fillColor=none;align=center;verticalAlign=middle;whiteSpace=wrap;rounded=0;fontSize=12;fontFamily=Verdana;fontColor=default;fontStyle=0" parent="fP9kgdAO-IO4lScnQeGk-1" vertex="1">
          <mxGeometry x="606" y="963" width="152" height="30" as="geometry" />
        </mxCell>
        <mxCell id="8a0C2EC5olk1_nAWN_Qg-121" value="&lt;span style=&quot;font-size: 14px;&quot;&gt;$100&lt;/span&gt;" style="text;html=1;strokeColor=none;fillColor=none;align=center;verticalAlign=middle;whiteSpace=wrap;rounded=0;fontSize=12;fontFamily=Verdana;fontColor=default;fontStyle=1" parent="fP9kgdAO-IO4lScnQeGk-1" vertex="1">
          <mxGeometry x="574" y="1002" width="190" height="30" as="geometry" />
        </mxCell>
        <mxCell id="8a0C2EC5olk1_nAWN_Qg-122" value="&lt;span&gt;&lt;font style=&quot;font-size: 14px;&quot;&gt;CATEGORY&lt;/font&gt;&lt;/span&gt;" style="text;html=1;strokeColor=none;fillColor=none;align=center;verticalAlign=middle;whiteSpace=wrap;rounded=0;fontSize=12;fontFamily=Verdana;fontColor=default;fontStyle=0" parent="fP9kgdAO-IO4lScnQeGk-1" vertex="1">
          <mxGeometry x="862" y="930" width="150" height="28" as="geometry" />
        </mxCell>
        <mxCell id="8a0C2EC5olk1_nAWN_Qg-123" value="&lt;span style=&quot;font-size: 14px;&quot;&gt;Name of the product listing&lt;/span&gt;" style="text;html=1;strokeColor=none;fillColor=none;align=center;verticalAlign=middle;whiteSpace=wrap;rounded=0;fontSize=12;fontFamily=Verdana;fontColor=default;fontStyle=0" parent="fP9kgdAO-IO4lScnQeGk-1" vertex="1">
          <mxGeometry x="869" y="970" width="152" height="30" as="geometry" />
        </mxCell>
        <mxCell id="8a0C2EC5olk1_nAWN_Qg-124" value="&lt;span style=&quot;font-size: 14px;&quot;&gt;$100&lt;/span&gt;" style="text;html=1;strokeColor=none;fillColor=none;align=center;verticalAlign=middle;whiteSpace=wrap;rounded=0;fontSize=12;fontFamily=Verdana;fontColor=default;fontStyle=1" parent="fP9kgdAO-IO4lScnQeGk-1" vertex="1">
          <mxGeometry x="856.5" y="1007" width="190" height="30" as="geometry" />
        </mxCell>
        <mxCell id="8a0C2EC5olk1_nAWN_Qg-125" value="" style="html=1;shadow=0;dashed=0;shape=mxgraph.bootstrap.rrect;rSize=5;strokeColor=#DEE2E6;html=1;whiteSpace=wrap;fillColor=#ffffff;fontColor=#0085FC;fontSize=30;" parent="fP9kgdAO-IO4lScnQeGk-1" vertex="1">
          <mxGeometry x="486" y="1128" width="220" height="30" as="geometry" />
        </mxCell>
        <mxCell id="8a0C2EC5olk1_nAWN_Qg-126" value="Previous" style="strokeColor=inherit;fillColor=inherit;gradientColor=inherit;html=1;shadow=0;dashed=0;shape=mxgraph.bootstrap.leftButton;rSize=5;perimeter=none;whiteSpace=wrap;resizeHeight=1;fontColor=#6C767D;fontSize=14;" parent="8a0C2EC5olk1_nAWN_Qg-125" vertex="1">
          <mxGeometry width="70" height="30" relative="1" as="geometry" />
        </mxCell>
        <mxCell id="8a0C2EC5olk1_nAWN_Qg-127" value="1" style="strokeColor=inherit;fillColor=inherit;gradientColor=inherit;fontColor=inherit;html=1;shadow=0;dashed=0;perimeter=none;whiteSpace=wrap;resizeHeight=1;fontSize=14;" parent="8a0C2EC5olk1_nAWN_Qg-125" vertex="1">
          <mxGeometry width="30" height="30" relative="1" as="geometry">
            <mxPoint x="70" as="offset" />
          </mxGeometry>
        </mxCell>
        <mxCell id="8a0C2EC5olk1_nAWN_Qg-128" value="2" style="html=1;shadow=0;dashed=0;perimeter=none;whiteSpace=wrap;resizeHeight=1;fillColor=#0085FC;strokeColor=none;fontColor=#ffffff;fontSize=14;" parent="8a0C2EC5olk1_nAWN_Qg-125" vertex="1">
          <mxGeometry width="30" height="30" relative="1" as="geometry">
            <mxPoint x="100" as="offset" />
          </mxGeometry>
        </mxCell>
        <mxCell id="8a0C2EC5olk1_nAWN_Qg-129" value="3" style="strokeColor=inherit;fillColor=inherit;gradientColor=inherit;fontColor=inherit;html=1;shadow=0;dashed=0;perimeter=none;whiteSpace=wrap;resizeHeight=1;fontSize=14;" parent="8a0C2EC5olk1_nAWN_Qg-125" vertex="1">
          <mxGeometry width="30" height="30" relative="1" as="geometry">
            <mxPoint x="130" as="offset" />
          </mxGeometry>
        </mxCell>
        <mxCell id="8a0C2EC5olk1_nAWN_Qg-130" value="Next" style="strokeColor=inherit;fillColor=inherit;gradientColor=inherit;fontColor=inherit;html=1;shadow=0;dashed=0;shape=mxgraph.bootstrap.rightButton;rSize=5;perimeter=none;whiteSpace=wrap;resizeHeight=1;fontSize=14;" parent="8a0C2EC5olk1_nAWN_Qg-125" vertex="1">
          <mxGeometry x="1" width="60" height="30" relative="1" as="geometry">
            <mxPoint x="-60" as="offset" />
          </mxGeometry>
        </mxCell>
        <mxCell id="lNrOlGvvFkIxW6T0EzCc-0" value="" style="whiteSpace=wrap;html=1;rounded=0;shadow=0;strokeWidth=1;fillColor=none;align=center;comic=1;container=0;verticalAlign=middle;" parent="fP9kgdAO-IO4lScnQeGk-1" vertex="1">
          <mxGeometry x="20" y="1404" width="1060" height="72" as="geometry" />
        </mxCell>
        <mxCell id="lNrOlGvvFkIxW6T0EzCc-1" value="Connect with us!" style="text;strokeColor=none;fillColor=none;html=1;fontSize=24;fontStyle=1;verticalAlign=middle;align=left;" parent="fP9kgdAO-IO4lScnQeGk-1" vertex="1">
          <mxGeometry x="30" y="1419" width="246" height="40" as="geometry" />
        </mxCell>
        <mxCell id="lNrOlGvvFkIxW6T0EzCc-2" value="" style="shape=image;html=1;verticalAlign=top;verticalLabelPosition=bottom;labelBackgroundColor=#ffffff;imageAspect=0;aspect=fixed;image=https://cdn2.iconfinder.com/data/icons/social-media-2285/512/1_Facebook_colored_svg_copy-128.png" parent="fP9kgdAO-IO4lScnQeGk-1" vertex="1">
          <mxGeometry x="1018.5" y="1424" width="30" height="30" as="geometry" />
        </mxCell>
        <mxCell id="lNrOlGvvFkIxW6T0EzCc-3" value="" style="shape=image;html=1;verticalAlign=top;verticalLabelPosition=bottom;labelBackgroundColor=#ffffff;imageAspect=0;aspect=fixed;image=https://cdn2.iconfinder.com/data/icons/social-media-2285/512/1_Facebook_colored_svg_copy-128.png" parent="fP9kgdAO-IO4lScnQeGk-1" vertex="1">
          <mxGeometry x="921.5" y="1424" width="30" height="30" as="geometry" />
        </mxCell>
        <mxCell id="lNrOlGvvFkIxW6T0EzCc-4" value="" style="shape=image;html=1;verticalAlign=top;verticalLabelPosition=bottom;labelBackgroundColor=#ffffff;imageAspect=0;aspect=fixed;image=https://cdn2.iconfinder.com/data/icons/social-media-2285/512/1_Facebook_colored_svg_copy-128.png" parent="fP9kgdAO-IO4lScnQeGk-1" vertex="1">
          <mxGeometry x="864" y="1424" width="30" height="30" as="geometry" />
        </mxCell>
        <mxCell id="lNrOlGvvFkIxW6T0EzCc-5" value="" style="shape=image;html=1;verticalAlign=top;verticalLabelPosition=bottom;labelBackgroundColor=#ffffff;imageAspect=0;aspect=fixed;image=https://cdn2.iconfinder.com/data/icons/social-media-2285/512/1_Facebook_colored_svg_copy-128.png" parent="fP9kgdAO-IO4lScnQeGk-1" vertex="1">
          <mxGeometry x="972" y="1425" width="30" height="30" as="geometry" />
        </mxCell>
        <mxCell id="paVfhwgC5jFQODl2JdlB-0" value="Currency" style="text;html=1;points=[];align=right;verticalAlign=top;spacingTop=-4;fontSize=14;fontFamily=Verdana" parent="fP9kgdAO-IO4lScnQeGk-1" vertex="1">
          <mxGeometry x="784" y="91" width="80" height="20" as="geometry" />
        </mxCell>
        <mxCell id="paVfhwgC5jFQODl2JdlB-1" value="Cart" style="text;html=1;points=[];align=right;verticalAlign=top;spacingTop=-4;fontSize=14;fontFamily=Verdana" parent="fP9kgdAO-IO4lScnQeGk-1" vertex="1">
          <mxGeometry x="832" y="91" width="80" height="20" as="geometry" />
        </mxCell>
        <mxCell id="paVfhwgC5jFQODl2JdlB-2" value="Wishlist" style="text;html=1;points=[];align=right;verticalAlign=top;spacingTop=-4;fontSize=14;fontFamily=Verdana" parent="fP9kgdAO-IO4lScnQeGk-1" vertex="1">
          <mxGeometry x="903" y="91" width="80" height="20" as="geometry" />
        </mxCell>
        <mxCell id="paVfhwgC5jFQODl2JdlB-3" value="Profile" style="text;html=1;points=[];align=right;verticalAlign=top;spacingTop=-4;fontSize=14;fontFamily=Verdana" parent="fP9kgdAO-IO4lScnQeGk-1" vertex="1">
          <mxGeometry x="974" y="91" width="80" height="20" as="geometry" />
        </mxCell>
      </root>
    </mxGraphModel>
  </diagram>
  <diagram name="Product Detail" id="j1Z2aWZo7Lb2JGqFZYVQ">
    <mxGraphModel dx="1036" dy="1399" grid="1" gridSize="6" guides="1" tooltips="1" connect="1" arrows="1" fold="1" page="1" pageScale="1" pageWidth="1100" pageHeight="850" background="#ffffff" math="0" shadow="0">
      <root>
        <mxCell id="EA4IM6t560_-PVWmLkZ9-0" />
        <mxCell id="EA4IM6t560_-PVWmLkZ9-1" parent="EA4IM6t560_-PVWmLkZ9-0" />
        <mxCell id="EA4IM6t560_-PVWmLkZ9-2" value="" style="whiteSpace=wrap;html=1;rounded=0;shadow=0;labelBackgroundColor=none;strokeColor=#FFFFFF;strokeWidth=1;fillColor=#182E3E;fontFamily=Verdana;fontSize=12;fontColor=#FFFFFF;align=left;comic=1;" parent="EA4IM6t560_-PVWmLkZ9-1" vertex="1">
          <mxGeometry x="12" y="-30" width="1060" height="2106" as="geometry" />
        </mxCell>
        <mxCell id="EA4IM6t560_-PVWmLkZ9-3" value="" style="line;strokeWidth=1;html=1;rounded=0;shadow=0;labelBackgroundColor=none;fillColor=none;fontFamily=Verdana;fontSize=14;fontColor=#FFFFFF;align=center;comic=1;strokeColor=#FFFFFF;" parent="EA4IM6t560_-PVWmLkZ9-1" vertex="1">
          <mxGeometry x="20" y="140" width="1060" height="10" as="geometry" />
        </mxCell>
        <mxCell id="EA4IM6t560_-PVWmLkZ9-4" value="" style="shape=singleArrow;direction=west;whiteSpace=wrap;html=1;rounded=0;labelBackgroundColor=none;fillColor=#182E3E;strokeColor=#FFFFFF;fontColor=#FFFFFF;" parent="EA4IM6t560_-PVWmLkZ9-1" vertex="1">
          <mxGeometry x="40" y="25" width="50" height="40" as="geometry" />
        </mxCell>
        <mxCell id="EA4IM6t560_-PVWmLkZ9-5" value="" style="group;rounded=0;labelBackgroundColor=none;fontColor=#FFFFFF;" parent="EA4IM6t560_-PVWmLkZ9-1" vertex="1" connectable="0">
          <mxGeometry x="20" y="19.999999999999996" width="1060" height="111" as="geometry" />
        </mxCell>
        <mxCell id="EA4IM6t560_-PVWmLkZ9-6" value="LOGO" style="whiteSpace=wrap;html=1;rounded=0;shadow=0;labelBackgroundColor=none;strokeWidth=1;fontFamily=Verdana;fontSize=28;align=center;comic=1;fillColor=#182E3E;strokeColor=#FFFFFF;fontColor=#FFFFFF;" parent="EA4IM6t560_-PVWmLkZ9-5" vertex="1">
          <mxGeometry x="20" y="61" width="130" height="50" as="geometry" />
        </mxCell>
        <mxCell id="EA4IM6t560_-PVWmLkZ9-7" value="Search" style="strokeWidth=1;shadow=0;dashed=0;align=center;html=1;shape=mxgraph.mockup.forms.searchBox;strokeColor=#FFFFFF;mainText=;strokeColor2=#008cff;fontColor=#FFFFFF;fontSize=17;align=left;spacingLeft=3;rounded=0;labelBackgroundColor=none;comic=1;fillColor=#182E3E;" parent="EA4IM6t560_-PVWmLkZ9-5" vertex="1">
          <mxGeometry x="370" y="71" width="220" height="30" as="geometry" />
        </mxCell>
        <mxCell id="EA4IM6t560_-PVWmLkZ9-8" value="Shop Now" style="text;html=1;points=[];align=left;verticalAlign=top;spacingTop=-4;fontSize=14;fontFamily=Verdana;rounded=0;labelBackgroundColor=none;fontColor=#FFFFFF;" parent="EA4IM6t560_-PVWmLkZ9-5" vertex="1">
          <mxGeometry x="180" y="76" width="80" height="20" as="geometry" />
        </mxCell>
        <mxCell id="EA4IM6t560_-PVWmLkZ9-9" value="" style="group;rounded=0;labelBackgroundColor=none;fontColor=#FFFFFF;" parent="EA4IM6t560_-PVWmLkZ9-5" vertex="1" connectable="0">
          <mxGeometry width="1050" height="50" as="geometry" />
        </mxCell>
        <mxCell id="EA4IM6t560_-PVWmLkZ9-10" value="" style="whiteSpace=wrap;html=1;rounded=0;shadow=0;labelBackgroundColor=none;strokeWidth=1;fillColor=none;fontFamily=Verdana;fontSize=12;align=center;comic=1;strokeColor=#FFFFFF;fontColor=#FFFFFF;" parent="EA4IM6t560_-PVWmLkZ9-9" vertex="1">
          <mxGeometry y="3.552713678800501e-15" width="1050" height="50" as="geometry" />
        </mxCell>
        <mxCell id="EA4IM6t560_-PVWmLkZ9-11" value="Free Shipping on all items" style="text;html=1;points=[];align=center;verticalAlign=top;spacingTop=-4;fontSize=14;fontFamily=Verdana;rounded=0;labelBackgroundColor=none;fontColor=#FFFFFF;" parent="EA4IM6t560_-PVWmLkZ9-9" vertex="1">
          <mxGeometry x="381.3679245283019" y="15.000000000000004" width="287.2641509433962" height="20" as="geometry" />
        </mxCell>
        <mxCell id="EA4IM6t560_-PVWmLkZ9-12" value="" style="shape=singleArrow;direction=west;whiteSpace=wrap;html=1;rotation=-180;rounded=0;labelBackgroundColor=none;fillColor=#182E3E;strokeColor=#FFFFFF;fontColor=#FFFFFF;" parent="EA4IM6t560_-PVWmLkZ9-9" vertex="1">
          <mxGeometry x="983.6320754716982" y="3.552713678800501e-15" width="49.528301886792455" height="40" as="geometry" />
        </mxCell>
        <mxCell id="EA4IM6t560_-PVWmLkZ9-33" value="© 2023 Copyright: DesiWear" style="text;html=1;strokeColor=none;fillColor=none;align=left;verticalAlign=middle;whiteSpace=wrap;rounded=0;fontSize=13;fontFamily=Verdana;fontColor=#FFFFFF;labelBackgroundColor=none;" parent="EA4IM6t560_-PVWmLkZ9-1" vertex="1">
          <mxGeometry x="427" y="2010" width="230" height="30" as="geometry" />
        </mxCell>
        <mxCell id="EA4IM6t560_-PVWmLkZ9-60" value="" style="verticalLabelPosition=bottom;shadow=0;dashed=0;align=center;html=1;verticalAlign=top;strokeWidth=1;shape=mxgraph.mockup.graphics.simpleIcon;strokeColor=#FFFFFF;rounded=0;labelBackgroundColor=none;fillColor=#182E3E;fontColor=#FFFFFF;" parent="EA4IM6t560_-PVWmLkZ9-1" vertex="1">
          <mxGeometry x="40" y="174" width="512" height="618" as="geometry" />
        </mxCell>
        <mxCell id="SUSz-7Tz9FGhwHl_olz5-1" value="" style="verticalLabelPosition=bottom;shadow=0;dashed=0;align=center;html=1;verticalAlign=top;strokeWidth=1;shape=mxgraph.mockup.graphics.simpleIcon;strokeColor=#FFFFFF;rounded=0;labelBackgroundColor=none;fillColor=#182E3E;fontColor=#FFFFFF;" parent="EA4IM6t560_-PVWmLkZ9-1" vertex="1">
          <mxGeometry x="192.25" y="816" width="59" height="54" as="geometry" />
        </mxCell>
        <mxCell id="SUSz-7Tz9FGhwHl_olz5-2" value="" style="verticalLabelPosition=bottom;shadow=0;dashed=0;align=center;html=1;verticalAlign=top;strokeWidth=1;shape=mxgraph.mockup.graphics.simpleIcon;strokeColor=#FFFFFF;rounded=0;labelBackgroundColor=none;fillColor=#182E3E;fontColor=#FFFFFF;" parent="EA4IM6t560_-PVWmLkZ9-1" vertex="1">
          <mxGeometry x="117" y="816" width="59" height="54" as="geometry" />
        </mxCell>
        <mxCell id="SUSz-7Tz9FGhwHl_olz5-3" value="" style="verticalLabelPosition=bottom;shadow=0;dashed=0;align=center;html=1;verticalAlign=top;strokeWidth=1;shape=mxgraph.mockup.graphics.simpleIcon;strokeColor=#FFFFFF;rounded=0;labelBackgroundColor=none;fillColor=#182E3E;fontColor=#FFFFFF;" parent="EA4IM6t560_-PVWmLkZ9-1" vertex="1">
          <mxGeometry x="267" y="816" width="59" height="54" as="geometry" />
        </mxCell>
        <mxCell id="SUSz-7Tz9FGhwHl_olz5-4" value="" style="verticalLabelPosition=bottom;shadow=0;dashed=0;align=center;html=1;verticalAlign=top;strokeWidth=1;shape=mxgraph.mockup.graphics.simpleIcon;strokeColor=#FFFFFF;rounded=0;labelBackgroundColor=none;fillColor=#182E3E;fontColor=#FFFFFF;" parent="EA4IM6t560_-PVWmLkZ9-1" vertex="1">
          <mxGeometry x="422" y="816" width="59" height="54" as="geometry" />
        </mxCell>
        <mxCell id="SUSz-7Tz9FGhwHl_olz5-5" value="" style="verticalLabelPosition=bottom;shadow=0;dashed=0;align=center;html=1;verticalAlign=top;strokeWidth=1;shape=mxgraph.mockup.graphics.simpleIcon;strokeColor=#FFFFFF;rounded=0;labelBackgroundColor=none;fillColor=#182E3E;fontColor=#FFFFFF;" parent="EA4IM6t560_-PVWmLkZ9-1" vertex="1">
          <mxGeometry x="345" y="816" width="59" height="54" as="geometry" />
        </mxCell>
        <mxCell id="SUSz-7Tz9FGhwHl_olz5-6" value="Product Name" style="text;strokeColor=none;fillColor=none;html=1;fontSize=24;fontStyle=1;verticalAlign=middle;align=left;rounded=0;labelBackgroundColor=none;fontColor=#FFFFFF;" parent="EA4IM6t560_-PVWmLkZ9-1" vertex="1">
          <mxGeometry x="618.5" y="174" width="372" height="40" as="geometry" />
        </mxCell>
        <mxCell id="SUSz-7Tz9FGhwHl_olz5-7" value="" style="verticalLabelPosition=bottom;shadow=0;dashed=0;align=center;html=1;verticalAlign=top;strokeWidth=1;shape=mxgraph.mockup.misc.rating;strokeColor=#FFFFFF;fillColor=#182E3E;emptyFillColor=#ffffff;grade=4;ratingScale=5;ratingStyle=star;fontSize=8;rounded=0;labelBackgroundColor=none;fontColor=#FFFFFF;" parent="EA4IM6t560_-PVWmLkZ9-1" vertex="1">
          <mxGeometry x="618.5" y="216" width="155.5" height="30" as="geometry" />
        </mxCell>
        <mxCell id="SUSz-7Tz9FGhwHl_olz5-8" value="4.5 34,00 orders in stock" style="text;html=1;strokeColor=none;fillColor=none;align=center;verticalAlign=middle;whiteSpace=wrap;rounded=0;fontSize=17;labelBackgroundColor=none;fontColor=#FFFFFF;" parent="EA4IM6t560_-PVWmLkZ9-1" vertex="1">
          <mxGeometry x="834" y="214" width="216" height="30" as="geometry" />
        </mxCell>
        <mxCell id="SUSz-7Tz9FGhwHl_olz5-9" value="$65.90 /per Item" style="text;html=1;strokeColor=none;fillColor=none;align=left;verticalAlign=middle;whiteSpace=wrap;rounded=0;fontSize=20;labelBackgroundColor=none;fontColor=#FFFFFF;" parent="EA4IM6t560_-PVWmLkZ9-1" vertex="1">
          <mxGeometry x="624" y="264" width="216" height="30" as="geometry" />
        </mxCell>
        <mxCell id="SUSz-7Tz9FGhwHl_olz5-11" value="Lorem Ipsum is simply dummy text of the printing and typesetting industry. Lorem Ipsum has been the industry&#39;s standard dummy text ever since the 1500s, when an unknown printer took a galley of type and scrambled it to make a type specimen book. It has survived not only five centuries, but also the leap into electronic typesetting, remaining essentially unchanged. It was popularised in the 1960s with the release of Letraset sheets containing Lorem Ipsum passages, and more recently with desktop publishing software like Aldus PageMaker including versions of Lorem Ipsum" style="text;html=1;strokeColor=none;fillColor=none;align=left;verticalAlign=middle;whiteSpace=wrap;rounded=0;fontSize=19;labelPosition=center;verticalLabelPosition=middle;labelBackgroundColor=none;fontColor=#FFFFFF;" parent="EA4IM6t560_-PVWmLkZ9-1" vertex="1">
          <mxGeometry x="624" y="438" width="419.5" height="30" as="geometry" />
        </mxCell>
        <mxCell id="SUSz-7Tz9FGhwHl_olz5-12" value="Category" style="text;strokeColor=none;fillColor=none;html=1;fontSize=24;fontStyle=1;verticalAlign=middle;align=left;rounded=0;labelBackgroundColor=none;fontColor=#FFFFFF;" parent="EA4IM6t560_-PVWmLkZ9-1" vertex="1">
          <mxGeometry x="618.5" y="624" width="143.5" height="40" as="geometry" />
        </mxCell>
        <mxCell id="SUSz-7Tz9FGhwHl_olz5-13" value="Color" style="text;strokeColor=none;fillColor=none;html=1;fontSize=24;fontStyle=1;verticalAlign=middle;align=left;rounded=0;labelBackgroundColor=none;fontColor=#FFFFFF;" parent="EA4IM6t560_-PVWmLkZ9-1" vertex="1">
          <mxGeometry x="624" y="672" width="143.5" height="40" as="geometry" />
        </mxCell>
        <mxCell id="SUSz-7Tz9FGhwHl_olz5-14" value="Meterial" style="text;strokeColor=none;fillColor=none;html=1;fontSize=24;fontStyle=1;verticalAlign=middle;align=left;rounded=0;labelBackgroundColor=none;fontColor=#FFFFFF;" parent="EA4IM6t560_-PVWmLkZ9-1" vertex="1">
          <mxGeometry x="624.5" y="720" width="143.5" height="40" as="geometry" />
        </mxCell>
        <mxCell id="SUSz-7Tz9FGhwHl_olz5-15" value="Brand" style="text;strokeColor=none;fillColor=none;html=1;fontSize=24;fontStyle=1;verticalAlign=middle;align=left;rounded=0;labelBackgroundColor=none;fontColor=#FFFFFF;" parent="EA4IM6t560_-PVWmLkZ9-1" vertex="1">
          <mxGeometry x="618.5" y="768" width="143.5" height="40" as="geometry" />
        </mxCell>
        <mxCell id="SUSz-7Tz9FGhwHl_olz5-16" value="Accessories" style="text;html=1;strokeColor=none;fillColor=none;align=left;verticalAlign=middle;whiteSpace=wrap;rounded=0;fontSize=19;labelBackgroundColor=none;fontColor=#FFFFFF;" parent="EA4IM6t560_-PVWmLkZ9-1" vertex="1">
          <mxGeometry x="816.75" y="629" width="149.25" height="30" as="geometry" />
        </mxCell>
        <mxCell id="SUSz-7Tz9FGhwHl_olz5-17" value="Color" style="text;html=1;strokeColor=none;fillColor=none;align=left;verticalAlign=middle;whiteSpace=wrap;rounded=0;fontSize=19;labelBackgroundColor=none;fontColor=#FFFFFF;" parent="EA4IM6t560_-PVWmLkZ9-1" vertex="1">
          <mxGeometry x="816.75" y="677" width="149.25" height="30" as="geometry" />
        </mxCell>
        <mxCell id="SUSz-7Tz9FGhwHl_olz5-18" value="Material" style="text;html=1;strokeColor=none;fillColor=none;align=left;verticalAlign=middle;whiteSpace=wrap;rounded=0;fontSize=19;labelBackgroundColor=none;fontColor=#FFFFFF;" parent="EA4IM6t560_-PVWmLkZ9-1" vertex="1">
          <mxGeometry x="820" y="725" width="149.25" height="30" as="geometry" />
        </mxCell>
        <mxCell id="SUSz-7Tz9FGhwHl_olz5-19" value="Product Brand" style="text;html=1;strokeColor=none;fillColor=none;align=left;verticalAlign=middle;whiteSpace=wrap;rounded=0;fontSize=19;labelBackgroundColor=none;fontColor=#FFFFFF;" parent="EA4IM6t560_-PVWmLkZ9-1" vertex="1">
          <mxGeometry x="816.75" y="773" width="149.25" height="30" as="geometry" />
        </mxCell>
        <mxCell id="SUSz-7Tz9FGhwHl_olz5-20" value="" style="line;strokeWidth=2;html=1;rounded=0;shadow=0;labelBackgroundColor=none;comic=1;strokeColor=#FFFFFF;fontFamily=Verdana;fontSize=12;fontColor=#FFFFFF;fillColor=none;" parent="EA4IM6t560_-PVWmLkZ9-1" vertex="1">
          <mxGeometry x="618.5" y="816" width="407.5" height="24" as="geometry" />
        </mxCell>
        <mxCell id="xwwDJxGiXl35aFYfDn_k-0" value="Size" style="fillColor=none;strokeColor=none;align=left;fontSize=18;rounded=0;labelBackgroundColor=none;fontColor=#FFFFFF;" parent="EA4IM6t560_-PVWmLkZ9-1" vertex="1">
          <mxGeometry x="612" y="847" width="126" height="40" as="geometry" />
        </mxCell>
        <mxCell id="xwwDJxGiXl35aFYfDn_k-1" value="Choose" style="html=1;shadow=0;dashed=0;shape=mxgraph.bootstrap.rrect;rSize=5;fillColor=none;strokeColor=#FFFFFF;align=left;spacing=15;fontSize=19;fontColor=#FFFFFF;rounded=0;labelBackgroundColor=none;" parent="EA4IM6t560_-PVWmLkZ9-1" vertex="1">
          <mxGeometry x="612" y="887" width="120" height="48" as="geometry" />
        </mxCell>
        <mxCell id="xwwDJxGiXl35aFYfDn_k-2" value="1" style="html=1;shadow=0;dashed=0;shape=mxgraph.bootstrap.rrect;rSize=5;fillColor=none;strokeColor=#FFFFFF;align=left;spacing=15;fontSize=19;fontColor=#FFFFFF;rounded=0;labelBackgroundColor=none;" parent="EA4IM6t560_-PVWmLkZ9-1" vertex="1">
          <mxGeometry x="804" y="887" width="120" height="48" as="geometry" />
        </mxCell>
        <mxCell id="xwwDJxGiXl35aFYfDn_k-3" value="Quantity" style="fillColor=none;strokeColor=none;align=left;fontSize=18;rounded=0;labelBackgroundColor=none;fontColor=#FFFFFF;" parent="EA4IM6t560_-PVWmLkZ9-1" vertex="1">
          <mxGeometry x="769" y="850" width="126" height="40" as="geometry" />
        </mxCell>
        <mxCell id="xwwDJxGiXl35aFYfDn_k-4" value="" style="html=1;verticalLabelPosition=bottom;align=center;labelBackgroundColor=none;verticalAlign=top;strokeWidth=2;strokeColor=#FFFFFF;shadow=0;dashed=0;shape=mxgraph.ios7.icons.add;rounded=0;fillColor=#182E3E;fontColor=#FFFFFF;" parent="EA4IM6t560_-PVWmLkZ9-1" vertex="1">
          <mxGeometry x="927" y="896" width="30" height="30" as="geometry" />
        </mxCell>
        <mxCell id="xwwDJxGiXl35aFYfDn_k-5" value="" style="html=1;verticalLabelPosition=bottom;align=center;labelBackgroundColor=none;verticalAlign=top;strokeWidth=2;strokeColor=#FFFFFF;shadow=0;dashed=0;shape=mxgraph.ios7.icons.delete;direction=south;rounded=0;fillColor=#182E3E;fontColor=#FFFFFF;" parent="EA4IM6t560_-PVWmLkZ9-1" vertex="1">
          <mxGeometry x="767.5" y="896" width="30" height="30" as="geometry" />
        </mxCell>
        <mxCell id="xwwDJxGiXl35aFYfDn_k-8" value="Buy Now" style="html=1;shadow=0;dashed=0;shape=mxgraph.bootstrap.rrect;rSize=5;strokeColor=none;strokeWidth=1;fillColor=#182E3E;fontColor=#FFFFFF;whiteSpace=wrap;align=center;verticalAlign=middle;spacingLeft=0;fontStyle=0;fontSize=19;spacing=5;rounded=0;labelBackgroundColor=none;" parent="EA4IM6t560_-PVWmLkZ9-1" vertex="1">
          <mxGeometry x="612" y="954" width="96" height="40" as="geometry" />
        </mxCell>
        <mxCell id="xwwDJxGiXl35aFYfDn_k-9" value="Add to wishlist" style="html=1;shadow=0;dashed=0;shape=mxgraph.bootstrap.rrect;rSize=5;strokeColor=none;strokeWidth=1;fillColor=#182E3E;fontColor=#FFFFFF;whiteSpace=wrap;align=center;verticalAlign=middle;spacingLeft=0;fontStyle=0;fontSize=20;spacing=5;rounded=0;labelBackgroundColor=none;" parent="EA4IM6t560_-PVWmLkZ9-1" vertex="1">
          <mxGeometry x="728" y="954" width="152" height="40" as="geometry" />
        </mxCell>
        <mxCell id="xwwDJxGiXl35aFYfDn_k-10" value="Add to cart" style="html=1;shadow=0;dashed=0;shape=mxgraph.bootstrap.rrect;rSize=5;strokeColor=none;strokeWidth=1;fillColor=#182E3E;fontColor=#FFFFFF;whiteSpace=wrap;align=center;verticalAlign=middle;spacingLeft=0;fontStyle=0;fontSize=20;spacing=5;rounded=0;labelBackgroundColor=none;" parent="EA4IM6t560_-PVWmLkZ9-1" vertex="1">
          <mxGeometry x="904" y="956" width="108" height="40" as="geometry" />
        </mxCell>
        <mxCell id="xwwDJxGiXl35aFYfDn_k-11" value="" style="group;rounded=0;labelBackgroundColor=none;fontColor=#FFFFFF;" parent="EA4IM6t560_-PVWmLkZ9-1" vertex="1" connectable="0">
          <mxGeometry x="12" y="1710" width="1060" height="270" as="geometry" />
        </mxCell>
        <mxCell id="EA4IM6t560_-PVWmLkZ9-16" value="" style="whiteSpace=wrap;html=1;rounded=0;shadow=0;strokeWidth=1;fillColor=none;align=center;comic=1;container=0;verticalAlign=middle;labelBackgroundColor=none;strokeColor=#FFFFFF;fontColor=#FFFFFF;" parent="xwwDJxGiXl35aFYfDn_k-11" vertex="1">
          <mxGeometry width="1060" height="270" as="geometry" />
        </mxCell>
        <mxCell id="EA4IM6t560_-PVWmLkZ9-17" value="DESIWEAR" style="text;strokeColor=none;fillColor=none;html=1;fontSize=21;fontStyle=1;verticalAlign=middle;align=center;fontFamily=Verdana;fontColor=#FFFFFF;rounded=0;labelBackgroundColor=none;" parent="xwwDJxGiXl35aFYfDn_k-11" vertex="1">
          <mxGeometry x="100" y="42" width="221.5" height="40" as="geometry" />
        </mxCell>
        <mxCell id="EA4IM6t560_-PVWmLkZ9-18" value="CATEGORY" style="text;strokeColor=none;fillColor=none;html=1;fontSize=21;fontStyle=1;verticalAlign=middle;align=center;fontFamily=Verdana;fontColor=#FFFFFF;rounded=0;labelBackgroundColor=none;" parent="xwwDJxGiXl35aFYfDn_k-11" vertex="1">
          <mxGeometry x="488.5" y="42" width="221.5" height="40" as="geometry" />
        </mxCell>
        <mxCell id="EA4IM6t560_-PVWmLkZ9-19" value="USEFUL LINKS" style="text;strokeColor=none;fillColor=none;html=1;fontSize=21;fontStyle=1;verticalAlign=middle;align=center;fontFamily=Verdana;fontColor=#FFFFFF;rounded=0;labelBackgroundColor=none;" parent="xwwDJxGiXl35aFYfDn_k-11" vertex="1">
          <mxGeometry x="710" y="42" width="221.5" height="40" as="geometry" />
        </mxCell>
        <mxCell id="EA4IM6t560_-PVWmLkZ9-20" value="" style="line;strokeWidth=2;html=1;rounded=0;shadow=0;labelBackgroundColor=none;comic=1;strokeColor=#FFFFFF;fontFamily=Verdana;fontSize=12;fontColor=#FFFFFF;fillColor=none;" parent="xwwDJxGiXl35aFYfDn_k-11" vertex="1">
          <mxGeometry x="150" y="82" width="60" height="10" as="geometry" />
        </mxCell>
        <mxCell id="EA4IM6t560_-PVWmLkZ9-21" value="" style="line;strokeWidth=2;html=1;rounded=0;shadow=0;labelBackgroundColor=none;comic=1;strokeColor=#FFFFFF;fontFamily=Verdana;fontSize=12;fontColor=#FFFFFF;fillColor=none;" parent="xwwDJxGiXl35aFYfDn_k-11" vertex="1">
          <mxGeometry x="740" y="82" width="60" height="10" as="geometry" />
        </mxCell>
        <mxCell id="EA4IM6t560_-PVWmLkZ9-22" value="" style="line;strokeWidth=2;html=1;rounded=0;shadow=0;labelBackgroundColor=none;comic=1;strokeColor=#FFFFFF;fontFamily=Verdana;fontSize=12;fontColor=#FFFFFF;fillColor=none;" parent="xwwDJxGiXl35aFYfDn_k-11" vertex="1">
          <mxGeometry x="538.5" y="82" width="60" height="10" as="geometry" />
        </mxCell>
        <mxCell id="EA4IM6t560_-PVWmLkZ9-23" value="DesiWear: Your Fashion Destination for Desi Dazzle – Embrace the Culture, Own the Style, and Slay Every Day" style="text;html=1;strokeColor=none;fillColor=none;align=left;verticalAlign=middle;whiteSpace=wrap;rounded=0;fontSize=12;fontFamily=Verdana;fontColor=#FFFFFF;labelBackgroundColor=none;" parent="xwwDJxGiXl35aFYfDn_k-11" vertex="1">
          <mxGeometry x="140" y="101" width="330" height="70" as="geometry" />
        </mxCell>
        <mxCell id="EA4IM6t560_-PVWmLkZ9-24" value="Women&#39;s" style="text;html=1;strokeColor=none;fillColor=none;align=left;verticalAlign=middle;whiteSpace=wrap;rounded=0;fontSize=12;fontFamily=Verdana;fontColor=#FFFFFF;labelBackgroundColor=none;" parent="xwwDJxGiXl35aFYfDn_k-11" vertex="1">
          <mxGeometry x="538.5" y="101" width="60" height="30" as="geometry" />
        </mxCell>
        <mxCell id="EA4IM6t560_-PVWmLkZ9-25" value="Men&#39;s" style="text;html=1;strokeColor=none;fillColor=none;align=left;verticalAlign=middle;whiteSpace=wrap;rounded=0;fontSize=12;fontFamily=Verdana;fontColor=#FFFFFF;labelBackgroundColor=none;" parent="xwwDJxGiXl35aFYfDn_k-11" vertex="1">
          <mxGeometry x="538.5" y="131" width="60" height="30" as="geometry" />
        </mxCell>
        <mxCell id="EA4IM6t560_-PVWmLkZ9-26" value="Kids" style="text;html=1;strokeColor=none;fillColor=none;align=left;verticalAlign=middle;whiteSpace=wrap;rounded=0;fontSize=12;fontFamily=Verdana;fontColor=#FFFFFF;labelBackgroundColor=none;" parent="xwwDJxGiXl35aFYfDn_k-11" vertex="1">
          <mxGeometry x="538.5" y="161" width="60" height="30" as="geometry" />
        </mxCell>
        <mxCell id="EA4IM6t560_-PVWmLkZ9-27" value="Accessories" style="text;html=1;strokeColor=none;fillColor=none;align=left;verticalAlign=middle;whiteSpace=wrap;rounded=0;fontSize=12;fontFamily=Verdana;fontColor=#FFFFFF;labelBackgroundColor=none;" parent="xwwDJxGiXl35aFYfDn_k-11" vertex="1">
          <mxGeometry x="538.5" y="191" width="60" height="30" as="geometry" />
        </mxCell>
        <mxCell id="EA4IM6t560_-PVWmLkZ9-28" value="Your Account" style="text;html=1;strokeColor=none;fillColor=none;align=left;verticalAlign=middle;whiteSpace=wrap;rounded=0;fontSize=12;fontFamily=Verdana;fontColor=#FFFFFF;labelBackgroundColor=none;" parent="xwwDJxGiXl35aFYfDn_k-11" vertex="1">
          <mxGeometry x="728.5" y="101" width="131.5" height="30" as="geometry" />
        </mxCell>
        <mxCell id="EA4IM6t560_-PVWmLkZ9-29" value="Become an Affiliate" style="text;html=1;strokeColor=none;fillColor=none;align=left;verticalAlign=middle;whiteSpace=wrap;rounded=0;fontSize=12;fontFamily=Verdana;fontColor=#FFFFFF;labelBackgroundColor=none;" parent="xwwDJxGiXl35aFYfDn_k-11" vertex="1">
          <mxGeometry x="728.5" y="131" width="131.5" height="30" as="geometry" />
        </mxCell>
        <mxCell id="EA4IM6t560_-PVWmLkZ9-30" value="Shipping Rates" style="text;html=1;strokeColor=none;fillColor=none;align=left;verticalAlign=middle;whiteSpace=wrap;rounded=0;fontSize=12;fontFamily=Verdana;fontColor=#FFFFFF;labelBackgroundColor=none;" parent="xwwDJxGiXl35aFYfDn_k-11" vertex="1">
          <mxGeometry x="728.5" y="161" width="131.5" height="30" as="geometry" />
        </mxCell>
        <mxCell id="EA4IM6t560_-PVWmLkZ9-31" value="Help" style="text;html=1;strokeColor=none;fillColor=none;align=left;verticalAlign=middle;whiteSpace=wrap;rounded=0;fontSize=12;fontFamily=Verdana;fontColor=#FFFFFF;labelBackgroundColor=none;" parent="xwwDJxGiXl35aFYfDn_k-11" vertex="1">
          <mxGeometry x="730" y="191" width="131.5" height="30" as="geometry" />
        </mxCell>
        <mxCell id="yOpm3UZr4M-izMip6y4h-0" value="" style="verticalLabelPosition=bottom;shadow=0;dashed=0;align=center;html=1;verticalAlign=top;strokeWidth=1;shape=mxgraph.mockup.graphics.simpleIcon;strokeColor=#FFFFFF;rounded=0;labelBackgroundColor=none;fillColor=#182E3E;fontColor=#FFFFFF;" parent="EA4IM6t560_-PVWmLkZ9-1" vertex="1">
          <mxGeometry x="109.25" y="1176" width="190" height="180" as="geometry" />
        </mxCell>
        <mxCell id="yOpm3UZr4M-izMip6y4h-1" value="" style="verticalLabelPosition=bottom;shadow=0;dashed=0;align=center;html=1;verticalAlign=top;strokeWidth=1;shape=mxgraph.mockup.graphics.simpleIcon;strokeColor=#FFFFFF;rounded=0;labelBackgroundColor=none;fillColor=#182E3E;fontColor=#FFFFFF;" parent="EA4IM6t560_-PVWmLkZ9-1" vertex="1">
          <mxGeometry x="329.25" y="1176" width="190" height="180" as="geometry" />
        </mxCell>
        <mxCell id="yOpm3UZr4M-izMip6y4h-2" value="" style="verticalLabelPosition=bottom;shadow=0;dashed=0;align=center;html=1;verticalAlign=top;strokeWidth=1;shape=mxgraph.mockup.graphics.simpleIcon;strokeColor=#FFFFFF;rounded=0;labelBackgroundColor=none;fillColor=#182E3E;fontColor=#FFFFFF;" parent="EA4IM6t560_-PVWmLkZ9-1" vertex="1">
          <mxGeometry x="779.25" y="1176" width="190" height="180" as="geometry" />
        </mxCell>
        <mxCell id="yOpm3UZr4M-izMip6y4h-3" value="" style="verticalLabelPosition=bottom;shadow=0;dashed=0;align=center;html=1;verticalAlign=top;strokeWidth=1;shape=mxgraph.mockup.graphics.simpleIcon;strokeColor=#FFFFFF;rounded=0;labelBackgroundColor=none;fillColor=#182E3E;fontColor=#FFFFFF;" parent="EA4IM6t560_-PVWmLkZ9-1" vertex="1">
          <mxGeometry x="559.25" y="1176" width="190" height="180" as="geometry" />
        </mxCell>
        <mxCell id="Nf7M6hb6hScinXSWxmhA-0" value="" style="whiteSpace=wrap;html=1;rounded=0;shadow=0;strokeWidth=1;fillColor=none;align=center;comic=1;container=0;verticalAlign=middle;labelBackgroundColor=none;strokeColor=#FFFFFF;fontColor=#FFFFFF;" parent="EA4IM6t560_-PVWmLkZ9-1" vertex="1">
          <mxGeometry x="40" y="1056" width="1000" height="90" as="geometry" />
        </mxCell>
        <mxCell id="Nf7M6hb6hScinXSWxmhA-1" value="SIMILAR ITEMS" style="text;strokeColor=none;fillColor=none;html=1;fontSize=21;fontStyle=1;verticalAlign=middle;align=center;fontFamily=Verdana;fontColor=#FFFFFF;rounded=0;labelBackgroundColor=none;" parent="EA4IM6t560_-PVWmLkZ9-1" vertex="1">
          <mxGeometry x="380" y="1066" width="320" height="40" as="geometry" />
        </mxCell>
        <mxCell id="Nf7M6hb6hScinXSWxmhA-2" value="All the latest picked from designer of our store" style="text;html=1;strokeColor=none;fillColor=none;align=center;verticalAlign=middle;whiteSpace=wrap;rounded=0;fontSize=14;fontFamily=Verdana;fontColor=#FFFFFF;labelBackgroundColor=none;" parent="EA4IM6t560_-PVWmLkZ9-1" vertex="1">
          <mxGeometry x="347" y="1106" width="405" height="30" as="geometry" />
        </mxCell>
        <mxCell id="gRn9t90ddNVgWZX5mCmE-0" value="&lt;span&gt;&lt;font style=&quot;font-size: 14px;&quot;&gt;CATEGORY&lt;/font&gt;&lt;/span&gt;" style="text;html=1;strokeColor=none;fillColor=none;align=center;verticalAlign=middle;whiteSpace=wrap;rounded=0;fontSize=12;fontFamily=Verdana;fontColor=#FFFFFF;fontStyle=0;labelBackgroundColor=none;" parent="EA4IM6t560_-PVWmLkZ9-1" vertex="1">
          <mxGeometry x="109.25" y="1384" width="190" height="30" as="geometry" />
        </mxCell>
        <mxCell id="gRn9t90ddNVgWZX5mCmE-1" value="" style="line;strokeWidth=2;html=1;rounded=0;shadow=0;labelBackgroundColor=none;comic=1;strokeColor=#FFFFFF;fontFamily=Verdana;fontSize=12;fontColor=#FFFFFF;fillColor=none;" parent="EA4IM6t560_-PVWmLkZ9-1" vertex="1">
          <mxGeometry x="109.25" y="1374" width="190" height="10" as="geometry" />
        </mxCell>
        <mxCell id="gRn9t90ddNVgWZX5mCmE-2" value="&lt;span style=&quot;font-size: 14px;&quot;&gt;Name of the product listing&lt;/span&gt;" style="text;html=1;strokeColor=none;fillColor=none;align=center;verticalAlign=middle;whiteSpace=wrap;rounded=0;fontSize=12;fontFamily=Verdana;fontColor=#FFFFFF;fontStyle=0;labelBackgroundColor=none;" parent="EA4IM6t560_-PVWmLkZ9-1" vertex="1">
          <mxGeometry x="119.25" y="1414" width="190" height="30" as="geometry" />
        </mxCell>
        <mxCell id="gRn9t90ddNVgWZX5mCmE-3" value="&lt;span style=&quot;font-size: 14px;&quot;&gt;$100&lt;/span&gt;" style="text;html=1;strokeColor=none;fillColor=none;align=center;verticalAlign=middle;whiteSpace=wrap;rounded=0;fontSize=12;fontFamily=Verdana;fontColor=#FFFFFF;fontStyle=1;labelBackgroundColor=none;" parent="EA4IM6t560_-PVWmLkZ9-1" vertex="1">
          <mxGeometry x="119.25" y="1454" width="190" height="30" as="geometry" />
        </mxCell>
        <mxCell id="gRn9t90ddNVgWZX5mCmE-4" value="&lt;span&gt;&lt;font style=&quot;font-size: 14px;&quot;&gt;CATEGORY&lt;/font&gt;&lt;/span&gt;" style="text;html=1;strokeColor=none;fillColor=none;align=center;verticalAlign=middle;whiteSpace=wrap;rounded=0;fontSize=12;fontFamily=Verdana;fontColor=#FFFFFF;fontStyle=0;labelBackgroundColor=none;" parent="EA4IM6t560_-PVWmLkZ9-1" vertex="1">
          <mxGeometry x="329.25" y="1394" width="190" height="30" as="geometry" />
        </mxCell>
        <mxCell id="gRn9t90ddNVgWZX5mCmE-5" value="" style="line;strokeWidth=2;html=1;rounded=0;shadow=0;labelBackgroundColor=none;comic=1;strokeColor=#FFFFFF;fontFamily=Verdana;fontSize=12;fontColor=#FFFFFF;fillColor=none;" parent="EA4IM6t560_-PVWmLkZ9-1" vertex="1">
          <mxGeometry x="329.25" y="1384" width="190" height="10" as="geometry" />
        </mxCell>
        <mxCell id="gRn9t90ddNVgWZX5mCmE-6" value="&lt;span style=&quot;font-size: 14px;&quot;&gt;Name of the product listing&lt;/span&gt;" style="text;html=1;strokeColor=none;fillColor=none;align=center;verticalAlign=middle;whiteSpace=wrap;rounded=0;fontSize=12;fontFamily=Verdana;fontColor=#FFFFFF;fontStyle=0;labelBackgroundColor=none;" parent="EA4IM6t560_-PVWmLkZ9-1" vertex="1">
          <mxGeometry x="339.25" y="1424" width="190" height="30" as="geometry" />
        </mxCell>
        <mxCell id="gRn9t90ddNVgWZX5mCmE-7" value="&lt;span style=&quot;font-size: 14px;&quot;&gt;$100&lt;/span&gt;" style="text;html=1;strokeColor=none;fillColor=none;align=center;verticalAlign=middle;whiteSpace=wrap;rounded=0;fontSize=12;fontFamily=Verdana;fontColor=#FFFFFF;fontStyle=1;labelBackgroundColor=none;" parent="EA4IM6t560_-PVWmLkZ9-1" vertex="1">
          <mxGeometry x="339.25" y="1464" width="190" height="30" as="geometry" />
        </mxCell>
        <mxCell id="gRn9t90ddNVgWZX5mCmE-8" value="&lt;span&gt;&lt;font style=&quot;font-size: 14px;&quot;&gt;CATEGORY&lt;/font&gt;&lt;/span&gt;" style="text;html=1;strokeColor=none;fillColor=none;align=center;verticalAlign=middle;whiteSpace=wrap;rounded=0;fontSize=12;fontFamily=Verdana;fontColor=#FFFFFF;fontStyle=0;labelBackgroundColor=none;" parent="EA4IM6t560_-PVWmLkZ9-1" vertex="1">
          <mxGeometry x="562" y="1390" width="190" height="30" as="geometry" />
        </mxCell>
        <mxCell id="gRn9t90ddNVgWZX5mCmE-9" value="" style="line;strokeWidth=2;html=1;rounded=0;shadow=0;labelBackgroundColor=none;comic=1;strokeColor=#FFFFFF;fontFamily=Verdana;fontSize=12;fontColor=#FFFFFF;fillColor=none;" parent="EA4IM6t560_-PVWmLkZ9-1" vertex="1">
          <mxGeometry x="562" y="1380" width="190" height="10" as="geometry" />
        </mxCell>
        <mxCell id="gRn9t90ddNVgWZX5mCmE-10" value="&lt;span style=&quot;font-size: 14px;&quot;&gt;Name of the product listing&lt;/span&gt;" style="text;html=1;strokeColor=none;fillColor=none;align=center;verticalAlign=middle;whiteSpace=wrap;rounded=0;fontSize=12;fontFamily=Verdana;fontColor=#FFFFFF;fontStyle=0;labelBackgroundColor=none;" parent="EA4IM6t560_-PVWmLkZ9-1" vertex="1">
          <mxGeometry x="572" y="1420" width="190" height="30" as="geometry" />
        </mxCell>
        <mxCell id="gRn9t90ddNVgWZX5mCmE-11" value="&lt;span style=&quot;font-size: 14px;&quot;&gt;$100&lt;/span&gt;" style="text;html=1;strokeColor=none;fillColor=none;align=center;verticalAlign=middle;whiteSpace=wrap;rounded=0;fontSize=12;fontFamily=Verdana;fontColor=#FFFFFF;fontStyle=1;labelBackgroundColor=none;" parent="EA4IM6t560_-PVWmLkZ9-1" vertex="1">
          <mxGeometry x="572" y="1460" width="190" height="30" as="geometry" />
        </mxCell>
        <mxCell id="gRn9t90ddNVgWZX5mCmE-12" value="&lt;span&gt;&lt;font style=&quot;font-size: 14px;&quot;&gt;CATEGORY&lt;/font&gt;&lt;/span&gt;" style="text;html=1;strokeColor=none;fillColor=none;align=center;verticalAlign=middle;whiteSpace=wrap;rounded=0;fontSize=12;fontFamily=Verdana;fontColor=#FFFFFF;fontStyle=0;labelBackgroundColor=none;" parent="EA4IM6t560_-PVWmLkZ9-1" vertex="1">
          <mxGeometry x="779.25" y="1390" width="190" height="30" as="geometry" />
        </mxCell>
        <mxCell id="gRn9t90ddNVgWZX5mCmE-13" value="" style="line;strokeWidth=2;html=1;rounded=0;shadow=0;labelBackgroundColor=none;comic=1;strokeColor=#FFFFFF;fontFamily=Verdana;fontSize=12;fontColor=#FFFFFF;fillColor=none;" parent="EA4IM6t560_-PVWmLkZ9-1" vertex="1">
          <mxGeometry x="779.25" y="1380" width="190" height="10" as="geometry" />
        </mxCell>
        <mxCell id="gRn9t90ddNVgWZX5mCmE-14" value="&lt;span style=&quot;font-size: 14px;&quot;&gt;Name of the product listing&lt;/span&gt;" style="text;html=1;strokeColor=none;fillColor=none;align=center;verticalAlign=middle;whiteSpace=wrap;rounded=0;fontSize=12;fontFamily=Verdana;fontColor=#FFFFFF;fontStyle=0;labelBackgroundColor=none;" parent="EA4IM6t560_-PVWmLkZ9-1" vertex="1">
          <mxGeometry x="789.25" y="1420" width="190" height="30" as="geometry" />
        </mxCell>
        <mxCell id="gRn9t90ddNVgWZX5mCmE-15" value="&lt;span style=&quot;font-size: 14px;&quot;&gt;$100&lt;/span&gt;" style="text;html=1;strokeColor=none;fillColor=none;align=center;verticalAlign=middle;whiteSpace=wrap;rounded=0;fontSize=12;fontFamily=Verdana;fontColor=#FFFFFF;fontStyle=1;labelBackgroundColor=none;" parent="EA4IM6t560_-PVWmLkZ9-1" vertex="1">
          <mxGeometry x="789.25" y="1460" width="190" height="30" as="geometry" />
        </mxCell>
        <mxCell id="AA2wjOEoi0mlCg4KU3oN-0" value="" style="whiteSpace=wrap;html=1;rounded=0;shadow=0;strokeWidth=1;fillColor=none;align=center;comic=1;container=0;verticalAlign=middle;labelBackgroundColor=none;strokeColor=#FFFFFF;fontColor=#FFFFFF;" parent="EA4IM6t560_-PVWmLkZ9-1" vertex="1">
          <mxGeometry x="12" y="1638" width="1060" height="72" as="geometry" />
        </mxCell>
        <mxCell id="neDlsqGp5f1J1svfhK-g-0" value="" style="shape=image;html=1;verticalAlign=top;verticalLabelPosition=bottom;labelBackgroundColor=none;imageAspect=0;aspect=fixed;image=https://cdn2.iconfinder.com/data/icons/social-media-2285/512/1_Facebook_colored_svg_copy-128.png;rounded=0;fillColor=#182E3E;strokeColor=#FFFFFF;fontColor=#FFFFFF;" parent="EA4IM6t560_-PVWmLkZ9-1" vertex="1">
          <mxGeometry x="1013.5" y="1662" width="30" height="30" as="geometry" />
        </mxCell>
        <mxCell id="neDlsqGp5f1J1svfhK-g-1" value="" style="shape=image;html=1;verticalAlign=top;verticalLabelPosition=bottom;labelBackgroundColor=none;imageAspect=0;aspect=fixed;image=https://cdn2.iconfinder.com/data/icons/social-media-2285/512/1_Facebook_colored_svg_copy-128.png;rounded=0;fillColor=#182E3E;strokeColor=#FFFFFF;fontColor=#FFFFFF;" parent="EA4IM6t560_-PVWmLkZ9-1" vertex="1">
          <mxGeometry x="969.25" y="1662" width="30" height="30" as="geometry" />
        </mxCell>
        <mxCell id="neDlsqGp5f1J1svfhK-g-2" value="" style="shape=image;html=1;verticalAlign=top;verticalLabelPosition=bottom;labelBackgroundColor=none;imageAspect=0;aspect=fixed;image=https://cdn2.iconfinder.com/data/icons/social-media-2285/512/1_Facebook_colored_svg_copy-128.png;rounded=0;fillColor=#182E3E;strokeColor=#FFFFFF;fontColor=#FFFFFF;" parent="EA4IM6t560_-PVWmLkZ9-1" vertex="1">
          <mxGeometry x="924" y="1662" width="30" height="30" as="geometry" />
        </mxCell>
        <mxCell id="neDlsqGp5f1J1svfhK-g-3" value="" style="shape=image;html=1;verticalAlign=top;verticalLabelPosition=bottom;labelBackgroundColor=none;imageAspect=0;aspect=fixed;image=https://cdn2.iconfinder.com/data/icons/social-media-2285/512/1_Facebook_colored_svg_copy-128.png;rounded=0;fillColor=#182E3E;strokeColor=#FFFFFF;fontColor=#FFFFFF;" parent="EA4IM6t560_-PVWmLkZ9-1" vertex="1">
          <mxGeometry x="879.62" y="1659" width="30" height="30" as="geometry" />
        </mxCell>
        <mxCell id="neDlsqGp5f1J1svfhK-g-4" value="" style="shape=image;html=1;verticalAlign=top;verticalLabelPosition=bottom;labelBackgroundColor=none;imageAspect=0;aspect=fixed;image=https://cdn2.iconfinder.com/data/icons/social-media-2285/512/1_Facebook_colored_svg_copy-128.png;rounded=0;fillColor=#182E3E;strokeColor=#FFFFFF;fontColor=#FFFFFF;" parent="EA4IM6t560_-PVWmLkZ9-1" vertex="1">
          <mxGeometry x="834" y="1659" width="30" height="30" as="geometry" />
        </mxCell>
        <mxCell id="neDlsqGp5f1J1svfhK-g-5" value="Connect with us!" style="text;strokeColor=none;fillColor=none;html=1;fontSize=21;fontStyle=1;verticalAlign=middle;align=left;fontFamily=Verdana;fontColor=#FFFFFF;rounded=0;labelBackgroundColor=none;" parent="EA4IM6t560_-PVWmLkZ9-1" vertex="1">
          <mxGeometry x="20" y="1654" width="320" height="40" as="geometry" />
        </mxCell>
        <mxCell id="EHQ65O8eBjQohK2APhJ--0" value="Currency" style="text;html=1;points=[];align=right;verticalAlign=top;spacingTop=-4;fontSize=14;fontFamily=Verdana;rounded=0;labelBackgroundColor=none;fontColor=#FFFFFF;" parent="EA4IM6t560_-PVWmLkZ9-1" vertex="1">
          <mxGeometry x="784" y="91" width="80" height="20" as="geometry" />
        </mxCell>
        <mxCell id="EHQ65O8eBjQohK2APhJ--1" value="Cart" style="text;html=1;points=[];align=right;verticalAlign=top;spacingTop=-4;fontSize=14;fontFamily=Verdana;rounded=0;labelBackgroundColor=none;fontColor=#FFFFFF;" parent="EA4IM6t560_-PVWmLkZ9-1" vertex="1">
          <mxGeometry x="832" y="91" width="80" height="20" as="geometry" />
        </mxCell>
        <mxCell id="EHQ65O8eBjQohK2APhJ--2" value="Wishlist" style="text;html=1;points=[];align=right;verticalAlign=top;spacingTop=-4;fontSize=14;fontFamily=Verdana;rounded=0;labelBackgroundColor=none;fontColor=#FFFFFF;" parent="EA4IM6t560_-PVWmLkZ9-1" vertex="1">
          <mxGeometry x="903" y="91" width="80" height="20" as="geometry" />
        </mxCell>
        <mxCell id="EHQ65O8eBjQohK2APhJ--3" value="Profile" style="text;html=1;points=[];align=right;verticalAlign=top;spacingTop=-4;fontSize=14;fontFamily=Verdana;rounded=0;labelBackgroundColor=none;fontColor=#FFFFFF;" parent="EA4IM6t560_-PVWmLkZ9-1" vertex="1">
          <mxGeometry x="974" y="91" width="80" height="20" as="geometry" />
        </mxCell>
      </root>
    </mxGraphModel>
  </diagram>
</mxfile>
